<ttFont>
    <TTGlyph name="A" xMin="21" yMin="19" xMax="374" yMax="623">
      <contour>
        <pt x="180" y="623" on="1"/>
        <pt x="217" y="623" on="0"/>
        <pt x="272" y="580" on="0"/>
        <pt x="313" y="508" on="0"/>
        <pt x="341" y="414" on="0"/>
        <pt x="359" y="311" on="0"/>
        <pt x="369" y="206" on="0"/>
        <pt x="373" y="114" on="0"/>
        <pt x="374" y="40" on="0"/>
        <pt x="374" y="19" on="1"/>
        <pt x="350" y="19" on="1"/>
        <pt x="312" y="230" on="1"/>
        <pt x="307" y="235" on="0"/>
        <pt x="272" y="237" on="0"/>
        <pt x="225" y="233" on="0"/>
        <pt x="170" y="226" on="0"/>
        <pt x="121" y="223" on="0"/>
        <pt x="81" y="224" on="0"/>
        <pt x="72" y="230" on="1"/>
        <pt x="72" y="19" on="1"/>
        <pt x="21" y="19" on="1"/>
        <pt x="21" y="22" on="0"/>
        <pt x="22" y="39" on="0"/>
        <pt x="22" y="57" on="0"/>
        <pt x="24" y="73" on="0"/>
        <pt x="24" y="76" on="1"/>
        <pt x="30" y="134" on="0"/>
        <pt x="37" y="253" on="0"/>
        <pt x="47" y="365" on="0"/>
        <pt x="64" y="467" on="0"/>
        <pt x="96" y="550" on="0"/>
        <pt x="144" y="609" on="0"/>
      </contour>
      <contour>
        <pt x="196" y="577" on="1"/>
        <pt x="170" y="577" on="0"/>
        <pt x="135" y="540" on="0"/>
        <pt x="113" y="481" on="0"/>
        <pt x="101" y="409" on="0"/>
        <pt x="97" y="340" on="0"/>
        <pt x="96" y="281" on="0"/>
        <pt x="96" y="265" on="1"/>
        <pt x="145" y="265" on="0"/>
        <pt x="247" y="280" on="0"/>
        <pt x="292" y="288" on="1"/>
        <pt x="293" y="292" on="0"/>
        <pt x="294" y="310" on="0"/>
        <pt x="295" y="332" on="0"/>
        <pt x="296" y="352" on="0"/>
        <pt x="296" y="355" on="1"/>
        <pt x="296" y="388" on="0"/>
        <pt x="289" y="448" on="0"/>
        <pt x="268" y="505" on="0"/>
        <pt x="229" y="555" on="0"/>
      </contour>
    </TTGlyph>
    <TTGlyph name="AE" xMin="21" yMin="-1" xMax="769" yMax="636">
      <contour>
        <pt x="298" y="538" on="1"/>
        <pt x="314" y="561" on="0"/>
        <pt x="367" y="594" on="0"/>
        <pt x="433" y="616" on="0"/>
        <pt x="507" y="628" on="0"/>
        <pt x="580" y="634" on="0"/>
        <pt x="647" y="636" on="0"/>
        <pt x="673" y="636" on="1"/>
        <pt x="676" y="636" on="0"/>
        <pt x="689" y="635" on="0"/>
        <pt x="705" y="634" on="0"/>
        <pt x="718" y="634" on="0"/>
        <pt x="721" y="634" on="1"/>
        <pt x="725" y="612" on="0"/>
        <pt x="708" y="595" on="0"/>
        <pt x="681" y="592" on="0"/>
        <pt x="652" y="597" on="0"/>
        <pt x="644" y="595" on="1"/>
        <pt x="634" y="594" on="0"/>
        <pt x="592" y="585" on="0"/>
        <pt x="539" y="574" on="0"/>
        <pt x="481" y="561" on="0"/>
        <pt x="427" y="550" on="0"/>
        <pt x="385" y="540" on="0"/>
        <pt x="376" y="538" on="1"/>
        <pt x="359" y="532" on="0"/>
        <pt x="355" y="514" on="0"/>
        <pt x="355" y="502" on="1"/>
        <pt x="355" y="481" on="0"/>
        <pt x="361" y="429" on="0"/>
        <pt x="367" y="378" on="0"/>
        <pt x="374" y="336" on="0"/>
        <pt x="376" y="326" on="1"/>
        <pt x="379" y="325" on="0"/>
        <pt x="390" y="325" on="1"/>
        <pt x="405" y="325" on="1"/>
        <pt x="428" y="325" on="0"/>
        <pt x="472" y="333" on="0"/>
        <pt x="517" y="343" on="0"/>
        <pt x="562" y="350" on="0"/>
        <pt x="586" y="350" on="1"/>
        <pt x="586" y="313" on="1"/>
        <pt x="577" y="313" on="0"/>
        <pt x="540" y="310" on="0"/>
        <pt x="497" y="302" on="0"/>
        <pt x="453" y="293" on="0"/>
        <pt x="417" y="283" on="0"/>
        <pt x="394" y="273" on="0"/>
        <pt x="394" y="268" on="1"/>
        <pt x="394" y="60" on="1"/>
        <pt x="442" y="60" on="0"/>
        <pt x="535" y="66" on="0"/>
        <pt x="628" y="73" on="0"/>
        <pt x="722" y="79" on="0"/>
        <pt x="769" y="79" on="1"/>
        <pt x="769" y="67" on="0"/>
        <pt x="754" y="52" on="0"/>
        <pt x="732" y="43" on="0"/>
        <pt x="709" y="39" on="0"/>
        <pt x="702" y="38" on="1"/>
        <pt x="698" y="37" on="0"/>
        <pt x="656" y="33" on="0"/>
        <pt x="594" y="25" on="0"/>
        <pt x="518" y="17" on="0"/>
        <pt x="444" y="9" on="0"/>
        <pt x="378" y="2" on="0"/>
        <pt x="356" y="0" on="1"/>
        <pt x="353" y="-1" on="0"/>
        <pt x="347" y="-1" on="1"/>
        <pt x="347" y="36" on="1"/>
        <pt x="312" y="230" on="1"/>
        <pt x="307" y="235" on="0"/>
        <pt x="272" y="237" on="0"/>
        <pt x="225" y="233" on="0"/>
        <pt x="170" y="226" on="0"/>
        <pt x="121" y="223" on="0"/>
        <pt x="81" y="224" on="0"/>
        <pt x="72" y="230" on="1"/>
        <pt x="72" y="19" on="1"/>
        <pt x="21" y="19" on="1"/>
        <pt x="21" y="22" on="0"/>
        <pt x="22" y="39" on="0"/>
        <pt x="22" y="57" on="0"/>
        <pt x="24" y="73" on="0"/>
        <pt x="24" y="76" on="1"/>
        <pt x="30" y="134" on="0"/>
        <pt x="37" y="253" on="0"/>
        <pt x="47" y="365" on="0"/>
        <pt x="64" y="467" on="0"/>
        <pt x="96" y="550" on="0"/>
        <pt x="144" y="609" on="0"/>
        <pt x="180" y="623" on="1"/>
        <pt x="217" y="623" on="0"/>
        <pt x="272" y="580" on="0"/>
        <pt x="292" y="544" on="1"/>
        <pt x="299" y="532" on="1"/>
        <pt x="299" y="534" on="0"/>
      </contour>
      <contour>
        <pt x="196" y="577" on="1"/>
        <pt x="170" y="577" on="0"/>
        <pt x="135" y="540" on="0"/>
        <pt x="113" y="481" on="0"/>
        <pt x="101" y="409" on="0"/>
        <pt x="97" y="340" on="0"/>
        <pt x="96" y="281" on="0"/>
        <pt x="96" y="265" on="1"/>
        <pt x="145" y="265" on="0"/>
        <pt x="247" y="280" on="0"/>
        <pt x="292" y="288" on="1"/>
        <pt x="293" y="292" on="0"/>
        <pt x="294" y="310" on="0"/>
        <pt x="295" y="332" on="0"/>
        <pt x="296" y="352" on="0"/>
        <pt x="296" y="355" on="1"/>
        <pt x="296" y="388" on="0"/>
        <pt x="289" y="448" on="0"/>
        <pt x="268" y="505" on="0"/>
        <pt x="229" y="555" on="0"/>
      </contour>
    </TTGlyph>
    <TTGlyph name="AEacute" xMin="21" yMin="-1" xMax="769" yMax="882">
      <component glyphName="AE" x="0" y="0" flags="0x1204"/>
      <component glyphName="acute" x="287" y="233" flags="0x1004"/>
    </TTGlyph>
    <TTGlyph name="Aacute" xMin="21" yMin="19" xMax="374" yMax="803">
      <component glyphName="A" x="0" y="0" flags="0x1204"/>
      <component glyphName="acute" x="107" y="154" flags="0x1004"/>
    </TTGlyph>
    <TTGlyph name="Abreve" xMin="21" yMin="19" xMax="374" yMax="753">
      <component glyphName="A" x="0" y="0" flags="0x1204"/>
      <component glyphName="breve" x="73" y="300" flags="0x1004"/>
    </TTGlyph>
    <TTGlyph name="Acircumflex" xMin="21" yMin="19" xMax="374" yMax="910">
      <component glyphName="A" x="0" y="0" flags="0x1204"/>
      <component glyphName="circumflex" x="55" y="154" flags="0x1004"/>
    </TTGlyph>
    <TTGlyph name="Adieresis" xMin="21" yMin="19" xMax="374" yMax="739">
      <component glyphName="A" x="0" y="0" flags="0x1204"/>
      <component glyphName="dieresis" x="31" y="154" flags="0x1004"/>
    </TTGlyph>
    <TTGlyph name="Agrave" xMin="21" yMin="19" xMax="374" yMax="808">
      <component glyphName="A" x="0" y="0" flags="0x1204"/>
      <component glyphName="grave" x="56" y="154" flags="0x1004"/>
    </TTGlyph>
    <TTGlyph name="Amacron" xMin="17" yMin="19" xMax="389" yMax="744">
      <component glyphName="A" x="0" y="0" flags="0x1204"/>
      <component glyphName="macron" x="-14" y="227" flags="0x1004"/>
    </TTGlyph>
    <TTGlyph name="Aogonek" xMin="19" yMin="-150" xMax="399" yMax="606">
      <contour>
        <pt x="399" y="-124" on="1"/>
        <pt x="394" y="-125" on="0"/>
        <pt x="359" y="-136" on="0"/>
        <pt x="314" y="-147" on="0"/>
        <pt x="263" y="-152" on="0"/>
        <pt x="221" y="-141" on="0"/>
        <pt x="193" y="-110" on="0"/>
        <pt x="193" y="-77" on="1"/>
        <pt x="193" y="-46" on="0"/>
        <pt x="217" y="-2" on="0"/>
        <pt x="258" y="28" on="0"/>
        <pt x="284" y="37" on="1"/>
        <pt x="310" y="46" on="0"/>
        <pt x="339" y="51" on="1"/>
        <pt x="310" y="213" on="1"/>
        <pt x="304" y="218" on="0"/>
        <pt x="270" y="220" on="0"/>
        <pt x="223" y="216" on="0"/>
        <pt x="168" y="209" on="0"/>
        <pt x="118" y="205" on="0"/>
        <pt x="79" y="207" on="0"/>
        <pt x="70" y="213" on="1"/>
        <pt x="70" y="2" on="1"/>
        <pt x="19" y="2" on="1"/>
        <pt x="19" y="5" on="0"/>
        <pt x="19" y="22" on="0"/>
        <pt x="20" y="40" on="0"/>
        <pt x="22" y="56" on="0"/>
        <pt x="22" y="59" on="1"/>
        <pt x="28" y="117" on="0"/>
        <pt x="34" y="236" on="0"/>
        <pt x="45" y="348" on="0"/>
        <pt x="62" y="450" on="0"/>
        <pt x="94" y="532" on="0"/>
        <pt x="142" y="592" on="0"/>
        <pt x="178" y="606" on="1"/>
        <pt x="214" y="606" on="0"/>
        <pt x="270" y="563" on="0"/>
        <pt x="311" y="491" on="0"/>
        <pt x="339" y="397" on="0"/>
        <pt x="357" y="294" on="0"/>
        <pt x="367" y="189" on="0"/>
        <pt x="371" y="97" on="0"/>
        <pt x="372" y="22" on="0"/>
        <pt x="372" y="2" on="1"/>
        <pt x="348" y="2" on="1"/>
        <pt x="346" y="8" on="1"/>
        <pt x="331" y="7" on="0"/>
        <pt x="315" y="5" on="1"/>
        <pt x="292" y="1" on="0"/>
        <pt x="256" y="-20" on="0"/>
        <pt x="234" y="-56" on="0"/>
        <pt x="234" y="-85" on="1"/>
        <pt x="234" y="-106" on="0"/>
        <pt x="262" y="-119" on="0"/>
        <pt x="307" y="-112" on="0"/>
        <pt x="365" y="-91" on="0"/>
        <pt x="396" y="-80" on="1"/>
      </contour>
      <contour>
        <pt x="194" y="560" on="1"/>
        <pt x="168" y="560" on="0"/>
        <pt x="133" y="523" on="0"/>
        <pt x="111" y="464" on="0"/>
        <pt x="99" y="392" on="0"/>
        <pt x="94" y="323" on="0"/>
        <pt x="94" y="264" on="0"/>
        <pt x="94" y="248" on="1"/>
        <pt x="142" y="248" on="0"/>
        <pt x="244" y="262" on="0"/>
        <pt x="290" y="271" on="1"/>
        <pt x="291" y="274" on="0"/>
        <pt x="292" y="293" on="0"/>
        <pt x="293" y="315" on="0"/>
        <pt x="294" y="334" on="0"/>
        <pt x="294" y="338" on="1"/>
        <pt x="294" y="370" on="0"/>
        <pt x="287" y="431" on="0"/>
        <pt x="266" y="487" on="0"/>
        <pt x="226" y="538" on="0"/>
      </contour>
    </TTGlyph>
    <TTGlyph name="Aring" xMin="28" yMin="7" xMax="382" yMax="726">
      <contour>
        <pt x="137" y="661" on="1"/>
        <pt x="137" y="668" on="0"/>
        <pt x="139" y="691" on="0"/>
        <pt x="148" y="711" on="0"/>
        <pt x="164" y="726" on="0"/>
        <pt x="178" y="726" on="1"/>
        <pt x="214" y="726" on="0"/>
        <pt x="250" y="685" on="0"/>
        <pt x="250" y="658" on="1"/>
        <pt x="250" y="649" on="0"/>
        <pt x="244" y="628" on="0"/>
        <pt x="238" y="619" on="1"/>
        <pt x="232" y="611" on="0"/>
        <pt x="224" y="604" on="1"/>
        <pt x="239" y="599" on="0"/>
        <pt x="252" y="589" on="1"/>
        <pt x="280" y="568" on="0"/>
        <pt x="321" y="496" on="0"/>
        <pt x="349" y="402" on="0"/>
        <pt x="367" y="299" on="0"/>
        <pt x="376" y="194" on="0"/>
        <pt x="381" y="102" on="0"/>
        <pt x="382" y="28" on="0"/>
        <pt x="382" y="7" on="1"/>
        <pt x="358" y="7" on="1"/>
        <pt x="319" y="218" on="1"/>
        <pt x="314" y="223" on="0"/>
        <pt x="280" y="225" on="0"/>
        <pt x="232" y="221" on="0"/>
        <pt x="178" y="214" on="0"/>
        <pt x="128" y="211" on="0"/>
        <pt x="88" y="212" on="0"/>
        <pt x="79" y="218" on="1"/>
        <pt x="79" y="7" on="1"/>
        <pt x="28" y="7" on="1"/>
        <pt x="28" y="10" on="0"/>
        <pt x="29" y="27" on="0"/>
        <pt x="30" y="45" on="0"/>
        <pt x="31" y="61" on="0"/>
        <pt x="31" y="64" on="1"/>
        <pt x="37" y="122" on="0"/>
        <pt x="44" y="241" on="0"/>
        <pt x="55" y="353" on="0"/>
        <pt x="72" y="455" on="0"/>
        <pt x="103" y="538" on="0"/>
        <pt x="127" y="567" on="1"/>
        <pt x="145" y="589" on="0"/>
        <pt x="169" y="602" on="1"/>
        <pt x="168" y="603" on="1"/>
        <pt x="157" y="609" on="0"/>
        <pt x="143" y="628" on="0"/>
        <pt x="137" y="650" on="0"/>
      </contour>
      <contour>
        <pt x="204" y="565" on="1"/>
        <pt x="178" y="565" on="0"/>
        <pt x="142" y="528" on="0"/>
        <pt x="121" y="469" on="0"/>
        <pt x="109" y="397" on="0"/>
        <pt x="104" y="328" on="0"/>
        <pt x="103" y="269" on="0"/>
        <pt x="103" y="253" on="1"/>
        <pt x="152" y="253" on="0"/>
        <pt x="254" y="268" on="0"/>
        <pt x="300" y="276" on="1"/>
        <pt x="301" y="280" on="0"/>
        <pt x="301" y="298" on="0"/>
        <pt x="303" y="320" on="0"/>
        <pt x="304" y="340" on="0"/>
        <pt x="304" y="343" on="1"/>
        <pt x="304" y="376" on="0"/>
        <pt x="297" y="436" on="0"/>
        <pt x="276" y="493" on="0"/>
        <pt x="236" y="543" on="0"/>
      </contour>
      <contour>
        <pt x="157" y="661" on="1"/>
        <pt x="167" y="634" on="0"/>
        <pt x="187" y="619" on="0"/>
        <pt x="205" y="627" on="0"/>
        <pt x="219" y="650" on="0"/>
        <pt x="223" y="663" on="1"/>
        <pt x="220" y="684" on="0"/>
        <pt x="195" y="704" on="0"/>
        <pt x="170" y="703" on="0"/>
        <pt x="153" y="682" on="0"/>
      </contour>
    </TTGlyph>
    <TTGlyph name="Atilde" xMin="21" yMin="19" xMax="374" yMax="750">
      <component glyphName="A" x="0" y="0" flags="0x1204"/>
      <component glyphName="tilde" x="40" y="154" flags="0x1004"/>
    </TTGlyph>
    <TTGlyph name="B" xMin="19" yMin="-2" xMax="462" yMax="616">
      <contour>
        <pt x="49" y="499" on="1"/>
        <pt x="45" y="500" on="0"/>
        <pt x="34" y="510" on="0"/>
        <pt x="25" y="522" on="0"/>
        <pt x="19" y="534" on="0"/>
        <pt x="19" y="538" on="1"/>
        <pt x="22" y="571" on="0"/>
        <pt x="65" y="604" on="0"/>
        <pt x="121" y="616" on="0"/>
        <pt x="181" y="616" on="0"/>
        <pt x="202" y="616" on="1"/>
        <pt x="237" y="616" on="0"/>
        <pt x="296" y="609" on="0"/>
        <pt x="340" y="584" on="0"/>
        <pt x="366" y="538" on="0"/>
        <pt x="366" y="498" on="1"/>
        <pt x="366" y="478" on="0"/>
        <pt x="363" y="447" on="0"/>
        <pt x="355" y="418" on="0"/>
        <pt x="339" y="385" on="0"/>
        <pt x="326" y="364" on="1"/>
        <pt x="367" y="351" on="0"/>
        <pt x="421" y="328" on="0"/>
        <pt x="451" y="295" on="0"/>
        <pt x="462" y="248" on="0"/>
        <pt x="462" y="211" on="1"/>
        <pt x="462" y="167" on="0"/>
        <pt x="424" y="89" on="0"/>
        <pt x="361" y="31" on="0"/>
        <pt x="277" y="-2" on="0"/>
        <pt x="230" y="-2" on="1"/>
        <pt x="220" y="-2" on="0"/>
        <pt x="186" y="5" on="0"/>
        <pt x="146" y="16" on="0"/>
        <pt x="104" y="31" on="0"/>
        <pt x="70" y="49" on="0"/>
        <pt x="49" y="67" on="0"/>
        <pt x="49" y="76" on="1"/>
      </contour>
      <contour>
        <pt x="115" y="268" on="1"/>
        <pt x="117" y="244" on="0"/>
        <pt x="109" y="192" on="0"/>
        <pt x="103" y="144" on="0"/>
        <pt x="105" y="101" on="0"/>
        <pt x="127" y="67" on="0"/>
        <pt x="177" y="42" on="0"/>
        <pt x="221" y="37" on="1"/>
        <pt x="258" y="37" on="0"/>
        <pt x="331" y="64" on="0"/>
        <pt x="388" y="111" on="0"/>
        <pt x="424" y="176" on="0"/>
        <pt x="424" y="215" on="1"/>
        <pt x="424" y="241" on="0"/>
        <pt x="406" y="277" on="0"/>
        <pt x="376" y="300" on="0"/>
        <pt x="335" y="310" on="0"/>
        <pt x="312" y="310" on="1"/>
        <pt x="283" y="310" on="0"/>
        <pt x="237" y="307" on="0"/>
        <pt x="192" y="298" on="0"/>
        <pt x="145" y="281" on="0"/>
      </contour>
      <contour>
        <pt x="95" y="372" on="1"/>
        <pt x="95" y="364" on="0"/>
        <pt x="97" y="347" on="0"/>
        <pt x="102" y="334" on="0"/>
        <pt x="114" y="325" on="0"/>
        <pt x="124" y="325" on="1"/>
        <pt x="158" y="325" on="0"/>
        <pt x="230" y="351" on="0"/>
        <pt x="289" y="397" on="0"/>
        <pt x="328" y="460" on="0"/>
        <pt x="328" y="499" on="1"/>
        <pt x="328" y="503" on="0"/>
        <pt x="324" y="518" on="0"/>
        <pt x="310" y="534" on="0"/>
        <pt x="282" y="549" on="0"/>
        <pt x="235" y="559" on="0"/>
        <pt x="165" y="561" on="0"/>
        <pt x="115" y="556" on="1"/>
        <pt x="113" y="554" on="0"/>
        <pt x="108" y="532" on="0"/>
        <pt x="103" y="499" on="0"/>
        <pt x="100" y="460" on="0"/>
        <pt x="97" y="421" on="0"/>
        <pt x="95" y="385" on="0"/>
      </contour>
    </TTGlyph>
    <TTGlyph name="C" xMin="13" yMin="-1" xMax="418" yMax="616">
      <contour>
        <pt x="13" y="259" on="1"/>
        <pt x="13" y="290" on="0"/>
        <pt x="26" y="367" on="0"/>
        <pt x="52" y="446" on="0"/>
        <pt x="91" y="521" on="0"/>
        <pt x="142" y="580" on="0"/>
        <pt x="207" y="616" on="0"/>
        <pt x="246" y="616" on="1"/>
        <pt x="274" y="616" on="0"/>
        <pt x="313" y="594" on="0"/>
        <pt x="337" y="558" on="0"/>
        <pt x="348" y="513" on="0"/>
        <pt x="348" y="490" on="1"/>
        <pt x="326" y="490" on="0"/>
        <pt x="304" y="517" on="0"/>
        <pt x="285" y="550" on="0"/>
        <pt x="260" y="577" on="0"/>
        <pt x="235" y="577" on="1"/>
        <pt x="202" y="577" on="0"/>
        <pt x="151" y="541" on="0"/>
        <pt x="113" y="484" on="0"/>
        <pt x="88" y="412" on="0"/>
        <pt x="73" y="340" on="0"/>
        <pt x="67" y="273" on="0"/>
        <pt x="67" y="250" on="1"/>
        <pt x="63" y="216" on="0"/>
        <pt x="70" y="143" on="0"/>
        <pt x="96" y="82" on="0"/>
        <pt x="146" y="41" on="0"/>
        <pt x="187" y="38" on="1"/>
        <pt x="213" y="38" on="0"/>
        <pt x="277" y="55" on="0"/>
        <pt x="340" y="78" on="0"/>
        <pt x="398" y="105" on="0"/>
        <pt x="418" y="115" on="1"/>
        <pt x="418" y="76" on="1"/>
        <pt x="417" y="76" on="0"/>
        <pt x="394" y="67" on="0"/>
        <pt x="357" y="53" on="0"/>
        <pt x="310" y="37" on="0"/>
        <pt x="264" y="20" on="0"/>
        <pt x="221" y="5" on="0"/>
        <pt x="206" y="0" on="1"/>
        <pt x="205" y="0" on="0"/>
        <pt x="199" y="-1" on="0"/>
        <pt x="197" y="-1" on="1"/>
        <pt x="142" y="-1" on="0"/>
        <pt x="71" y="46" on="0"/>
        <pt x="29" y="121" on="0"/>
        <pt x="13" y="214" on="0"/>
      </contour>
    </TTGlyph>
    <TTGlyph name="Cacute" xMin="13" yMin="-1" xMax="418" yMax="803">
      <component glyphName="C" x="0" y="0" flags="0x1204"/>
      <component glyphName="acute" x="127" y="154" flags="0x1004"/>
    </TTGlyph>
    <TTGlyph name="Ccaron" xMin="13" yMin="-1" xMax="418" yMax="833">
      <component glyphName="C" x="0" y="0" flags="0x1204"/>
      <component glyphName="caron" x="70" y="154" flags="0x1004"/>
    </TTGlyph>
    <TTGlyph name="Ccedilla" xMin="13" yMin="-236" xMax="418" yMax="616">
      <contour>
        <pt x="166" y="-172" on="1"/>
        <pt x="178" y="-172" on="0"/>
        <pt x="199" y="-182" on="0"/>
        <pt x="220" y="-196" on="0"/>
        <pt x="241" y="-206" on="0"/>
        <pt x="253" y="-206" on="1"/>
        <pt x="266" y="-209" on="0"/>
        <pt x="301" y="-193" on="0"/>
        <pt x="328" y="-168" on="0"/>
        <pt x="340" y="-140" on="0"/>
        <pt x="322" y="-119" on="0"/>
        <pt x="268" y="-111" on="0"/>
        <pt x="216" y="-119" on="1"/>
        <pt x="206" y="-119" on="0"/>
        <pt x="187" y="-106" on="0"/>
        <pt x="172" y="-86" on="0"/>
        <pt x="163" y="-62" on="0"/>
        <pt x="163" y="-52" on="1"/>
        <pt x="157" y="-22" on="0"/>
        <pt x="166" y="-3" on="1"/>
        <pt x="167" y="-1" on="0"/>
        <pt x="168" y="1" on="1"/>
        <pt x="132" y="5" on="0"/>
        <pt x="106" y="22" on="1"/>
        <pt x="71" y="46" on="0"/>
        <pt x="29" y="121" on="0"/>
        <pt x="13" y="214" on="0"/>
        <pt x="13" y="259" on="1"/>
        <pt x="13" y="290" on="0"/>
        <pt x="26" y="367" on="0"/>
        <pt x="52" y="446" on="0"/>
        <pt x="91" y="521" on="0"/>
        <pt x="142" y="580" on="0"/>
        <pt x="207" y="616" on="0"/>
        <pt x="246" y="616" on="1"/>
        <pt x="274" y="616" on="0"/>
        <pt x="313" y="594" on="0"/>
        <pt x="337" y="558" on="0"/>
        <pt x="348" y="513" on="0"/>
        <pt x="348" y="490" on="1"/>
        <pt x="326" y="490" on="0"/>
        <pt x="304" y="517" on="0"/>
        <pt x="285" y="550" on="0"/>
        <pt x="260" y="577" on="0"/>
        <pt x="235" y="577" on="1"/>
        <pt x="202" y="577" on="0"/>
        <pt x="151" y="541" on="0"/>
        <pt x="113" y="484" on="0"/>
        <pt x="88" y="412" on="0"/>
        <pt x="73" y="340" on="0"/>
        <pt x="67" y="273" on="0"/>
        <pt x="67" y="250" on="1"/>
        <pt x="63" y="216" on="0"/>
        <pt x="70" y="143" on="0"/>
        <pt x="96" y="82" on="0"/>
        <pt x="146" y="41" on="0"/>
        <pt x="187" y="38" on="1"/>
        <pt x="213" y="38" on="0"/>
        <pt x="277" y="55" on="0"/>
        <pt x="340" y="78" on="0"/>
        <pt x="398" y="105" on="0"/>
        <pt x="418" y="115" on="1"/>
        <pt x="418" y="76" on="1"/>
        <pt x="417" y="76" on="0"/>
        <pt x="394" y="67" on="0"/>
        <pt x="357" y="53" on="0"/>
        <pt x="334" y="45" on="1"/>
        <pt x="287" y="28" on="1"/>
        <pt x="264" y="20" on="0"/>
        <pt x="221" y="5" on="0"/>
        <pt x="206" y="0" on="1"/>
        <pt x="202" y="0" on="1"/>
        <pt x="200" y="-1" on="0"/>
        <pt x="199" y="0" on="1"/>
        <pt x="202" y="-18" on="0"/>
        <pt x="190" y="-58" on="1"/>
        <pt x="190" y="-74" on="0"/>
        <pt x="214" y="-80" on="0"/>
        <pt x="252" y="-78" on="0"/>
        <pt x="295" y="-75" on="0"/>
        <pt x="333" y="-86" on="0"/>
        <pt x="358" y="-119" on="0"/>
        <pt x="358" y="-154" on="1"/>
        <pt x="358" y="-176" on="0"/>
        <pt x="337" y="-209" on="0"/>
        <pt x="306" y="-230" on="0"/>
        <pt x="267" y="-238" on="0"/>
        <pt x="247" y="-236" on="1"/>
        <pt x="239" y="-235" on="0"/>
        <pt x="211" y="-227" on="0"/>
        <pt x="185" y="-211" on="0"/>
        <pt x="166" y="-188" on="0"/>
      </contour>
    </TTGlyph>
    <TTGlyph name="Ccircumflex" xMin="13" yMin="-1" xMax="418" yMax="883">
      <component glyphName="C" x="0" y="0" flags="0x1204"/>
      <component glyphName="circumflex" x="68" y="127" flags="0x1004"/>
    </TTGlyph>
    <TTGlyph name="Cdotaccent" xMin="13" yMin="-1" xMax="418" yMax="752">
      <component glyphName="C" x="0" y="0" flags="0x1204"/>
      <component glyphName="dotaccent" x="141" y="272" flags="0x1004"/>
    </TTGlyph>
    <TTGlyph name="D" xMin="19" yMin="-3" xMax="519" yMax="559">
      <contour>
        <pt x="38" y="499" on="1"/>
        <pt x="36" y="501" on="0"/>
        <pt x="30" y="511" on="0"/>
        <pt x="24" y="524" on="0"/>
        <pt x="19" y="535" on="0"/>
        <pt x="19" y="538" on="1"/>
        <pt x="19" y="547" on="0"/>
        <pt x="35" y="557" on="0"/>
        <pt x="55" y="559" on="0"/>
        <pt x="74" y="559" on="0"/>
        <pt x="76" y="559" on="1"/>
        <pt x="79" y="559" on="0"/>
        <pt x="90" y="558" on="0"/>
        <pt x="103" y="557" on="0"/>
        <pt x="113" y="556" on="0"/>
        <pt x="115" y="556" on="1"/>
        <pt x="148" y="544" on="0"/>
        <pt x="233" y="512" on="0"/>
        <pt x="323" y="470" on="0"/>
        <pt x="409" y="417" on="0"/>
        <pt x="477" y="350" on="0"/>
        <pt x="519" y="270" on="0"/>
        <pt x="519" y="221" on="1"/>
        <pt x="519" y="179" on="0"/>
        <pt x="487" y="112" on="0"/>
        <pt x="434" y="63" on="0"/>
        <pt x="364" y="28" on="0"/>
        <pt x="291" y="7" on="0"/>
        <pt x="217" y="-3" on="0"/>
        <pt x="185" y="-3" on="1"/>
        <pt x="178" y="-3" on="0"/>
        <pt x="144" y="-2" on="0"/>
        <pt x="108" y="0" on="0"/>
        <pt x="79" y="1" on="0"/>
        <pt x="78" y="1" on="1"/>
        <pt x="76" y="38" on="1"/>
      </contour>
      <contour>
        <pt x="95" y="504" on="1"/>
        <pt x="95" y="502" on="0"/>
        <pt x="95" y="490" on="0"/>
        <pt x="96" y="475" on="0"/>
        <pt x="96" y="463" on="0"/>
        <pt x="96" y="460" on="1"/>
        <pt x="97" y="445" on="0"/>
        <pt x="100" y="379" on="0"/>
        <pt x="103" y="295" on="0"/>
        <pt x="108" y="204" on="0"/>
        <pt x="112" y="121" on="0"/>
        <pt x="115" y="54" on="0"/>
        <pt x="115" y="38" on="1"/>
        <pt x="121" y="38" on="0"/>
        <pt x="148" y="37" on="0"/>
        <pt x="178" y="36" on="0"/>
        <pt x="205" y="35" on="0"/>
        <pt x="211" y="35" on="1"/>
        <pt x="257" y="35" on="0"/>
        <pt x="347" y="58" on="0"/>
        <pt x="418" y="105" on="0"/>
        <pt x="463" y="180" on="0"/>
        <pt x="463" y="233" on="1"/>
        <pt x="463" y="272" on="0"/>
        <pt x="427" y="343" on="0"/>
        <pt x="368" y="403" on="0"/>
        <pt x="292" y="451" on="0"/>
        <pt x="211" y="486" on="0"/>
        <pt x="130" y="504" on="0"/>
      </contour>
    </TTGlyph>
    <TTGlyph name="Dcaron" xMin="19" yMin="-3" xMax="519" yMax="833">
      <component glyphName="D" x="0" y="0" flags="0x1204"/>
      <component glyphName="caron" x="121" y="154" flags="0x1004"/>
    </TTGlyph>
    <TTGlyph name="Dcroat" xMin="-29" yMin="-3" xMax="519" yMax="559">
      <contour>
        <pt x="-22" y="286" on="1"/>
        <pt x="55" y="286" on="1"/>
        <pt x="38" y="499" on="1"/>
        <pt x="36" y="501" on="0"/>
        <pt x="30" y="511" on="0"/>
        <pt x="24" y="524" on="0"/>
        <pt x="19" y="535" on="0"/>
        <pt x="19" y="538" on="1"/>
        <pt x="19" y="547" on="0"/>
        <pt x="35" y="557" on="0"/>
        <pt x="55" y="559" on="0"/>
        <pt x="74" y="559" on="0"/>
        <pt x="76" y="559" on="1"/>
        <pt x="79" y="559" on="0"/>
        <pt x="90" y="558" on="0"/>
        <pt x="103" y="557" on="0"/>
        <pt x="113" y="556" on="0"/>
        <pt x="115" y="556" on="1"/>
        <pt x="148" y="544" on="0"/>
        <pt x="233" y="512" on="0"/>
        <pt x="323" y="470" on="0"/>
        <pt x="409" y="417" on="0"/>
        <pt x="477" y="350" on="0"/>
        <pt x="519" y="270" on="0"/>
        <pt x="519" y="221" on="1"/>
        <pt x="519" y="179" on="0"/>
        <pt x="487" y="112" on="0"/>
        <pt x="434" y="63" on="0"/>
        <pt x="364" y="28" on="0"/>
        <pt x="291" y="7" on="0"/>
        <pt x="217" y="-3" on="0"/>
        <pt x="185" y="-3" on="1"/>
        <pt x="178" y="-3" on="0"/>
        <pt x="144" y="-2" on="0"/>
        <pt x="108" y="0" on="0"/>
        <pt x="79" y="1" on="0"/>
        <pt x="78" y="1" on="1"/>
        <pt x="76" y="38" on="1"/>
        <pt x="59" y="240" on="1"/>
        <pt x="50" y="240" on="1"/>
        <pt x="25" y="241" on="0"/>
        <pt x="-17" y="246" on="0"/>
        <pt x="-29" y="253" on="1"/>
      </contour>
      <contour>
        <pt x="95" y="504" on="1"/>
        <pt x="95" y="496" on="1"/>
        <pt x="95" y="490" on="0"/>
        <pt x="96" y="475" on="0"/>
        <pt x="96" y="469" on="1"/>
        <pt x="96" y="460" on="1"/>
        <pt x="97" y="445" on="0"/>
        <pt x="100" y="379" on="0"/>
        <pt x="101" y="337" on="1"/>
        <pt x="103" y="313" on="0"/>
        <pt x="103" y="287" on="1"/>
        <pt x="218" y="289" on="1"/>
        <pt x="218" y="246" on="1"/>
        <pt x="211" y="248" on="0"/>
        <pt x="175" y="247" on="0"/>
        <pt x="152" y="245" on="1"/>
        <pt x="131" y="244" on="0"/>
        <pt x="106" y="242" on="1"/>
        <pt x="108" y="200" on="0"/>
        <pt x="109" y="162" on="1"/>
        <pt x="112" y="121" on="0"/>
        <pt x="115" y="54" on="0"/>
        <pt x="115" y="38" on="1"/>
        <pt x="121" y="38" on="0"/>
        <pt x="148" y="37" on="0"/>
        <pt x="178" y="36" on="0"/>
        <pt x="205" y="35" on="0"/>
        <pt x="211" y="35" on="1"/>
        <pt x="257" y="35" on="0"/>
        <pt x="347" y="58" on="0"/>
        <pt x="418" y="105" on="0"/>
        <pt x="463" y="180" on="0"/>
        <pt x="463" y="233" on="1"/>
        <pt x="463" y="272" on="0"/>
        <pt x="427" y="343" on="0"/>
        <pt x="368" y="403" on="0"/>
        <pt x="292" y="451" on="0"/>
        <pt x="211" y="486" on="0"/>
        <pt x="130" y="504" on="0"/>
      </contour>
    </TTGlyph>
    <TTGlyph name="E" xMin="14" yMin="-1" xMax="485" yMax="636">
      <contour>
        <pt x="14" y="538" on="1"/>
        <pt x="30" y="561" on="0"/>
        <pt x="83" y="594" on="0"/>
        <pt x="148" y="616" on="0"/>
        <pt x="223" y="628" on="0"/>
        <pt x="295" y="634" on="0"/>
        <pt x="363" y="636" on="0"/>
        <pt x="389" y="636" on="1"/>
        <pt x="391" y="636" on="0"/>
        <pt x="405" y="635" on="0"/>
        <pt x="421" y="634" on="0"/>
        <pt x="434" y="634" on="0"/>
        <pt x="437" y="634" on="1"/>
        <pt x="441" y="612" on="0"/>
        <pt x="424" y="595" on="0"/>
        <pt x="397" y="592" on="0"/>
        <pt x="367" y="597" on="0"/>
        <pt x="360" y="595" on="1"/>
        <pt x="350" y="594" on="0"/>
        <pt x="307" y="585" on="0"/>
        <pt x="255" y="574" on="0"/>
        <pt x="196" y="561" on="0"/>
        <pt x="143" y="550" on="0"/>
        <pt x="101" y="540" on="0"/>
        <pt x="91" y="538" on="1"/>
        <pt x="75" y="532" on="0"/>
        <pt x="71" y="514" on="0"/>
        <pt x="71" y="502" on="1"/>
        <pt x="71" y="481" on="0"/>
        <pt x="76" y="429" on="0"/>
        <pt x="83" y="378" on="0"/>
        <pt x="90" y="336" on="0"/>
        <pt x="91" y="326" on="1"/>
        <pt x="95" y="325" on="0"/>
        <pt x="117" y="325" on="0"/>
        <pt x="121" y="325" on="1"/>
        <pt x="144" y="325" on="0"/>
        <pt x="188" y="333" on="0"/>
        <pt x="232" y="343" on="0"/>
        <pt x="278" y="350" on="0"/>
        <pt x="302" y="350" on="1"/>
        <pt x="302" y="313" on="1"/>
        <pt x="292" y="313" on="0"/>
        <pt x="256" y="310" on="0"/>
        <pt x="213" y="302" on="0"/>
        <pt x="169" y="293" on="0"/>
        <pt x="133" y="283" on="0"/>
        <pt x="110" y="273" on="0"/>
        <pt x="110" y="268" on="1"/>
        <pt x="110" y="60" on="1"/>
        <pt x="157" y="60" on="0"/>
        <pt x="250" y="66" on="0"/>
        <pt x="344" y="73" on="0"/>
        <pt x="438" y="79" on="0"/>
        <pt x="485" y="79" on="1"/>
        <pt x="485" y="67" on="0"/>
        <pt x="469" y="52" on="0"/>
        <pt x="448" y="43" on="0"/>
        <pt x="424" y="39" on="0"/>
        <pt x="418" y="38" on="1"/>
        <pt x="414" y="37" on="0"/>
        <pt x="372" y="33" on="0"/>
        <pt x="310" y="25" on="0"/>
        <pt x="234" y="17" on="0"/>
        <pt x="160" y="9" on="0"/>
        <pt x="94" y="2" on="0"/>
        <pt x="72" y="0" on="1"/>
        <pt x="69" y="-1" on="0"/>
        <pt x="63" y="-1" on="1"/>
        <pt x="63" y="133" on="0"/>
        <pt x="46" y="406" on="0"/>
      </contour>
    </TTGlyph>
    <TTGlyph name="Eacute" xMin="14" yMin="-1" xMax="485" yMax="803">
      <component glyphName="E" x="0" y="0" flags="0x1204"/>
      <component glyphName="acute" x="160" y="154" flags="0x1004"/>
    </TTGlyph>
    <TTGlyph name="Ebreve" xMin="14" yMin="-1" xMax="485" yMax="775">
      <component glyphName="E" x="0" y="0" flags="0x1204"/>
      <component glyphName="breve" x="114" y="322" flags="0x1004"/>
    </TTGlyph>
    <TTGlyph name="Ecaron" xMin="14" yMin="-1" xMax="485" yMax="833">
      <component glyphName="E" x="0" y="0" flags="0x1204"/>
      <component glyphName="caron" x="103" y="154" flags="0x1004"/>
    </TTGlyph>
    <TTGlyph name="Ecircumflex" xMin="14" yMin="-1" xMax="485" yMax="910">
      <component glyphName="E" x="0" y="0" flags="0x1204"/>
      <component glyphName="circumflex" x="107" y="154" flags="0x1004"/>
    </TTGlyph>
    <TTGlyph name="Edieresis" xMin="14" yMin="-1" xMax="485" yMax="739">
      <component glyphName="E" x="0" y="0" flags="0x1204"/>
      <component glyphName="dieresis" x="83" y="154" flags="0x1004"/>
    </TTGlyph>
    <TTGlyph name="Edotaccent" xMin="14" yMin="-1" xMax="485" yMax="752">
      <component glyphName="E" x="0" y="0" flags="0x1204"/>
      <component glyphName="dotaccent" x="175" y="272" flags="0x1004"/>
    </TTGlyph>
    <TTGlyph name="Egrave" xMin="14" yMin="-1" xMax="485" yMax="808">
      <component glyphName="E" x="0" y="0" flags="0x1204"/>
      <component glyphName="grave" x="109" y="154" flags="0x1004"/>
    </TTGlyph>
    <TTGlyph name="Emacron" xMin="14" yMin="-1" xMax="485" yMax="789">
      <component glyphName="E" x="0" y="0" flags="0x1204"/>
      <component glyphName="macron" x="34" y="272" flags="0x1004"/>
    </TTGlyph>
    <TTGlyph name="Eogonek" xMin="10" yMin="-116" xMax="481" yMax="631">
      <contour>
        <pt x="426" y="-92" on="1"/>
        <pt x="421" y="-93" on="0"/>
        <pt x="390" y="-103" on="0"/>
        <pt x="349" y="-113" on="0"/>
        <pt x="301" y="-119" on="0"/>
        <pt x="263" y="-108" on="0"/>
        <pt x="238" y="-79" on="0"/>
        <pt x="238" y="-50" on="1"/>
        <pt x="238" y="-21" on="0"/>
        <pt x="249" y="-1" on="1"/>
        <pt x="253" y="7" on="0"/>
        <pt x="259" y="15" on="1"/>
        <pt x="226" y="11" on="0"/>
        <pt x="193" y="7" on="1"/>
        <pt x="156" y="4" on="0"/>
        <pt x="90" y="-3" on="0"/>
        <pt x="68" y="-5" on="1"/>
        <pt x="65" y="-6" on="0"/>
        <pt x="59" y="-6" on="1"/>
        <pt x="59" y="128" on="0"/>
        <pt x="42" y="400" on="0"/>
        <pt x="10" y="532" on="1"/>
        <pt x="26" y="556" on="0"/>
        <pt x="79" y="589" on="0"/>
        <pt x="145" y="610" on="0"/>
        <pt x="219" y="622" on="0"/>
        <pt x="292" y="629" on="0"/>
        <pt x="359" y="631" on="0"/>
        <pt x="385" y="631" on="1"/>
        <pt x="388" y="631" on="0"/>
        <pt x="401" y="630" on="0"/>
        <pt x="417" y="629" on="0"/>
        <pt x="430" y="628" on="0"/>
        <pt x="433" y="628" on="1"/>
        <pt x="437" y="607" on="0"/>
        <pt x="420" y="590" on="0"/>
        <pt x="393" y="587" on="0"/>
        <pt x="364" y="592" on="0"/>
        <pt x="356" y="590" on="1"/>
        <pt x="346" y="589" on="0"/>
        <pt x="304" y="580" on="0"/>
        <pt x="251" y="568" on="0"/>
        <pt x="193" y="556" on="0"/>
        <pt x="139" y="544" on="0"/>
        <pt x="97" y="535" on="0"/>
        <pt x="88" y="532" on="1"/>
        <pt x="71" y="527" on="0"/>
        <pt x="67" y="508" on="0"/>
        <pt x="67" y="496" on="1"/>
        <pt x="67" y="476" on="0"/>
        <pt x="73" y="424" on="0"/>
        <pt x="79" y="373" on="0"/>
        <pt x="86" y="331" on="0"/>
        <pt x="88" y="321" on="1"/>
        <pt x="91" y="320" on="0"/>
        <pt x="102" y="320" on="1"/>
        <pt x="117" y="320" on="1"/>
        <pt x="140" y="320" on="0"/>
        <pt x="184" y="328" on="0"/>
        <pt x="229" y="337" on="0"/>
        <pt x="274" y="345" on="0"/>
        <pt x="298" y="345" on="1"/>
        <pt x="298" y="308" on="1"/>
        <pt x="289" y="308" on="0"/>
        <pt x="252" y="304" on="0"/>
        <pt x="209" y="297" on="0"/>
        <pt x="165" y="288" on="0"/>
        <pt x="129" y="278" on="0"/>
        <pt x="106" y="268" on="0"/>
        <pt x="106" y="263" on="1"/>
        <pt x="106" y="55" on="1"/>
        <pt x="154" y="55" on="0"/>
        <pt x="247" y="61" on="0"/>
        <pt x="340" y="68" on="0"/>
        <pt x="434" y="74" on="0"/>
        <pt x="481" y="74" on="1"/>
        <pt x="481" y="61" on="0"/>
        <pt x="466" y="46" on="0"/>
        <pt x="444" y="38" on="0"/>
        <pt x="421" y="34" on="0"/>
        <pt x="414" y="33" on="1"/>
        <pt x="410" y="32" on="0"/>
        <pt x="392" y="30" on="1"/>
        <pt x="391" y="29" on="1"/>
        <pt x="381" y="29" on="1"/>
        <pt x="364" y="27" on="0"/>
        <pt x="341" y="24" on="1"/>
        <pt x="325" y="20" on="0"/>
        <pt x="312" y="13" on="1"/>
        <pt x="295" y="3" on="0"/>
        <pt x="275" y="-30" on="0"/>
        <pt x="275" y="-56" on="1"/>
        <pt x="275" y="-76" on="0"/>
        <pt x="301" y="-87" on="0"/>
        <pt x="342" y="-81" on="0"/>
        <pt x="395" y="-62" on="0"/>
        <pt x="424" y="-52" on="1"/>
      </contour>
    </TTGlyph>
    <TTGlyph name="Eth" xMin="1" yMin="-3" xMax="519" yMax="559">
      <contour>
        <pt x="21" y="222" on="1"/>
        <pt x="22" y="223" on="0"/>
        <pt x="23" y="224" on="0"/>
        <pt x="31" y="226" on="0"/>
        <pt x="46" y="229" on="0"/>
        <pt x="61" y="232" on="1"/>
        <pt x="38" y="499" on="1"/>
        <pt x="36" y="501" on="0"/>
        <pt x="30" y="511" on="0"/>
        <pt x="24" y="524" on="0"/>
        <pt x="19" y="535" on="0"/>
        <pt x="19" y="538" on="1"/>
        <pt x="19" y="547" on="0"/>
        <pt x="35" y="557" on="0"/>
        <pt x="55" y="559" on="0"/>
        <pt x="74" y="559" on="0"/>
        <pt x="76" y="559" on="1"/>
        <pt x="79" y="559" on="0"/>
        <pt x="90" y="558" on="0"/>
        <pt x="103" y="557" on="0"/>
        <pt x="113" y="556" on="0"/>
        <pt x="115" y="556" on="1"/>
        <pt x="148" y="544" on="0"/>
        <pt x="233" y="512" on="0"/>
        <pt x="323" y="470" on="0"/>
        <pt x="409" y="417" on="0"/>
        <pt x="477" y="350" on="0"/>
        <pt x="519" y="270" on="0"/>
        <pt x="519" y="221" on="1"/>
        <pt x="519" y="179" on="0"/>
        <pt x="487" y="112" on="0"/>
        <pt x="434" y="63" on="0"/>
        <pt x="364" y="28" on="0"/>
        <pt x="291" y="7" on="0"/>
        <pt x="217" y="-3" on="0"/>
        <pt x="185" y="-3" on="1"/>
        <pt x="178" y="-3" on="0"/>
        <pt x="144" y="-2" on="0"/>
        <pt x="108" y="0" on="0"/>
        <pt x="79" y="1" on="0"/>
        <pt x="78" y="1" on="1"/>
        <pt x="76" y="38" on="1"/>
        <pt x="64" y="184" on="1"/>
        <pt x="59" y="184" on="1"/>
        <pt x="58" y="184" on="0"/>
        <pt x="41" y="183" on="0"/>
        <pt x="37" y="183" on="1"/>
        <pt x="25" y="183" on="0"/>
        <pt x="7" y="187" on="0"/>
        <pt x="1" y="202" on="1"/>
      </contour>
      <contour>
        <pt x="95" y="504" on="1"/>
        <pt x="95" y="502" on="0"/>
        <pt x="95" y="490" on="0"/>
        <pt x="96" y="475" on="0"/>
        <pt x="96" y="463" on="0"/>
        <pt x="96" y="460" on="1"/>
        <pt x="97" y="448" on="0"/>
        <pt x="98" y="401" on="0"/>
        <pt x="101" y="341" on="0"/>
        <pt x="104" y="271" on="0"/>
        <pt x="106" y="236" on="1"/>
        <pt x="140" y="239" on="1"/>
        <pt x="148" y="243" on="0"/>
        <pt x="181" y="244" on="0"/>
        <pt x="206" y="235" on="0"/>
        <pt x="214" y="217" on="0"/>
        <pt x="198" y="201" on="1"/>
        <pt x="182" y="199" on="0"/>
        <pt x="157" y="196" on="0"/>
        <pt x="137" y="193" on="0"/>
        <pt x="118" y="190" on="0"/>
        <pt x="108" y="189" on="1"/>
        <pt x="110" y="139" on="0"/>
        <pt x="114" y="57" on="0"/>
        <pt x="115" y="38" on="1"/>
        <pt x="121" y="38" on="0"/>
        <pt x="148" y="37" on="0"/>
        <pt x="178" y="36" on="0"/>
        <pt x="205" y="35" on="0"/>
        <pt x="211" y="35" on="1"/>
        <pt x="257" y="35" on="0"/>
        <pt x="347" y="58" on="0"/>
        <pt x="418" y="105" on="0"/>
        <pt x="463" y="180" on="0"/>
        <pt x="463" y="233" on="1"/>
        <pt x="463" y="272" on="0"/>
        <pt x="427" y="343" on="0"/>
        <pt x="368" y="403" on="0"/>
        <pt x="292" y="451" on="0"/>
        <pt x="211" y="486" on="0"/>
        <pt x="130" y="504" on="0"/>
      </contour>
    </TTGlyph>
    <TTGlyph name="Euro" xMin="11" yMin="-1" xMax="481" yMax="616">
      <contour>
        <pt x="11" y="339" on="1"/>
        <pt x="37" y="342" on="0"/>
        <pt x="70" y="346" on="1"/>
        <pt x="86" y="347" on="1"/>
        <pt x="92" y="376" on="0"/>
        <pt x="102" y="406" on="1"/>
        <pt x="115" y="446" on="0"/>
        <pt x="154" y="521" on="0"/>
        <pt x="205" y="580" on="0"/>
        <pt x="270" y="616" on="0"/>
        <pt x="309" y="616" on="1"/>
        <pt x="346" y="610" on="0"/>
        <pt x="415" y="589" on="0"/>
        <pt x="457" y="564" on="0"/>
        <pt x="463" y="537" on="0"/>
        <pt x="439" y="524" on="1"/>
        <pt x="417" y="524" on="0"/>
        <pt x="386" y="541" on="0"/>
        <pt x="357" y="560" on="0"/>
        <pt x="323" y="577" on="0"/>
        <pt x="298" y="577" on="1"/>
        <pt x="265" y="577" on="0"/>
        <pt x="214" y="541" on="0"/>
        <pt x="176" y="484" on="0"/>
        <pt x="151" y="412" on="0"/>
        <pt x="143" y="376" on="1"/>
        <pt x="139" y="352" on="1"/>
        <pt x="172" y="355" on="0"/>
        <pt x="206" y="358" on="1"/>
        <pt x="241" y="360" on="0"/>
        <pt x="274" y="360" on="1"/>
        <pt x="274" y="319" on="1"/>
        <pt x="133" y="314" on="1"/>
        <pt x="133" y="307" on="1"/>
        <pt x="130" y="273" on="0"/>
        <pt x="130" y="250" on="1"/>
        <pt x="130" y="249" on="0"/>
        <pt x="129" y="247" on="1"/>
        <pt x="145" y="249" on="0"/>
        <pt x="160" y="250" on="1"/>
        <pt x="192" y="252" on="0"/>
        <pt x="245" y="252" on="0"/>
        <pt x="283" y="248" on="0"/>
        <pt x="287" y="243" on="1"/>
        <pt x="287" y="218" on="1"/>
        <pt x="287" y="217" on="0"/>
        <pt x="257" y="217" on="0"/>
        <pt x="209" y="216" on="0"/>
        <pt x="178" y="214" on="1"/>
        <pt x="127" y="213" on="1"/>
        <pt x="127" y="196" on="0"/>
        <pt x="129" y="179" on="1"/>
        <pt x="133" y="143" on="0"/>
        <pt x="159" y="82" on="0"/>
        <pt x="209" y="41" on="0"/>
        <pt x="250" y="38" on="1"/>
        <pt x="276" y="38" on="0"/>
        <pt x="340" y="55" on="0"/>
        <pt x="403" y="78" on="0"/>
        <pt x="461" y="105" on="0"/>
        <pt x="481" y="115" on="1"/>
        <pt x="481" y="76" on="1"/>
        <pt x="480" y="73" on="0"/>
        <pt x="457" y="58" on="0"/>
        <pt x="418" y="40" on="0"/>
        <pt x="371" y="21" on="0"/>
        <pt x="322" y="5" on="0"/>
        <pt x="277" y="-3" on="0"/>
        <pt x="260" y="-1" on="1"/>
        <pt x="205" y="-1" on="0"/>
        <pt x="134" y="46" on="0"/>
        <pt x="92" y="121" on="0"/>
        <pt x="84" y="168" on="1"/>
        <pt x="80" y="189" on="0"/>
        <pt x="79" y="211" on="1"/>
        <pt x="62" y="209" on="1"/>
        <pt x="36" y="207" on="0"/>
        <pt x="19" y="205" on="1"/>
        <pt x="18" y="205" on="0"/>
        <pt x="18" y="209" on="1"/>
        <pt x="18" y="219" on="1"/>
        <pt x="18" y="224" on="0"/>
        <pt x="17" y="229" on="1"/>
        <pt x="16" y="232" on="0"/>
        <pt x="15" y="233" on="1"/>
        <pt x="25" y="236" on="0"/>
        <pt x="49" y="239" on="1"/>
        <pt x="61" y="241" on="0"/>
        <pt x="76" y="242" on="1"/>
        <pt x="76" y="259" on="1"/>
        <pt x="76" y="283" on="0"/>
        <pt x="80" y="312" on="1"/>
        <pt x="11" y="310" on="1"/>
      </contour>
    </TTGlyph>
    <TTGlyph name="F" xMin="14" yMin="-6" xMax="460" yMax="679">
      <contour>
        <pt x="34" y="518" on="1"/>
        <pt x="31" y="519" on="0"/>
        <pt x="23" y="529" on="0"/>
        <pt x="17" y="541" on="0"/>
        <pt x="13" y="553" on="0"/>
        <pt x="14" y="556" on="1"/>
        <pt x="15" y="560" on="0"/>
        <pt x="25" y="572" on="0"/>
        <pt x="37" y="585" on="0"/>
        <pt x="49" y="595" on="0"/>
        <pt x="53" y="595" on="1"/>
        <pt x="65" y="598" on="0"/>
        <pt x="116" y="611" on="0"/>
        <pt x="180" y="627" on="0"/>
        <pt x="251" y="643" on="0"/>
        <pt x="316" y="658" on="0"/>
        <pt x="367" y="670" on="0"/>
        <pt x="379" y="672" on="1"/>
        <pt x="384" y="673" on="0"/>
        <pt x="407" y="675" on="0"/>
        <pt x="433" y="677" on="0"/>
        <pt x="456" y="679" on="0"/>
        <pt x="460" y="679" on="1"/>
        <pt x="460" y="660" on="0"/>
        <pt x="451" y="643" on="0"/>
        <pt x="434" y="637" on="0"/>
        <pt x="412" y="637" on="0"/>
        <pt x="398" y="634" on="1"/>
        <pt x="388" y="631" on="0"/>
        <pt x="342" y="619" on="0"/>
        <pt x="286" y="604" on="0"/>
        <pt x="223" y="588" on="0"/>
        <pt x="166" y="572" on="0"/>
        <pt x="121" y="559" on="0"/>
        <pt x="110" y="556" on="1"/>
        <pt x="95" y="539" on="0"/>
        <pt x="91" y="511" on="0"/>
        <pt x="91" y="492" on="1"/>
        <pt x="91" y="449" on="0"/>
        <pt x="102" y="372" on="0"/>
        <pt x="110" y="326" on="1"/>
        <pt x="112" y="326" on="0"/>
        <pt x="119" y="325" on="0"/>
        <pt x="121" y="325" on="1"/>
        <pt x="148" y="325" on="0"/>
        <pt x="199" y="338" on="0"/>
        <pt x="250" y="354" on="0"/>
        <pt x="303" y="367" on="0"/>
        <pt x="331" y="367" on="1"/>
        <pt x="335" y="367" on="0"/>
        <pt x="354" y="366" on="0"/>
        <pt x="372" y="361" on="0"/>
        <pt x="382" y="353" on="0"/>
        <pt x="379" y="346" on="1"/>
        <pt x="121" y="268" on="1"/>
        <pt x="121" y="-6" on="1"/>
        <pt x="103" y="-6" on="0"/>
        <pt x="83" y="3" on="0"/>
        <pt x="75" y="20" on="0"/>
        <pt x="73" y="43" on="0"/>
        <pt x="72" y="58" on="1"/>
        <pt x="70" y="75" on="0"/>
        <pt x="64" y="147" on="0"/>
        <pt x="57" y="238" on="0"/>
        <pt x="49" y="338" on="0"/>
        <pt x="41" y="429" on="0"/>
        <pt x="35" y="501" on="0"/>
      </contour>
    </TTGlyph>
    <TTGlyph name="G" xMin="19" yMin="-88" xMax="539" yMax="664">
      <contour>
        <pt x="480" y="66" on="1"/>
        <pt x="441" y="46" on="0"/>
        <pt x="381" y="22" on="0"/>
        <pt x="325" y="9" on="0"/>
        <pt x="268" y="5" on="0"/>
        <pt x="231" y="5" on="1"/>
        <pt x="182" y="5" on="0"/>
        <pt x="104" y="28" on="0"/>
        <pt x="49" y="75" on="0"/>
        <pt x="19" y="148" on="0"/>
        <pt x="19" y="200" on="1"/>
        <pt x="19" y="247" on="0"/>
        <pt x="38" y="351" on="0"/>
        <pt x="75" y="454" on="0"/>
        <pt x="130" y="549" on="0"/>
        <pt x="204" y="621" on="0"/>
        <pt x="296" y="664" on="0"/>
        <pt x="352" y="664" on="1"/>
        <pt x="373" y="664" on="0"/>
        <pt x="431" y="655" on="0"/>
        <pt x="484" y="634" on="0"/>
        <pt x="520" y="595" on="0"/>
        <pt x="520" y="565" on="1"/>
        <pt x="520" y="554" on="0"/>
        <pt x="499" y="555" on="0"/>
        <pt x="468" y="569" on="0"/>
        <pt x="429" y="591" on="0"/>
        <pt x="393" y="611" on="0"/>
        <pt x="363" y="625" on="0"/>
        <pt x="355" y="623" on="1"/>
        <pt x="307" y="623" on="0"/>
        <pt x="229" y="586" on="0"/>
        <pt x="166" y="524" on="0"/>
        <pt x="119" y="443" on="0"/>
        <pt x="88" y="355" on="0"/>
        <pt x="73" y="268" on="0"/>
        <pt x="73" y="229" on="1"/>
        <pt x="66" y="182" on="0"/>
        <pt x="91" y="113" on="0"/>
        <pt x="141" y="68" on="0"/>
        <pt x="211" y="46" on="0"/>
        <pt x="286" y="43" on="0"/>
        <pt x="360" y="60" on="0"/>
        <pt x="421" y="94" on="0"/>
        <pt x="460" y="144" on="0"/>
        <pt x="463" y="175" on="1"/>
        <pt x="463" y="207" on="0"/>
        <pt x="438" y="251" on="0"/>
        <pt x="397" y="281" on="0"/>
        <pt x="344" y="299" on="0"/>
        <pt x="289" y="309" on="0"/>
        <pt x="234" y="313" on="0"/>
        <pt x="211" y="316" on="1"/>
        <pt x="211" y="334" on="1"/>
        <pt x="211" y="336" on="0"/>
        <pt x="264" y="346" on="0"/>
        <pt x="337" y="358" on="0"/>
        <pt x="415" y="370" on="0"/>
        <pt x="442" y="373" on="1"/>
        <pt x="442" y="373" on="0"/>
        <pt x="452" y="374" on="0"/>
        <pt x="464" y="374" on="0"/>
        <pt x="476" y="374" on="0"/>
        <pt x="480" y="374" on="1"/>
        <pt x="482" y="374" on="0"/>
        <pt x="493" y="374" on="0"/>
        <pt x="505" y="374" on="0"/>
        <pt x="516" y="373" on="0"/>
        <pt x="518" y="373" on="1"/>
        <pt x="519" y="359" on="0"/>
        <pt x="522" y="298" on="0"/>
        <pt x="526" y="223" on="0"/>
        <pt x="530" y="139" on="0"/>
        <pt x="534" y="64" on="0"/>
        <pt x="537" y="4" on="0"/>
        <pt x="538" y="-11" on="1"/>
        <pt x="538" y="-15" on="0"/>
        <pt x="538" y="-37" on="0"/>
        <pt x="539" y="-62" on="0"/>
        <pt x="539" y="-83" on="0"/>
        <pt x="539" y="-88" on="1"/>
        <pt x="518" y="-88" on="1"/>
      </contour>
      <contour>
        <pt x="480" y="277" on="1"/>
        <pt x="480" y="338" on="1"/>
        <pt x="465" y="338" on="0"/>
        <pt x="433" y="323" on="0"/>
        <pt x="422" y="316" on="1"/>
      </contour>
    </TTGlyph>
    <TTGlyph name="Gbreve" xMin="19" yMin="-88" xMax="539" yMax="814">
      <component glyphName="G" x="0" y="0" flags="0x1204"/>
      <component glyphName="breve" x="167" y="361" flags="0x1004"/>
    </TTGlyph>
    <TTGlyph name="Gcircumflex" xMin="19" yMin="-88" xMax="539" yMax="922">
      <component glyphName="G" x="0" y="0" flags="0x1204"/>
      <component glyphName="circumflex" x="168" y="166" flags="0x1004"/>
    </TTGlyph>
    <TTGlyph name="Gcommaaccent" xMin="19" yMin="-174" xMax="539" yMax="664">
      <component glyphName="G" x="0" y="0" flags="0x1204"/>
      <component glyphName="commaaccent" x="208" y="0" flags="0x1004"/>
    </TTGlyph>
    <TTGlyph name="Gdotaccent" xMin="19" yMin="-88" xMax="539" yMax="752">
      <component glyphName="G" x="0" y="0" flags="0x1204"/>
      <component glyphName="dotaccent" x="203" y="272" flags="0x1004"/>
    </TTGlyph>
    <TTGlyph name="H" xMin="22" yMin="-2" xMax="331" yMax="772">
      <contour>
        <pt x="22" y="201" on="1"/>
        <pt x="22" y="273" on="0"/>
        <pt x="23" y="401" on="0"/>
        <pt x="28" y="526" on="0"/>
        <pt x="36" y="655" on="0"/>
        <pt x="43" y="730" on="1"/>
        <pt x="72" y="730" on="1"/>
        <pt x="72" y="346" on="1"/>
        <pt x="290" y="346" on="1"/>
        <pt x="289" y="382" on="0"/>
        <pt x="289" y="465" on="0"/>
        <pt x="287" y="550" on="0"/>
        <pt x="286" y="631" on="0"/>
        <pt x="286" y="703" on="0"/>
        <pt x="286" y="757" on="0"/>
        <pt x="286" y="772" on="1"/>
        <pt x="289" y="772" on="0"/>
        <pt x="304" y="769" on="0"/>
        <pt x="319" y="764" on="0"/>
        <pt x="331" y="755" on="0"/>
        <pt x="331" y="748" on="1"/>
        <pt x="331" y="-1" on="1"/>
        <pt x="300" y="5" on="1"/>
        <pt x="298" y="5" on="0"/>
        <pt x="296" y="31" on="0"/>
        <pt x="295" y="70" on="0"/>
        <pt x="294" y="121" on="0"/>
        <pt x="293" y="170" on="0"/>
        <pt x="292" y="214" on="0"/>
        <pt x="292" y="229" on="1"/>
        <pt x="292" y="243" on="0"/>
        <pt x="292" y="291" on="0"/>
        <pt x="291" y="322" on="1"/>
        <pt x="72" y="283" on="1"/>
        <pt x="70" y="-2" on="1"/>
        <pt x="22" y="-2" on="1"/>
        <pt x="22" y="-1" on="0"/>
        <pt x="22" y="25" on="0"/>
        <pt x="22" y="64" on="0"/>
        <pt x="22" y="111" on="0"/>
        <pt x="22" y="155" on="0"/>
        <pt x="22" y="191" on="0"/>
      </contour>
    </TTGlyph>
    <TTGlyph name="Hcircumflex" xMin="22" yMin="-2" xMax="331" yMax="1028">
      <component glyphName="H" x="0" y="0" flags="0x1204"/>
      <component glyphName="circumflex" x="49" y="272" flags="0x1004"/>
    </TTGlyph>
    <TTGlyph name="I" xMin="14" yMin="2" xMax="82" yMax="730">
      <contour>
        <pt x="14" y="703" on="1"/>
        <pt x="14" y="715" on="0"/>
        <pt x="31" y="730" on="0"/>
        <pt x="43" y="730" on="1"/>
        <pt x="44" y="730" on="0"/>
        <pt x="52" y="730" on="0"/>
        <pt x="53" y="730" on="1"/>
        <pt x="58" y="646" on="0"/>
        <pt x="66" y="495" on="0"/>
        <pt x="71" y="349" on="0"/>
        <pt x="73" y="204" on="0"/>
        <pt x="73" y="125" on="1"/>
        <pt x="73" y="114" on="0"/>
        <pt x="76" y="76" on="0"/>
        <pt x="79" y="40" on="0"/>
        <pt x="82" y="11" on="0"/>
        <pt x="82" y="10" on="1"/>
        <pt x="39" y="2" on="1"/>
        <pt x="37" y="43" on="0"/>
        <pt x="33" y="150" on="0"/>
        <pt x="30" y="271" on="0"/>
        <pt x="27" y="400" on="0"/>
        <pt x="22" y="526" on="0"/>
        <pt x="17" y="643" on="0"/>
        <pt x="14" y="691" on="1"/>
      </contour>
    </TTGlyph>
    <TTGlyph name="Iacute" xMin="-11" yMin="2" xMax="120" yMax="932">
      <component glyphName="I" x="0" y="0" flags="0x1204"/>
      <component glyphName="acute" x="-32" y="283" flags="0x1004"/>
    </TTGlyph>
    <TTGlyph name="Ibreve" xMin="4" yMin="2" xMax="119" yMax="853">
      <component glyphName="I" x="0" y="0" flags="0x1204"/>
      <component glyphName="breve" x="-48" y="400" flags="0x1004"/>
    </TTGlyph>
    <TTGlyph name="Icircumflex" xMin="-65" yMin="2" xMax="177" yMax="975">
      <component glyphName="I" x="0" y="0" flags="0x1204"/>
      <component glyphName="circumflex" x="-88" y="219" flags="0x1004"/>
    </TTGlyph>
    <TTGlyph name="Idieresis" xMin="-83" yMin="2" xMax="161" yMax="869">
      <component glyphName="I" x="0" y="0" flags="0x1204"/>
      <component glyphName="dieresis" x="-129" y="284" flags="0x1004"/>
    </TTGlyph>
    <TTGlyph name="Idotaccent" xMin="0" yMin="2" xMax="82" yMax="856">
      <component glyphName="I" x="0" y="0" flags="0x1204"/>
      <component glyphName="dotaccent" x="-44" y="376" flags="0x1004"/>
    </TTGlyph>
    <TTGlyph name="Igrave" xMin="-14" yMin="2" xMax="96" yMax="925">
      <component glyphName="I" x="0" y="0" flags="0x1204"/>
      <component glyphName="grave" x="-102" y="271" flags="0x1004"/>
    </TTGlyph>
    <TTGlyph name="Itilde" xMin="-62" yMin="2" xMax="169" yMax="868">
      <component glyphName="I" x="0" y="0" flags="0x1204"/>
      <component glyphName="tilde" x="-105" y="272" flags="0x1004"/>
    </TTGlyph>
    <TTGlyph name="J" xMin="19" yMin="-2" xMax="437" yMax="716">
      <contour>
        <pt x="19" y="154" on="1"/>
        <pt x="19" y="167" on="0"/>
        <pt x="22" y="187" on="0"/>
        <pt x="38" y="192" on="1"/>
        <pt x="55" y="185" on="0"/>
        <pt x="71" y="156" on="0"/>
        <pt x="82" y="120" on="0"/>
        <pt x="91" y="82" on="0"/>
        <pt x="109" y="52" on="0"/>
        <pt x="143" y="35" on="0"/>
        <pt x="172" y="38" on="1"/>
        <pt x="224" y="43" on="0"/>
        <pt x="296" y="70" on="0"/>
        <pt x="343" y="110" on="0"/>
        <pt x="370" y="164" on="0"/>
        <pt x="383" y="230" on="0"/>
        <pt x="386" y="307" on="0"/>
        <pt x="386" y="351" on="1"/>
        <pt x="386" y="396" on="0"/>
        <pt x="373" y="484" on="0"/>
        <pt x="358" y="571" on="0"/>
        <pt x="345" y="658" on="0"/>
        <pt x="345" y="702" on="1"/>
        <pt x="345" y="707" on="0"/>
        <pt x="346" y="714" on="0"/>
        <pt x="355" y="717" on="0"/>
        <pt x="370" y="715" on="0"/>
        <pt x="384" y="710" on="1"/>
        <pt x="385" y="709" on="0"/>
        <pt x="392" y="684" on="0"/>
        <pt x="400" y="646" on="0"/>
        <pt x="408" y="600" on="0"/>
        <pt x="415" y="554" on="0"/>
        <pt x="421" y="513" on="0"/>
        <pt x="422" y="499" on="1"/>
        <pt x="426" y="439" on="0"/>
        <pt x="438" y="315" on="0"/>
        <pt x="436" y="199" on="0"/>
        <pt x="413" y="100" on="0"/>
        <pt x="353" y="29" on="0"/>
        <pt x="247" y="-8" on="0"/>
        <pt x="164" y="-2" on="1"/>
        <pt x="134" y="-2" on="0"/>
        <pt x="81" y="25" on="0"/>
        <pt x="42" y="69" on="0"/>
        <pt x="19" y="125" on="0"/>
      </contour>
    </TTGlyph>
    <TTGlyph name="Jcircumflex" xMin="19" yMin="-2" xMax="509" yMax="1049">
      <component glyphName="J" x="0" y="0" flags="0x1204"/>
      <component glyphName="circumflex" x="244" y="293" flags="0x1004"/>
    </TTGlyph>
    <TTGlyph name="K" xMin="32" yMin="-4" xMax="437" yMax="730">
      <contour>
        <pt x="33" y="582" on="1"/>
        <pt x="33" y="590" on="0"/>
        <pt x="33" y="631" on="0"/>
        <pt x="33" y="677" on="0"/>
        <pt x="34" y="718" on="0"/>
        <pt x="34" y="726" on="1"/>
        <pt x="61" y="726" on="1"/>
        <pt x="61" y="726" on="0"/>
        <pt x="63" y="685" on="0"/>
        <pt x="66" y="616" on="0"/>
        <pt x="70" y="523" on="0"/>
        <pt x="75" y="418" on="0"/>
        <pt x="80" y="307" on="0"/>
        <pt x="85" y="202" on="0"/>
        <pt x="89" y="108" on="0"/>
        <pt x="91" y="73" on="1"/>
        <pt x="91" y="72" on="0"/>
        <pt x="91" y="61" on="0"/>
        <pt x="90" y="46" on="0"/>
        <pt x="89" y="34" on="0"/>
        <pt x="89" y="31" on="1"/>
        <pt x="89" y="22" on="0"/>
        <pt x="88" y="11" on="0"/>
        <pt x="81" y="3" on="0"/>
        <pt x="64" y="-2" on="0"/>
        <pt x="50" y="-4" on="1"/>
        <pt x="49" y="9" on="0"/>
        <pt x="45" y="88" on="0"/>
        <pt x="40" y="196" on="0"/>
        <pt x="36" y="322" on="0"/>
        <pt x="33" y="442" on="0"/>
        <pt x="31" y="548" on="0"/>
      </contour>
      <contour>
        <pt x="302" y="288" on="1"/>
        <pt x="273" y="337" on="0"/>
        <pt x="211" y="374" on="0"/>
        <pt x="154" y="372" on="0"/>
        <pt x="106" y="340" on="0"/>
        <pt x="91" y="322" on="1"/>
        <pt x="91" y="364" on="1"/>
        <pt x="360" y="730" on="1"/>
        <pt x="398" y="730" on="1"/>
        <pt x="187" y="422" on="1"/>
        <pt x="204" y="418" on="0"/>
        <pt x="252" y="393" on="0"/>
        <pt x="298" y="361" on="0"/>
        <pt x="335" y="324" on="0"/>
        <pt x="341" y="307" on="1"/>
        <pt x="437" y="14" on="1"/>
        <pt x="431" y="14" on="0"/>
        <pt x="420" y="10" on="0"/>
        <pt x="409" y="7" on="0"/>
        <pt x="400" y="9" on="0"/>
        <pt x="398" y="14" on="1"/>
      </contour>
    </TTGlyph>
    <TTGlyph name="Kcommaaccent" xMin="32" yMin="-174" xMax="437" yMax="730">
      <component glyphName="K" x="0" y="0" flags="0x1204"/>
      <component glyphName="commaaccent" x="166" y="0" flags="0x1004"/>
    </TTGlyph>
    <TTGlyph name="L" xMin="24" yMin="-1" xMax="466" yMax="672">
      <contour>
        <pt x="62" y="672" on="1"/>
        <pt x="100" y="38" on="1"/>
        <pt x="189" y="38" on="0"/>
        <pt x="368" y="61" on="0"/>
        <pt x="462" y="71" on="1"/>
        <pt x="466" y="38" on="1"/>
        <pt x="465" y="38" on="0"/>
        <pt x="430" y="33" on="0"/>
        <pt x="373" y="26" on="0"/>
        <pt x="301" y="18" on="0"/>
        <pt x="229" y="10" on="0"/>
        <pt x="163" y="2" on="0"/>
        <pt x="139" y="0" on="1"/>
        <pt x="138" y="0" on="0"/>
        <pt x="130" y="-1" on="0"/>
        <pt x="120" y="-1" on="0"/>
        <pt x="110" y="-1" on="0"/>
        <pt x="107" y="-1" on="1"/>
        <pt x="85" y="-1" on="0"/>
        <pt x="57" y="46" on="0"/>
        <pt x="39" y="127" on="0"/>
        <pt x="31" y="232" on="0"/>
        <pt x="27" y="346" on="0"/>
        <pt x="28" y="462" on="0"/>
        <pt x="28" y="565" on="0"/>
        <pt x="27" y="649" on="0"/>
        <pt x="24" y="672" on="1"/>
      </contour>
    </TTGlyph>
    <TTGlyph name="Lacute" xMin="24" yMin="-1" xMax="466" yMax="849">
      <component glyphName="L" x="0" y="0" flags="0x1204"/>
      <component glyphName="acute" x="125" y="200" flags="0x1004"/>
    </TTGlyph>
    <TTGlyph name="Lcaron" xMin="24" yMin="-1" xMax="466" yMax="829">
      <component glyphName="L" x="0" y="0" flags="0x1200"/>
      <component glyphName="caron" x="50" y="150" flags="0x1000"/>
    </TTGlyph>
    <TTGlyph name="Lcommaaccent" xMin="24" yMin="-174" xMax="466" yMax="672">
      <component glyphName="L" x="0" y="0" flags="0x1204"/>
      <component glyphName="commaaccent" x="172" y="0" flags="0x1004"/>
    </TTGlyph>
    <TTGlyph name="Ldot" xMin="24" yMin="-1" xMax="466" yMax="672">
      <component glyphName="L" x="0" y="0" flags="0x1204"/>
      <component glyphName="periodcentered" x="169" y="0" flags="0x1004"/>
    </TTGlyph>
    <TTGlyph name="Lslash" xMin="6" yMin="-1" xMax="529" yMax="672">
      <contour>
        <pt x="25" y="267" on="1"/>
        <pt x="26" y="268" on="0"/>
        <pt x="48" y="271" on="1"/>
        <pt x="66" y="274" on="0"/>
        <pt x="92" y="277" on="1"/>
        <pt x="92" y="283" on="0"/>
        <pt x="91" y="289" on="1"/>
        <pt x="90" y="346" on="0"/>
        <pt x="91" y="462" on="0"/>
        <pt x="91" y="565" on="0"/>
        <pt x="90" y="649" on="0"/>
        <pt x="87" y="672" on="1"/>
        <pt x="125" y="672" on="1"/>
        <pt x="148" y="283" on="1"/>
        <pt x="166" y="285" on="0"/>
        <pt x="184" y="286" on="1"/>
        <pt x="229" y="291" on="0"/>
        <pt x="274" y="295" on="1"/>
        <pt x="278" y="295" on="0"/>
        <pt x="301" y="296" on="0"/>
        <pt x="327" y="297" on="0"/>
        <pt x="350" y="298" on="0"/>
        <pt x="355" y="298" on="1"/>
        <pt x="355" y="285" on="0"/>
        <pt x="344" y="262" on="0"/>
        <pt x="331" y="256" on="1"/>
        <pt x="307" y="254" on="0"/>
        <pt x="236" y="247" on="0"/>
        <pt x="198" y="242" on="1"/>
        <pt x="174" y="240" on="0"/>
        <pt x="151" y="237" on="1"/>
        <pt x="163" y="38" on="1"/>
        <pt x="252" y="38" on="0"/>
        <pt x="431" y="61" on="0"/>
        <pt x="525" y="71" on="1"/>
        <pt x="529" y="38" on="1"/>
        <pt x="528" y="38" on="0"/>
        <pt x="493" y="33" on="0"/>
        <pt x="436" y="26" on="0"/>
        <pt x="364" y="18" on="0"/>
        <pt x="292" y="10" on="0"/>
        <pt x="226" y="2" on="0"/>
        <pt x="202" y="0" on="1"/>
        <pt x="201" y="0" on="0"/>
        <pt x="193" y="-1" on="0"/>
        <pt x="187" y="-1" on="1"/>
        <pt x="170" y="-1" on="1"/>
        <pt x="148" y="-1" on="0"/>
        <pt x="120" y="46" on="0"/>
        <pt x="102" y="127" on="0"/>
        <pt x="97" y="179" on="1"/>
        <pt x="96" y="205" on="0"/>
        <pt x="94" y="231" on="1"/>
        <pt x="77" y="229" on="0"/>
        <pt x="64" y="229" on="1"/>
        <pt x="62" y="229" on="0"/>
        <pt x="46" y="228" on="0"/>
        <pt x="43" y="228" on="1"/>
        <pt x="30" y="228" on="0"/>
        <pt x="12" y="232" on="0"/>
        <pt x="6" y="248" on="1"/>
      </contour>
    </TTGlyph>
    <TTGlyph name="M" xMin="35" yMin="5" xMax="460" yMax="661">
      <contour>
        <pt x="230" y="268" on="1"/>
        <pt x="192" y="268" on="1"/>
        <pt x="96" y="460" on="1"/>
        <pt x="96" y="19" on="1"/>
        <pt x="52" y="13" on="1"/>
        <pt x="50" y="48" on="0"/>
        <pt x="47" y="154" on="0"/>
        <pt x="44" y="277" on="0"/>
        <pt x="42" y="407" on="0"/>
        <pt x="40" y="527" on="0"/>
        <pt x="37" y="627" on="0"/>
        <pt x="35" y="658" on="1"/>
        <pt x="42" y="658" on="0"/>
        <pt x="55" y="660" on="0"/>
        <pt x="65" y="661" on="0"/>
        <pt x="73" y="657" on="0"/>
        <pt x="76" y="650" on="1"/>
        <pt x="211" y="346" on="1"/>
        <pt x="326" y="634" on="1"/>
        <pt x="328" y="639" on="0"/>
        <pt x="339" y="646" on="0"/>
        <pt x="352" y="652" on="0"/>
        <pt x="366" y="655" on="0"/>
        <pt x="371" y="655" on="1"/>
        <pt x="372" y="655" on="0"/>
        <pt x="372" y="649" on="0"/>
        <pt x="376" y="613" on="0"/>
        <pt x="385" y="536" on="0"/>
        <pt x="405" y="395" on="0"/>
        <pt x="436" y="178" on="0"/>
        <pt x="460" y="19" on="1"/>
        <pt x="456" y="10" on="0"/>
        <pt x="443" y="4" on="0"/>
        <pt x="432" y="6" on="0"/>
        <pt x="423" y="13" on="0"/>
        <pt x="422" y="19" on="1"/>
        <pt x="346" y="556" on="1"/>
      </contour>
    </TTGlyph>
    <TTGlyph name="N" xMin="13" yMin="0" xMax="514" yMax="716">
      <contour>
        <pt x="72" y="595" on="1"/>
        <pt x="72" y="592" on="0"/>
        <pt x="71" y="572" on="0"/>
        <pt x="71" y="551" on="0"/>
        <pt x="71" y="532" on="0"/>
        <pt x="71" y="529" on="1"/>
        <pt x="71" y="464" on="0"/>
        <pt x="77" y="334" on="0"/>
        <pt x="85" y="203" on="0"/>
        <pt x="91" y="71" on="0"/>
        <pt x="91" y="5" on="1"/>
        <pt x="55" y="7" on="1"/>
        <pt x="54" y="26" on="0"/>
        <pt x="49" y="94" on="0"/>
        <pt x="42" y="183" on="0"/>
        <pt x="34" y="285" on="0"/>
        <pt x="25" y="390" on="0"/>
        <pt x="19" y="492" on="0"/>
        <pt x="14" y="579" on="0"/>
        <pt x="12" y="646" on="0"/>
        <pt x="13" y="664" on="1"/>
        <pt x="13" y="676" on="0"/>
        <pt x="31" y="692" on="0"/>
        <pt x="43" y="692" on="1"/>
        <pt x="55" y="692" on="0"/>
        <pt x="86" y="681" on="0"/>
        <pt x="91" y="672" on="1"/>
        <pt x="451" y="91" on="1"/>
        <pt x="451" y="137" on="0"/>
        <pt x="446" y="243" on="0"/>
        <pt x="442" y="355" on="0"/>
        <pt x="441" y="468" on="0"/>
        <pt x="446" y="575" on="0"/>
        <pt x="461" y="671" on="0"/>
        <pt x="475" y="710" on="1"/>
        <pt x="489" y="715" on="0"/>
        <pt x="505" y="716" on="0"/>
        <pt x="513" y="714" on="0"/>
        <pt x="514" y="706" on="0"/>
        <pt x="514" y="702" on="1"/>
        <pt x="514" y="700" on="0"/>
        <pt x="514" y="692" on="0"/>
        <pt x="514" y="691" on="1"/>
        <pt x="512" y="685" on="0"/>
        <pt x="507" y="653" on="0"/>
        <pt x="499" y="590" on="0"/>
        <pt x="493" y="490" on="0"/>
        <pt x="487" y="342" on="0"/>
        <pt x="484" y="138" on="0"/>
        <pt x="485" y="2" on="1"/>
        <pt x="456" y="0" on="1"/>
      </contour>
    </TTGlyph>
    <TTGlyph name="Nacute" xMin="13" yMin="0" xMax="514" yMax="893">
      <component glyphName="N" x="0" y="0" flags="0x1204"/>
      <component glyphName="acute" x="175" y="244" flags="0x1004"/>
    </TTGlyph>
    <TTGlyph name="Ncaron" xMin="13" yMin="0" xMax="514" yMax="833">
      <component glyphName="N" x="0" y="0" flags="0x1204"/>
      <component glyphName="caron" x="118" y="154" flags="0x1004"/>
    </TTGlyph>
    <TTGlyph name="Ncommaaccent" xMin="13" yMin="-174" xMax="514" yMax="716">
      <component glyphName="N" x="0" y="0" flags="0x1204"/>
      <component glyphName="commaaccent" x="194" y="0" flags="0x1004"/>
    </TTGlyph>
    <TTGlyph name="Ntilde" xMin="13" yMin="0" xMax="514" yMax="825">
      <component glyphName="N" x="0" y="0" flags="0x1204"/>
      <component glyphName="tilde" x="103" y="229" flags="0x1004"/>
    </TTGlyph>
    <TTGlyph name="O" xMin="18" yMin="-1" xMax="409" yMax="653">
      <contour>
        <pt x="18" y="332" on="1"/>
        <pt x="18" y="365" on="0"/>
        <pt x="27" y="439" on="0"/>
        <pt x="48" y="510" on="0"/>
        <pt x="81" y="575" on="0"/>
        <pt x="128" y="624" on="0"/>
        <pt x="191" y="653" on="0"/>
        <pt x="231" y="653" on="1"/>
        <pt x="266" y="653" on="0"/>
        <pt x="320" y="614" on="0"/>
        <pt x="360" y="551" on="0"/>
        <pt x="386" y="471" on="0"/>
        <pt x="403" y="390" on="0"/>
        <pt x="409" y="315" on="0"/>
        <pt x="409" y="288" on="1"/>
        <pt x="405" y="229" on="0"/>
        <pt x="379" y="130" on="0"/>
        <pt x="334" y="55" on="0"/>
        <pt x="268" y="7" on="0"/>
        <pt x="221" y="-1" on="1"/>
        <pt x="176" y="-1" on="0"/>
        <pt x="112" y="31" on="0"/>
        <pt x="66" y="83" on="0"/>
        <pt x="38" y="151" on="0"/>
        <pt x="23" y="225" on="0"/>
        <pt x="18" y="300" on="0"/>
      </contour>
      <contour>
        <pt x="56" y="332" on="1"/>
        <pt x="56" y="308" on="0"/>
        <pt x="58" y="248" on="0"/>
        <pt x="67" y="187" on="0"/>
        <pt x="85" y="128" on="0"/>
        <pt x="116" y="83" on="0"/>
        <pt x="163" y="55" on="0"/>
        <pt x="196" y="55" on="1"/>
        <pt x="244" y="52" on="0"/>
        <pt x="306" y="82" on="0"/>
        <pt x="344" y="144" on="0"/>
        <pt x="364" y="232" on="0"/>
        <pt x="370" y="288" on="1"/>
        <pt x="370" y="310" on="0"/>
        <pt x="366" y="376" on="0"/>
        <pt x="355" y="448" on="0"/>
        <pt x="336" y="521" on="0"/>
        <pt x="305" y="580" on="0"/>
        <pt x="262" y="616" on="0"/>
        <pt x="232" y="616" on="1"/>
        <pt x="201" y="616" on="0"/>
        <pt x="151" y="587" on="0"/>
        <pt x="112" y="540" on="0"/>
        <pt x="83" y="480" on="0"/>
        <pt x="65" y="417" on="0"/>
        <pt x="56" y="356" on="0"/>
      </contour>
    </TTGlyph>
    <TTGlyph name="OE" xMin="18" yMin="-1" xMax="801" yMax="655">
      <contour>
        <pt x="18" y="332" on="1"/>
        <pt x="18" y="365" on="0"/>
        <pt x="27" y="439" on="0"/>
        <pt x="48" y="510" on="0"/>
        <pt x="81" y="575" on="0"/>
        <pt x="128" y="624" on="0"/>
        <pt x="191" y="653" on="0"/>
        <pt x="231" y="653" on="1"/>
        <pt x="266" y="653" on="0"/>
        <pt x="320" y="614" on="0"/>
        <pt x="340" y="583" on="1"/>
        <pt x="343" y="578" on="0"/>
        <pt x="345" y="574" on="1"/>
        <pt x="357" y="586" on="0"/>
        <pt x="372" y="596" on="1"/>
        <pt x="399" y="613" on="0"/>
        <pt x="464" y="634" on="0"/>
        <pt x="538" y="646" on="0"/>
        <pt x="611" y="653" on="0"/>
        <pt x="679" y="655" on="0"/>
        <pt x="705" y="655" on="1"/>
        <pt x="707" y="655" on="0"/>
        <pt x="721" y="654" on="0"/>
        <pt x="736" y="653" on="0"/>
        <pt x="750" y="652" on="0"/>
        <pt x="753" y="652" on="1"/>
        <pt x="757" y="631" on="0"/>
        <pt x="739" y="614" on="0"/>
        <pt x="712" y="611" on="0"/>
        <pt x="683" y="616" on="0"/>
        <pt x="676" y="614" on="1"/>
        <pt x="666" y="613" on="0"/>
        <pt x="623" y="604" on="0"/>
        <pt x="571" y="592" on="0"/>
        <pt x="512" y="580" on="0"/>
        <pt x="459" y="568" on="0"/>
        <pt x="417" y="559" on="0"/>
        <pt x="407" y="556" on="1"/>
        <pt x="391" y="551" on="0"/>
        <pt x="387" y="532" on="0"/>
        <pt x="387" y="520" on="1"/>
        <pt x="387" y="500" on="0"/>
        <pt x="389" y="474" on="1"/>
        <pt x="394" y="433" on="1"/>
        <pt x="394" y="431" on="0"/>
        <pt x="394" y="430" on="1"/>
        <pt x="403" y="390" on="0"/>
        <pt x="406" y="352" on="1"/>
        <pt x="406" y="350" on="0"/>
        <pt x="406" y="349" on="1"/>
        <pt x="407" y="345" on="1"/>
        <pt x="411" y="344" on="0"/>
        <pt x="421" y="344" on="1"/>
        <pt x="436" y="344" on="1"/>
        <pt x="460" y="344" on="0"/>
        <pt x="504" y="352" on="0"/>
        <pt x="548" y="361" on="0"/>
        <pt x="594" y="369" on="0"/>
        <pt x="618" y="369" on="1"/>
        <pt x="618" y="332" on="1"/>
        <pt x="608" y="332" on="0"/>
        <pt x="571" y="328" on="0"/>
        <pt x="529" y="321" on="0"/>
        <pt x="484" y="312" on="0"/>
        <pt x="448" y="302" on="0"/>
        <pt x="426" y="292" on="0"/>
        <pt x="426" y="287" on="1"/>
        <pt x="426" y="79" on="1"/>
        <pt x="473" y="79" on="0"/>
        <pt x="566" y="85" on="0"/>
        <pt x="660" y="92" on="0"/>
        <pt x="754" y="98" on="0"/>
        <pt x="801" y="98" on="1"/>
        <pt x="801" y="85" on="0"/>
        <pt x="785" y="70" on="0"/>
        <pt x="763" y="62" on="0"/>
        <pt x="740" y="58" on="0"/>
        <pt x="733" y="57" on="1"/>
        <pt x="730" y="56" on="0"/>
        <pt x="688" y="52" on="0"/>
        <pt x="625" y="44" on="0"/>
        <pt x="550" y="36" on="0"/>
        <pt x="475" y="28" on="0"/>
        <pt x="409" y="21" on="0"/>
        <pt x="388" y="19" on="1"/>
        <pt x="385" y="18" on="0"/>
        <pt x="379" y="18" on="1"/>
        <pt x="379" y="75" on="0"/>
        <pt x="377" y="133" on="1"/>
        <pt x="368" y="111" on="0"/>
        <pt x="357" y="92" on="1"/>
        <pt x="334" y="55" on="0"/>
        <pt x="268" y="7" on="0"/>
        <pt x="221" y="-1" on="1"/>
        <pt x="176" y="-1" on="0"/>
        <pt x="112" y="31" on="0"/>
        <pt x="66" y="83" on="0"/>
        <pt x="38" y="151" on="0"/>
        <pt x="23" y="225" on="0"/>
        <pt x="18" y="300" on="0"/>
      </contour>
      <contour>
        <pt x="56" y="332" on="1"/>
        <pt x="56" y="308" on="0"/>
        <pt x="58" y="248" on="0"/>
        <pt x="67" y="187" on="0"/>
        <pt x="85" y="128" on="0"/>
        <pt x="116" y="83" on="0"/>
        <pt x="163" y="55" on="0"/>
        <pt x="196" y="55" on="1"/>
        <pt x="244" y="52" on="0"/>
        <pt x="306" y="82" on="0"/>
        <pt x="344" y="144" on="0"/>
        <pt x="364" y="232" on="0"/>
        <pt x="370" y="288" on="1"/>
        <pt x="370" y="295" on="1"/>
        <pt x="363" y="394" on="0"/>
        <pt x="344" y="490" on="1"/>
        <pt x="334" y="523" on="0"/>
        <pt x="320" y="550" on="1"/>
        <pt x="305" y="580" on="0"/>
        <pt x="262" y="616" on="0"/>
        <pt x="232" y="616" on="1"/>
        <pt x="201" y="616" on="0"/>
        <pt x="151" y="587" on="0"/>
        <pt x="112" y="540" on="0"/>
        <pt x="83" y="480" on="0"/>
        <pt x="65" y="417" on="0"/>
        <pt x="56" y="356" on="0"/>
      </contour>
    </TTGlyph>
    <TTGlyph name="Oacute" xMin="18" yMin="-1" xMax="409" yMax="821">
      <component glyphName="O" x="0" y="0" flags="0x1204"/>
      <component glyphName="acute" x="127" y="172" flags="0x1004"/>
    </TTGlyph>
    <TTGlyph name="Obreve" xMin="18" yMin="-1" xMax="409" yMax="830">
      <component glyphName="O" x="0" y="0" flags="0x1204"/>
      <component glyphName="breve" x="110" y="377" flags="0x1004"/>
    </TTGlyph>
    <TTGlyph name="Ocircumflex" xMin="18" yMin="-1" xMax="409" yMax="910">
      <component glyphName="O" x="0" y="0" flags="0x1204"/>
      <component glyphName="circumflex" x="76" y="154" flags="0x1004"/>
    </TTGlyph>
    <TTGlyph name="Odieresis" xMin="18" yMin="-1" xMax="409" yMax="768">
      <component glyphName="O" x="0" y="0" flags="0x1204"/>
      <component glyphName="dieresis" x="55" y="183" flags="0x1004"/>
    </TTGlyph>
    <TTGlyph name="Ograve" xMin="18" yMin="-1" xMax="409" yMax="847">
      <component glyphName="O" x="0" y="0" flags="0x1204"/>
      <component glyphName="grave" x="77" y="193" flags="0x1004"/>
    </TTGlyph>
    <TTGlyph name="Ohungarumlaut" xMin="18" yMin="-1" xMax="409" yMax="938">
      <component glyphName="O" x="0" y="0" flags="0x1204"/>
      <component glyphName="hungarumlaut" x="98" y="272" flags="0x1004"/>
    </TTGlyph>
    <TTGlyph name="Omacron" xMin="18" yMin="-1" xMax="409" yMax="789">
      <component glyphName="O" x="0" y="0" flags="0x1204"/>
      <component glyphName="macron" x="3" y="272" flags="0x1004"/>
    </TTGlyph>
    <TTGlyph name="Oslash" xMin="18" yMin="-23" xMax="409" yMax="670">
      <contour>
        <pt x="295" y="642" on="1"/>
        <pt x="298" y="649" on="0"/>
        <pt x="306" y="667" on="0"/>
        <pt x="319" y="673" on="0"/>
        <pt x="337" y="663" on="0"/>
        <pt x="349" y="642" on="1"/>
        <pt x="333" y="593" on="1"/>
        <pt x="337" y="588" on="0"/>
        <pt x="340" y="583" on="1"/>
        <pt x="360" y="551" on="0"/>
        <pt x="386" y="471" on="0"/>
        <pt x="403" y="390" on="0"/>
        <pt x="409" y="315" on="0"/>
        <pt x="409" y="288" on="1"/>
        <pt x="405" y="229" on="0"/>
        <pt x="379" y="130" on="0"/>
        <pt x="334" y="55" on="0"/>
        <pt x="268" y="7" on="0"/>
        <pt x="221" y="-1" on="1"/>
        <pt x="176" y="-1" on="0"/>
        <pt x="144" y="15" on="1"/>
        <pt x="136" y="19" on="1"/>
        <pt x="122" y="-23" on="1"/>
        <pt x="79" y="14" on="1"/>
        <pt x="92" y="52" on="1"/>
        <pt x="88" y="57" on="1"/>
        <pt x="66" y="83" on="0"/>
        <pt x="38" y="151" on="0"/>
        <pt x="23" y="225" on="0"/>
        <pt x="18" y="300" on="0"/>
        <pt x="18" y="332" on="1"/>
        <pt x="18" y="365" on="0"/>
        <pt x="27" y="439" on="0"/>
        <pt x="48" y="510" on="0"/>
        <pt x="81" y="575" on="0"/>
        <pt x="128" y="624" on="0"/>
        <pt x="191" y="653" on="0"/>
        <pt x="231" y="653" on="1"/>
        <pt x="265" y="653" on="0"/>
        <pt x="292" y="634" on="1"/>
      </contour>
      <contour>
        <pt x="56" y="332" on="1"/>
        <pt x="56" y="308" on="0"/>
        <pt x="58" y="248" on="0"/>
        <pt x="67" y="187" on="0"/>
        <pt x="85" y="128" on="0"/>
        <pt x="100" y="106" on="1"/>
        <pt x="103" y="100" on="0"/>
        <pt x="107" y="96" on="1"/>
        <pt x="280" y="599" on="1"/>
        <pt x="260" y="616" on="0"/>
        <pt x="232" y="616" on="1"/>
        <pt x="201" y="616" on="0"/>
        <pt x="151" y="587" on="0"/>
        <pt x="112" y="540" on="0"/>
        <pt x="83" y="480" on="0"/>
        <pt x="65" y="417" on="0"/>
        <pt x="56" y="356" on="0"/>
      </contour>
      <contour>
        <pt x="196" y="55" on="1"/>
        <pt x="244" y="52" on="0"/>
        <pt x="306" y="82" on="0"/>
        <pt x="344" y="144" on="0"/>
        <pt x="364" y="232" on="0"/>
        <pt x="370" y="288" on="1"/>
        <pt x="370" y="310" on="0"/>
        <pt x="366" y="376" on="0"/>
        <pt x="355" y="448" on="0"/>
        <pt x="336" y="521" on="0"/>
        <pt x="320" y="550" on="1"/>
        <pt x="319" y="553" on="1"/>
        <pt x="151" y="63" on="1"/>
        <pt x="171" y="55" on="0"/>
      </contour>
    </TTGlyph>
    <TTGlyph name="Oslashacute" xMin="18" yMin="-11" xMax="409" yMax="921">
      <contour>
        <pt x="18" y="332" on="1"/>
        <pt x="18" y="365" on="0"/>
        <pt x="27" y="439" on="0"/>
        <pt x="48" y="510" on="0"/>
        <pt x="81" y="575" on="0"/>
        <pt x="128" y="624" on="0"/>
        <pt x="191" y="653" on="0"/>
        <pt x="231" y="653" on="1"/>
        <pt x="266" y="653" on="0"/>
        <pt x="293" y="634" on="1"/>
        <pt x="307" y="623" on="0"/>
        <pt x="320" y="609" on="1"/>
        <pt x="322" y="612" on="1"/>
        <pt x="325" y="620" on="0"/>
        <pt x="336" y="626" on="0"/>
        <pt x="352" y="616" on="0"/>
        <pt x="363" y="597" on="1"/>
        <pt x="352" y="562" on="1"/>
        <pt x="364" y="538" on="0"/>
        <pt x="373" y="511" on="1"/>
        <pt x="386" y="471" on="0"/>
        <pt x="403" y="390" on="0"/>
        <pt x="409" y="315" on="0"/>
        <pt x="409" y="288" on="1"/>
        <pt x="405" y="229" on="0"/>
        <pt x="379" y="130" on="0"/>
        <pt x="334" y="55" on="0"/>
        <pt x="268" y="7" on="0"/>
        <pt x="221" y="-1" on="1"/>
        <pt x="191" y="-1" on="0"/>
        <pt x="167" y="6" on="1"/>
        <pt x="162" y="-11" on="1"/>
        <pt x="124" y="23" on="1"/>
        <pt x="125" y="25" on="1"/>
        <pt x="105" y="38" on="0"/>
        <pt x="88" y="57" on="1"/>
        <pt x="66" y="83" on="0"/>
        <pt x="38" y="151" on="0"/>
        <pt x="23" y="225" on="0"/>
        <pt x="18" y="300" on="0"/>
      </contour>
      <contour>
        <pt x="56" y="332" on="1"/>
        <pt x="56" y="308" on="0"/>
        <pt x="58" y="248" on="0"/>
        <pt x="67" y="187" on="0"/>
        <pt x="85" y="128" on="0"/>
        <pt x="116" y="83" on="0"/>
        <pt x="139" y="69" on="1"/>
        <pt x="307" y="571" on="1"/>
        <pt x="296" y="586" on="0"/>
        <pt x="283" y="598" on="1"/>
        <pt x="262" y="616" on="0"/>
        <pt x="232" y="616" on="1"/>
        <pt x="201" y="616" on="0"/>
        <pt x="151" y="587" on="0"/>
        <pt x="112" y="540" on="0"/>
        <pt x="83" y="480" on="0"/>
        <pt x="65" y="417" on="0"/>
        <pt x="56" y="356" on="0"/>
      </contour>
      <contour>
        <pt x="196" y="55" on="1"/>
        <pt x="244" y="52" on="0"/>
        <pt x="306" y="82" on="0"/>
        <pt x="344" y="144" on="0"/>
        <pt x="364" y="232" on="0"/>
        <pt x="370" y="288" on="1"/>
        <pt x="370" y="310" on="0"/>
        <pt x="366" y="376" on="0"/>
        <pt x="355" y="448" on="0"/>
        <pt x="346" y="484" on="1"/>
        <pt x="341" y="501" on="0"/>
        <pt x="336" y="515" on="1"/>
        <pt x="184" y="55" on="1"/>
      </contour>
      <contour>
        <pt x="281" y="891" on="1"/>
        <pt x="268" y="874" on="0"/>
        <pt x="242" y="846" on="0"/>
        <pt x="217" y="819" on="0"/>
        <pt x="193" y="790" on="0"/>
        <pt x="179" y="774" on="1"/>
        <pt x="150" y="789" on="1"/>
        <pt x="185" y="835" on="0"/>
        <pt x="223" y="890" on="0"/>
        <pt x="242" y="918" on="0"/>
        <pt x="248" y="923" on="0"/>
        <pt x="253" y="915" on="0"/>
        <pt x="265" y="898" on="0"/>
      </contour>
    </TTGlyph>
    <TTGlyph name="Otilde" xMin="18" yMin="-1" xMax="409" yMax="807">
      <component glyphName="O" x="0" y="0" flags="0x1204"/>
      <component glyphName="tilde" x="64" y="211" flags="0x1004"/>
    </TTGlyph>
    <TTGlyph name="P" xMin="19" yMin="0" xMax="384" yMax="673">
      <contour>
        <pt x="19" y="550" on="1"/>
        <pt x="19" y="582" on="0"/>
        <pt x="68" y="629" on="0"/>
        <pt x="138" y="658" on="0"/>
        <pt x="214" y="673" on="0"/>
        <pt x="241" y="673" on="1"/>
        <pt x="268" y="673" on="0"/>
        <pt x="323" y="655" on="0"/>
        <pt x="365" y="622" on="0"/>
        <pt x="388" y="571" on="0"/>
        <pt x="384" y="538" on="1"/>
        <pt x="379" y="487" on="0"/>
        <pt x="322" y="409" on="0"/>
        <pt x="239" y="356" on="0"/>
        <pt x="142" y="329" on="0"/>
        <pt x="97" y="329" on="1"/>
        <pt x="97" y="292" on="0"/>
        <pt x="103" y="219" on="0"/>
        <pt x="110" y="145" on="0"/>
        <pt x="116" y="72" on="0"/>
        <pt x="116" y="35" on="1"/>
        <pt x="116" y="24" on="0"/>
        <pt x="112" y="5" on="0"/>
        <pt x="96" y="0" on="1"/>
        <pt x="76" y="19" on="1"/>
        <pt x="76" y="20" on="0"/>
        <pt x="70" y="74" on="0"/>
        <pt x="59" y="160" on="0"/>
        <pt x="46" y="269" on="0"/>
        <pt x="34" y="379" on="0"/>
        <pt x="23" y="481" on="0"/>
        <pt x="19" y="518" on="1"/>
        <pt x="19" y="519" on="0"/>
        <pt x="19" y="527" on="0"/>
        <pt x="19" y="537" on="0"/>
        <pt x="19" y="547" on="0"/>
      </contour>
      <contour>
        <pt x="75" y="514" on="1"/>
        <pt x="75" y="493" on="0"/>
        <pt x="76" y="457" on="0"/>
        <pt x="81" y="423" on="0"/>
        <pt x="89" y="387" on="0"/>
        <pt x="96" y="364" on="1"/>
        <pt x="127" y="369" on="0"/>
        <pt x="213" y="397" on="0"/>
        <pt x="292" y="445" on="0"/>
        <pt x="346" y="508" on="0"/>
        <pt x="346" y="547" on="1"/>
        <pt x="346" y="568" on="0"/>
        <pt x="326" y="601" on="0"/>
        <pt x="295" y="623" on="0"/>
        <pt x="257" y="635" on="0"/>
        <pt x="239" y="635" on="1"/>
        <pt x="210" y="635" on="0"/>
        <pt x="151" y="621" on="0"/>
        <pt x="104" y="591" on="0"/>
        <pt x="75" y="545" on="0"/>
      </contour>
    </TTGlyph>
    <TTGlyph name="Q" xMin="25" yMin="-95" xMax="526" yMax="654">
      <contour>
        <pt x="391" y="1" on="1"/>
        <pt x="346" y="-3" on="0"/>
        <pt x="257" y="-2" on="0"/>
        <pt x="175" y="13" on="0"/>
        <pt x="106" y="46" on="0"/>
        <pt x="54" y="100" on="0"/>
        <pt x="25" y="181" on="0"/>
        <pt x="25" y="238" on="1"/>
        <pt x="25" y="273" on="0"/>
        <pt x="42" y="361" on="0"/>
        <pt x="75" y="454" on="0"/>
        <pt x="123" y="543" on="0"/>
        <pt x="186" y="612" on="0"/>
        <pt x="261" y="654" on="0"/>
        <pt x="305" y="654" on="1"/>
        <pt x="335" y="654" on="0"/>
        <pt x="392" y="608" on="0"/>
        <pt x="441" y="537" on="0"/>
        <pt x="481" y="451" on="0"/>
        <pt x="510" y="367" on="0"/>
        <pt x="526" y="299" on="0"/>
        <pt x="526" y="282" on="1"/>
        <pt x="526" y="245" on="0"/>
        <pt x="515" y="181" on="0"/>
        <pt x="491" y="122" on="0"/>
        <pt x="454" y="67" on="0"/>
        <pt x="429" y="39" on="1"/>
        <pt x="433" y="33" on="0"/>
        <pt x="450" y="0" on="0"/>
        <pt x="468" y="-37" on="0"/>
        <pt x="484" y="-69" on="0"/>
        <pt x="487" y="-76" on="1"/>
        <pt x="488" y="-78" on="0"/>
        <pt x="490" y="-93" on="0"/>
        <pt x="490" y="-95" on="1"/>
        <pt x="448" y="-95" on="1"/>
      </contour>
      <contour>
        <pt x="64" y="238" on="1"/>
        <pt x="64" y="193" on="0"/>
        <pt x="95" y="118" on="0"/>
        <pt x="150" y="66" on="0"/>
        <pt x="224" y="37" on="0"/>
        <pt x="267" y="37" on="1"/>
        <pt x="274" y="37" on="0"/>
        <pt x="302" y="37" on="0"/>
        <pt x="331" y="41" on="0"/>
        <pt x="354" y="54" on="0"/>
        <pt x="354" y="67" on="1"/>
        <pt x="354" y="96" on="0"/>
        <pt x="325" y="142" on="0"/>
        <pt x="290" y="185" on="0"/>
        <pt x="261" y="226" on="0"/>
        <pt x="261" y="250" on="1"/>
        <pt x="295" y="250" on="1"/>
        <pt x="410" y="97" on="1"/>
        <pt x="431" y="112" on="0"/>
        <pt x="460" y="155" on="0"/>
        <pt x="479" y="204" on="0"/>
        <pt x="487" y="256" on="0"/>
        <pt x="487" y="280" on="1"/>
        <pt x="487" y="322" on="0"/>
        <pt x="466" y="403" on="0"/>
        <pt x="432" y="475" on="0"/>
        <pt x="391" y="536" on="0"/>
        <pt x="352" y="583" on="0"/>
        <pt x="321" y="611" on="0"/>
        <pt x="314" y="615" on="1"/>
        <pt x="253" y="600" on="0"/>
        <pt x="160" y="523" on="0"/>
        <pt x="96" y="420" on="0"/>
        <pt x="64" y="298" on="0"/>
      </contour>
    </TTGlyph>
    <TTGlyph name="R" xMin="-17" yMin="-2" xMax="463" yMax="674">
      <contour>
        <pt x="425" y="-2" on="1"/>
        <pt x="421" y="16" on="0"/>
        <pt x="409" y="75" on="0"/>
        <pt x="390" y="144" on="0"/>
        <pt x="363" y="214" on="0"/>
        <pt x="325" y="271" on="0"/>
        <pt x="276" y="307" on="0"/>
        <pt x="243" y="307" on="1"/>
        <pt x="230" y="307" on="0"/>
        <pt x="188" y="303" on="0"/>
        <pt x="148" y="294" on="0"/>
        <pt x="118" y="278" on="0"/>
        <pt x="118" y="267" on="1"/>
        <pt x="118" y="13" on="1"/>
        <pt x="114" y="13" on="0"/>
        <pt x="98" y="17" on="0"/>
        <pt x="82" y="24" on="0"/>
        <pt x="70" y="32" on="0"/>
        <pt x="70" y="37" on="1"/>
        <pt x="70" y="536" on="1"/>
        <pt x="58" y="534" on="0"/>
        <pt x="40" y="517" on="0"/>
        <pt x="29" y="493" on="0"/>
        <pt x="23" y="469" on="0"/>
        <pt x="22" y="459" on="1"/>
        <pt x="18" y="459" on="0"/>
        <pt x="4" y="468" on="0"/>
        <pt x="-8" y="480" on="0"/>
        <pt x="-17" y="493" on="0"/>
        <pt x="-17" y="498" on="1"/>
        <pt x="-17" y="523" on="0"/>
        <pt x="13" y="570" on="0"/>
        <pt x="61" y="609" on="0"/>
        <pt x="120" y="640" on="0"/>
        <pt x="180" y="662" on="0"/>
        <pt x="234" y="674" on="0"/>
        <pt x="253" y="674" on="1"/>
        <pt x="281" y="674" on="0"/>
        <pt x="331" y="670" on="0"/>
        <pt x="368" y="651" on="0"/>
        <pt x="390" y="611" on="0"/>
        <pt x="390" y="577" on="1"/>
        <pt x="390" y="546" on="0"/>
        <pt x="368" y="487" on="0"/>
        <pt x="334" y="433" on="0"/>
        <pt x="292" y="384" on="0"/>
        <pt x="271" y="363" on="1"/>
        <pt x="318" y="334" on="0"/>
        <pt x="376" y="275" on="0"/>
        <pt x="412" y="216" on="0"/>
        <pt x="431" y="157" on="0"/>
        <pt x="442" y="95" on="0"/>
        <pt x="453" y="31" on="0"/>
        <pt x="463" y="-2" on="1"/>
      </contour>
      <contour>
        <pt x="257" y="634" on="1"/>
        <pt x="250" y="634" on="0"/>
        <pt x="225" y="633" on="0"/>
        <pt x="193" y="629" on="0"/>
        <pt x="162" y="621" on="0"/>
        <pt x="135" y="607" on="0"/>
        <pt x="118" y="588" on="0"/>
        <pt x="118" y="574" on="1"/>
        <pt x="118" y="320" on="1"/>
        <pt x="142" y="320" on="0"/>
        <pt x="194" y="344" on="0"/>
        <pt x="245" y="385" on="0"/>
        <pt x="293" y="436" on="0"/>
        <pt x="329" y="490" on="0"/>
        <pt x="351" y="544" on="0"/>
        <pt x="351" y="565" on="1"/>
        <pt x="351" y="588" on="0"/>
        <pt x="336" y="615" on="0"/>
        <pt x="310" y="630" on="0"/>
        <pt x="276" y="634" on="0"/>
      </contour>
    </TTGlyph>
    <TTGlyph name="Racute" xMin="-17" yMin="-2" xMax="463" yMax="839">
      <component glyphName="R" x="0" y="0" flags="0x1204"/>
      <component glyphName="acute" x="105" y="190" flags="0x1004"/>
    </TTGlyph>
    <TTGlyph name="Rcaron" xMin="-17" yMin="-2" xMax="463" yMax="833">
      <component glyphName="R" x="0" y="0" flags="0x1204"/>
      <component glyphName="caron" x="111" y="154" flags="0x1004"/>
    </TTGlyph>
    <TTGlyph name="Rcommaaccent" xMin="-17" yMin="-174" xMax="463" yMax="674">
      <component glyphName="R" x="0" y="0" flags="0x1204"/>
      <component glyphName="commaaccent" x="187" y="0" flags="0x1004"/>
    </TTGlyph>
    <TTGlyph name="S" xMin="13" yMin="0" xMax="458" yMax="616">
      <contour>
        <pt x="53" y="76" on="1"/>
        <pt x="58" y="88" on="0"/>
        <pt x="79" y="94" on="0"/>
        <pt x="91" y="76" on="1"/>
        <pt x="91" y="74" on="0"/>
        <pt x="110" y="67" on="0"/>
        <pt x="139" y="58" on="0"/>
        <pt x="178" y="49" on="0"/>
        <pt x="216" y="42" on="0"/>
        <pt x="252" y="37" on="0"/>
        <pt x="265" y="37" on="1"/>
        <pt x="299" y="37" on="0"/>
        <pt x="356" y="66" on="0"/>
        <pt x="397" y="112" on="0"/>
        <pt x="419" y="171" on="0"/>
        <pt x="419" y="202" on="1"/>
        <pt x="419" y="211" on="0"/>
        <pt x="413" y="256" on="0"/>
        <pt x="399" y="301" on="0"/>
        <pt x="376" y="337" on="0"/>
        <pt x="360" y="337" on="1"/>
        <pt x="256" y="325" on="0"/>
        <pt x="123" y="330" on="0"/>
        <pt x="45" y="356" on="0"/>
        <pt x="14" y="401" on="0"/>
        <pt x="13" y="430" on="1"/>
        <pt x="13" y="466" on="0"/>
        <pt x="49" y="533" on="0"/>
        <pt x="105" y="585" on="0"/>
        <pt x="174" y="616" on="0"/>
        <pt x="208" y="616" on="1"/>
        <pt x="236" y="616" on="0"/>
        <pt x="297" y="602" on="0"/>
        <pt x="349" y="573" on="0"/>
        <pt x="382" y="526" on="0"/>
        <pt x="382" y="493" on="1"/>
        <pt x="358" y="493" on="0"/>
        <pt x="318" y="520" on="0"/>
        <pt x="278" y="550" on="0"/>
        <pt x="234" y="577" on="0"/>
        <pt x="205" y="577" on="1"/>
        <pt x="181" y="577" on="0"/>
        <pt x="132" y="553" on="0"/>
        <pt x="93" y="515" on="0"/>
        <pt x="68" y="468" on="0"/>
        <pt x="68" y="443" on="1"/>
        <pt x="68" y="433" on="0"/>
        <pt x="69" y="410" on="0"/>
        <pt x="77" y="389" on="0"/>
        <pt x="94" y="375" on="0"/>
        <pt x="110" y="375" on="1"/>
        <pt x="379" y="375" on="1"/>
        <pt x="396" y="375" on="0"/>
        <pt x="421" y="354" on="0"/>
        <pt x="438" y="322" on="0"/>
        <pt x="449" y="282" on="0"/>
        <pt x="456" y="244" on="0"/>
        <pt x="458" y="211" on="0"/>
        <pt x="458" y="202" on="1"/>
        <pt x="458" y="163" on="0"/>
        <pt x="436" y="94" on="0"/>
        <pt x="392" y="39" on="0"/>
        <pt x="326" y="4" on="0"/>
        <pt x="283" y="0" on="1"/>
        <pt x="262" y="-2" on="0"/>
        <pt x="195" y="4" on="0"/>
        <pt x="127" y="21" on="0"/>
        <pt x="67" y="52" on="0"/>
      </contour>
    </TTGlyph>
    <TTGlyph name="Sacute" xMin="13" yMin="0" xMax="458" yMax="803">
      <component glyphName="S" x="0" y="0" flags="0x1204"/>
      <component glyphName="acute" x="154" y="154" flags="0x1004"/>
    </TTGlyph>
    <TTGlyph name="Scaron" xMin="13" yMin="0" xMax="458" yMax="833">
      <component glyphName="S" x="0" y="0" flags="0x1204"/>
      <component glyphName="caron" x="97" y="154" flags="0x1004"/>
    </TTGlyph>
    <TTGlyph name="Scedilla" xMin="13" yMin="-221" xMax="458" yMax="616">
      <contour>
        <pt x="179" y="-158" on="1"/>
        <pt x="191" y="-158" on="0"/>
        <pt x="212" y="-168" on="0"/>
        <pt x="233" y="-182" on="0"/>
        <pt x="254" y="-192" on="0"/>
        <pt x="266" y="-192" on="1"/>
        <pt x="280" y="-194" on="0"/>
        <pt x="314" y="-179" on="0"/>
        <pt x="341" y="-154" on="0"/>
        <pt x="353" y="-125" on="0"/>
        <pt x="336" y="-105" on="0"/>
        <pt x="282" y="-97" on="0"/>
        <pt x="229" y="-104" on="1"/>
        <pt x="220" y="-104" on="0"/>
        <pt x="200" y="-92" on="0"/>
        <pt x="185" y="-71" on="0"/>
        <pt x="176" y="-48" on="0"/>
        <pt x="176" y="-38" on="1"/>
        <pt x="171" y="-10" on="0"/>
        <pt x="178" y="8" on="1"/>
        <pt x="169" y="10" on="0"/>
        <pt x="160" y="12" on="1"/>
        <pt x="127" y="21" on="0"/>
        <pt x="67" y="52" on="0"/>
        <pt x="53" y="76" on="1"/>
        <pt x="58" y="88" on="0"/>
        <pt x="79" y="94" on="0"/>
        <pt x="91" y="76" on="1"/>
        <pt x="91" y="74" on="0"/>
        <pt x="110" y="67" on="0"/>
        <pt x="139" y="58" on="0"/>
        <pt x="178" y="49" on="0"/>
        <pt x="216" y="42" on="0"/>
        <pt x="252" y="37" on="0"/>
        <pt x="265" y="37" on="1"/>
        <pt x="299" y="37" on="0"/>
        <pt x="356" y="66" on="0"/>
        <pt x="397" y="112" on="0"/>
        <pt x="419" y="171" on="0"/>
        <pt x="419" y="202" on="1"/>
        <pt x="419" y="211" on="0"/>
        <pt x="413" y="256" on="0"/>
        <pt x="399" y="301" on="0"/>
        <pt x="376" y="337" on="0"/>
        <pt x="360" y="337" on="1"/>
        <pt x="256" y="325" on="0"/>
        <pt x="123" y="330" on="0"/>
        <pt x="45" y="356" on="0"/>
        <pt x="14" y="401" on="0"/>
        <pt x="13" y="430" on="1"/>
        <pt x="13" y="466" on="0"/>
        <pt x="49" y="533" on="0"/>
        <pt x="105" y="585" on="0"/>
        <pt x="174" y="616" on="0"/>
        <pt x="208" y="616" on="1"/>
        <pt x="236" y="616" on="0"/>
        <pt x="297" y="602" on="0"/>
        <pt x="349" y="573" on="0"/>
        <pt x="382" y="526" on="0"/>
        <pt x="382" y="493" on="1"/>
        <pt x="358" y="493" on="0"/>
        <pt x="318" y="520" on="0"/>
        <pt x="278" y="550" on="0"/>
        <pt x="234" y="577" on="0"/>
        <pt x="205" y="577" on="1"/>
        <pt x="181" y="577" on="0"/>
        <pt x="132" y="553" on="0"/>
        <pt x="93" y="515" on="0"/>
        <pt x="68" y="468" on="0"/>
        <pt x="68" y="443" on="1"/>
        <pt x="68" y="433" on="0"/>
        <pt x="69" y="410" on="0"/>
        <pt x="77" y="389" on="0"/>
        <pt x="94" y="375" on="0"/>
        <pt x="110" y="375" on="1"/>
        <pt x="379" y="375" on="1"/>
        <pt x="396" y="375" on="0"/>
        <pt x="421" y="354" on="0"/>
        <pt x="438" y="322" on="0"/>
        <pt x="449" y="282" on="0"/>
        <pt x="456" y="244" on="0"/>
        <pt x="458" y="211" on="0"/>
        <pt x="458" y="202" on="1"/>
        <pt x="458" y="163" on="0"/>
        <pt x="436" y="94" on="0"/>
        <pt x="392" y="39" on="0"/>
        <pt x="326" y="4" on="0"/>
        <pt x="283" y="0" on="1"/>
        <pt x="262" y="-2" on="0"/>
        <pt x="228" y="1" on="1"/>
        <pt x="213" y="2" on="1"/>
        <pt x="212" y="-14" on="0"/>
        <pt x="203" y="-44" on="1"/>
        <pt x="203" y="-59" on="0"/>
        <pt x="228" y="-66" on="0"/>
        <pt x="265" y="-64" on="0"/>
        <pt x="309" y="-61" on="0"/>
        <pt x="346" y="-72" on="0"/>
        <pt x="371" y="-105" on="0"/>
        <pt x="371" y="-140" on="1"/>
        <pt x="371" y="-162" on="0"/>
        <pt x="351" y="-195" on="0"/>
        <pt x="319" y="-216" on="0"/>
        <pt x="280" y="-224" on="0"/>
        <pt x="261" y="-221" on="1"/>
        <pt x="253" y="-221" on="0"/>
        <pt x="225" y="-212" on="0"/>
        <pt x="199" y="-197" on="0"/>
        <pt x="179" y="-173" on="0"/>
      </contour>
    </TTGlyph>
    <TTGlyph name="Scircumflex" xMin="13" yMin="0" xMax="458" yMax="887">
      <component glyphName="S" x="0" y="0" flags="0x1204"/>
      <component glyphName="circumflex" x="94" y="131" flags="0x1004"/>
    </TTGlyph>
    <TTGlyph name="Scommaaccent" xMin="13" yMin="-174" xMax="458" yMax="616">
      <component glyphName="S" x="0" y="0" flags="0x1204"/>
      <component glyphName="commaaccent" x="187" y="0" flags="0x1004"/>
    </TTGlyph>
    <TTGlyph name="T" xMin="3" yMin="-4" xMax="412" yMax="625">
      <contour>
        <pt x="3" y="543" on="1"/>
        <pt x="19" y="595" on="1"/>
        <pt x="20" y="596" on="0"/>
        <pt x="49" y="599" on="0"/>
        <pt x="97" y="604" on="0"/>
        <pt x="157" y="610" on="0"/>
        <pt x="220" y="616" on="0"/>
        <pt x="281" y="622" on="0"/>
        <pt x="307" y="625" on="1"/>
        <pt x="307" y="625" on="0"/>
        <pt x="325" y="625" on="0"/>
        <pt x="347" y="625" on="0"/>
        <pt x="367" y="625" on="0"/>
        <pt x="370" y="625" on="1"/>
        <pt x="394" y="625" on="0"/>
        <pt x="412" y="607" on="0"/>
        <pt x="412" y="577" on="1"/>
        <pt x="230" y="556" on="1"/>
        <pt x="228" y="493" on="0"/>
        <pt x="236" y="355" on="0"/>
        <pt x="248" y="214" on="0"/>
        <pt x="259" y="76" on="0"/>
        <pt x="259" y="13" on="1"/>
        <pt x="259" y="4" on="0"/>
        <pt x="248" y="-3" on="0"/>
        <pt x="233" y="-5" on="0"/>
        <pt x="217" y="-2" on="0"/>
        <pt x="211" y="0" on="1"/>
        <pt x="208" y="13" on="0"/>
        <pt x="202" y="77" on="0"/>
        <pt x="196" y="163" on="0"/>
        <pt x="190" y="263" on="0"/>
        <pt x="184" y="363" on="0"/>
        <pt x="178" y="454" on="0"/>
        <pt x="174" y="523" on="0"/>
        <pt x="171" y="561" on="0"/>
        <pt x="170" y="556" on="1"/>
      </contour>
    </TTGlyph>
    <TTGlyph name="Tcaron" xMin="3" yMin="-4" xMax="412" yMax="833">
      <component glyphName="T" x="0" y="0" flags="0x1204"/>
      <component glyphName="caron" x="43" y="154" flags="0x1004"/>
    </TTGlyph>
    <TTGlyph name="Tcommaaccent" xMin="3" yMin="-192" xMax="412" yMax="625">
      <component glyphName="T" x="0" y="0" flags="0x1204"/>
      <component glyphName="commaaccent" x="168" y="-18" flags="0x1004"/>
    </TTGlyph>
    <TTGlyph name="Thorn" xMin="19" yMin="-6" xMax="330" yMax="564">
      <contour>
        <pt x="58" y="564" on="1"/>
        <pt x="57" y="532" on="0"/>
        <pt x="58" y="499" on="0"/>
        <pt x="58" y="481" on="0"/>
        <pt x="58" y="472" on="0"/>
        <pt x="58" y="459" on="0"/>
        <pt x="56" y="432" on="0"/>
        <pt x="55" y="406" on="1"/>
        <pt x="71" y="419" on="0"/>
        <pt x="98" y="441" on="0"/>
        <pt x="124" y="457" on="0"/>
        <pt x="151" y="465" on="0"/>
        <pt x="169" y="465" on="1"/>
        <pt x="205" y="465" on="0"/>
        <pt x="265" y="429" on="0"/>
        <pt x="307" y="373" on="0"/>
        <pt x="330" y="304" on="0"/>
        <pt x="330" y="271" on="1"/>
        <pt x="328" y="214" on="0"/>
        <pt x="286" y="147" on="0"/>
        <pt x="217" y="112" on="0"/>
        <pt x="125" y="105" on="0"/>
        <pt x="73" y="109" on="1"/>
        <pt x="73" y="156" on="1"/>
        <pt x="91" y="140" on="0"/>
        <pt x="122" y="135" on="0"/>
        <pt x="142" y="135" on="1"/>
        <pt x="175" y="135" on="0"/>
        <pt x="229" y="155" on="0"/>
        <pt x="268" y="193" on="0"/>
        <pt x="289" y="244" on="0"/>
        <pt x="289" y="275" on="1"/>
        <pt x="289" y="302" on="0"/>
        <pt x="283" y="344" on="0"/>
        <pt x="262" y="379" on="0"/>
        <pt x="223" y="409" on="0"/>
        <pt x="189" y="424" on="1"/>
        <pt x="187" y="425" on="0"/>
        <pt x="172" y="427" on="0"/>
        <pt x="169" y="427" on="1"/>
        <pt x="153" y="427" on="0"/>
        <pt x="122" y="408" on="0"/>
        <pt x="96" y="379" on="0"/>
        <pt x="77" y="344" on="0"/>
        <pt x="73" y="328" on="1"/>
        <pt x="72" y="321" on="0"/>
        <pt x="69" y="269" on="0"/>
        <pt x="67" y="200" on="0"/>
        <pt x="64" y="122" on="0"/>
        <pt x="62" y="53" on="0"/>
        <pt x="60" y="2" on="0"/>
        <pt x="59" y="-6" on="1"/>
        <pt x="28" y="0" on="1"/>
        <pt x="19" y="564" on="1"/>
      </contour>
    </TTGlyph>
    <TTGlyph name="U" xMin="22" yMin="16" xMax="497" yMax="665">
      <contour>
        <pt x="398" y="250" on="1"/>
        <pt x="358" y="149" on="0"/>
        <pt x="280" y="39" on="0"/>
        <pt x="206" y="2" on="0"/>
        <pt x="140" y="30" on="0"/>
        <pt x="85" y="105" on="0"/>
        <pt x="46" y="219" on="0"/>
        <pt x="23" y="355" on="0"/>
        <pt x="22" y="504" on="0"/>
        <pt x="34" y="576" on="1"/>
        <pt x="73" y="572" on="1"/>
        <pt x="62" y="444" on="0"/>
        <pt x="79" y="255" on="0"/>
        <pt x="117" y="129" on="0"/>
        <pt x="167" y="63" on="0"/>
        <pt x="190" y="58" on="1"/>
        <pt x="224" y="58" on="0"/>
        <pt x="277" y="94" on="0"/>
        <pt x="318" y="152" on="0"/>
        <pt x="347" y="226" on="0"/>
        <pt x="365" y="302" on="0"/>
        <pt x="373" y="373" on="0"/>
        <pt x="373" y="399" on="1"/>
        <pt x="373" y="433" on="0"/>
        <pt x="369" y="486" on="0"/>
        <pt x="360" y="538" on="0"/>
        <pt x="349" y="593" on="0"/>
        <pt x="342" y="629" on="1"/>
        <pt x="391" y="665" on="1"/>
        <pt x="414" y="520" on="0"/>
        <pt x="447" y="313" on="0"/>
        <pt x="471" y="174" on="0"/>
        <pt x="485" y="91" on="0"/>
        <pt x="494" y="44" on="0"/>
        <pt x="497" y="25" on="0"/>
        <pt x="497" y="19" on="1"/>
        <pt x="456" y="19" on="1"/>
      </contour>
    </TTGlyph>
    <TTGlyph name="Uacute" xMin="22" yMin="16" xMax="497" yMax="803">
      <component glyphName="U" x="0" y="0" flags="0x1204"/>
      <component glyphName="acute" x="167" y="154" flags="0x1004"/>
    </TTGlyph>
    <TTGlyph name="Ubreve" xMin="22" yMin="16" xMax="497" yMax="755">
      <component glyphName="U" x="0" y="0" flags="0x1204"/>
      <component glyphName="breve" x="64" y="302" flags="0x1004"/>
    </TTGlyph>
    <TTGlyph name="Ucircumflex" xMin="22" yMin="16" xMax="497" yMax="899">
      <component glyphName="U" x="0" y="0" flags="0x1204"/>
      <component glyphName="circumflex" x="39" y="143" flags="0x1004"/>
    </TTGlyph>
    <TTGlyph name="Udieresis" xMin="22" yMin="16" xMax="497" yMax="739">
      <component glyphName="U" x="0" y="0" flags="0x1204"/>
      <component glyphName="dieresis" x="23" y="154" flags="0x1004"/>
    </TTGlyph>
    <TTGlyph name="Ugrave" xMin="22" yMin="16" xMax="497" yMax="837">
      <component glyphName="U" x="0" y="0" flags="0x1204"/>
      <component glyphName="grave" x="69" y="183" flags="0x1004"/>
    </TTGlyph>
    <TTGlyph name="Uhungarumlaut" xMin="22" yMin="16" xMax="497" yMax="938">
      <component glyphName="U" x="0" y="0" flags="0x1204"/>
      <component glyphName="hungarumlaut" x="136" y="272" flags="0x1004"/>
    </TTGlyph>
    <TTGlyph name="Umacron" xMin="22" yMin="16" xMax="497" yMax="789">
      <component glyphName="U" x="0" y="0" flags="0x1204"/>
      <component glyphName="macron" x="41" y="272" flags="0x1004"/>
    </TTGlyph>
    <TTGlyph name="Uogonek" xMin="22" yMin="-131" xMax="518" yMax="665">
      <contour>
        <pt x="518" y="-104" on="1"/>
        <pt x="513" y="-105" on="0"/>
        <pt x="478" y="-116" on="0"/>
        <pt x="433" y="-128" on="0"/>
        <pt x="382" y="-133" on="0"/>
        <pt x="340" y="-122" on="0"/>
        <pt x="313" y="-90" on="0"/>
        <pt x="313" y="-58" on="1"/>
        <pt x="313" y="-26" on="0"/>
        <pt x="337" y="18" on="0"/>
        <pt x="377" y="48" on="0"/>
        <pt x="403" y="57" on="1"/>
        <pt x="423" y="63" on="0"/>
        <pt x="444" y="67" on="1"/>
        <pt x="398" y="250" on="1"/>
        <pt x="358" y="149" on="0"/>
        <pt x="280" y="39" on="0"/>
        <pt x="206" y="2" on="0"/>
        <pt x="140" y="30" on="0"/>
        <pt x="85" y="105" on="0"/>
        <pt x="46" y="219" on="0"/>
        <pt x="23" y="355" on="0"/>
        <pt x="22" y="504" on="0"/>
        <pt x="34" y="576" on="1"/>
        <pt x="73" y="572" on="1"/>
        <pt x="62" y="444" on="0"/>
        <pt x="79" y="255" on="0"/>
        <pt x="117" y="129" on="0"/>
        <pt x="167" y="63" on="0"/>
        <pt x="190" y="58" on="1"/>
        <pt x="224" y="58" on="0"/>
        <pt x="277" y="94" on="0"/>
        <pt x="318" y="152" on="0"/>
        <pt x="347" y="226" on="0"/>
        <pt x="365" y="302" on="0"/>
        <pt x="373" y="373" on="0"/>
        <pt x="373" y="399" on="1"/>
        <pt x="373" y="433" on="0"/>
        <pt x="369" y="486" on="0"/>
        <pt x="360" y="538" on="0"/>
        <pt x="349" y="593" on="0"/>
        <pt x="342" y="629" on="1"/>
        <pt x="391" y="665" on="1"/>
        <pt x="414" y="520" on="0"/>
        <pt x="447" y="313" on="0"/>
        <pt x="471" y="174" on="0"/>
        <pt x="485" y="91" on="0"/>
        <pt x="494" y="44" on="0"/>
        <pt x="497" y="25" on="0"/>
        <pt x="497" y="19" on="1"/>
        <pt x="456" y="19" on="1"/>
        <pt x="454" y="27" on="1"/>
        <pt x="444" y="26" on="0"/>
        <pt x="434" y="25" on="1"/>
        <pt x="412" y="21" on="0"/>
        <pt x="376" y="0" on="0"/>
        <pt x="353" y="-36" on="0"/>
        <pt x="353" y="-65" on="1"/>
        <pt x="353" y="-86" on="0"/>
        <pt x="381" y="-99" on="0"/>
        <pt x="426" y="-92" on="0"/>
        <pt x="484" y="-71" on="0"/>
        <pt x="515" y="-60" on="1"/>
      </contour>
    </TTGlyph>
    <TTGlyph name="Uring" xMin="22" yMin="16" xMax="497" yMax="781">
      <component glyphName="U" x="0" y="0" flags="0x1204"/>
      <component glyphName="ring" x="120" y="300" flags="0x1004"/>
    </TTGlyph>
    <TTGlyph name="Utilde" xMin="22" yMin="16" xMax="497" yMax="868">
      <component glyphName="U" x="0" y="0" flags="0x1204"/>
      <component glyphName="tilde" x="100" y="272" flags="0x1004"/>
    </TTGlyph>
    <TTGlyph name="V" xMin="14" yMin="-6" xMax="507" yMax="710">
      <contour>
        <pt x="14" y="652" on="1"/>
        <pt x="44" y="682" on="1"/>
        <pt x="365" y="115" on="1"/>
        <pt x="475" y="710" on="1"/>
        <pt x="507" y="710" on="1"/>
        <pt x="398" y="19" on="1"/>
        <pt x="374" y="-6" on="1"/>
      </contour>
    </TTGlyph>
    <TTGlyph name="W" xMin="14" yMin="0" xMax="592" yMax="733">
      <contour>
        <pt x="293" y="360" on="1"/>
        <pt x="290" y="349" on="0"/>
        <pt x="277" y="301" on="0"/>
        <pt x="260" y="241" on="0"/>
        <pt x="241" y="175" on="0"/>
        <pt x="223" y="115" on="0"/>
        <pt x="209" y="68" on="0"/>
        <pt x="206" y="58" on="1"/>
        <pt x="204" y="48" on="0"/>
        <pt x="196" y="25" on="0"/>
        <pt x="186" y="13" on="0"/>
        <pt x="174" y="19" on="0"/>
        <pt x="168" y="38" on="1"/>
        <pt x="14" y="730" on="1"/>
        <pt x="17" y="730" on="0"/>
        <pt x="31" y="733" on="0"/>
        <pt x="34" y="733" on="1"/>
        <pt x="54" y="733" on="0"/>
        <pt x="67" y="716" on="0"/>
        <pt x="72" y="691" on="1"/>
        <pt x="187" y="172" on="1"/>
        <pt x="264" y="422" on="1"/>
        <pt x="268" y="434" on="0"/>
        <pt x="283" y="442" on="0"/>
        <pt x="293" y="442" on="1"/>
        <pt x="301" y="434" on="0"/>
        <pt x="331" y="391" on="0"/>
        <pt x="366" y="334" on="0"/>
        <pt x="404" y="269" on="0"/>
        <pt x="439" y="211" on="0"/>
        <pt x="467" y="164" on="0"/>
        <pt x="475" y="154" on="1"/>
        <pt x="478" y="149" on="0"/>
        <pt x="493" y="132" on="0"/>
        <pt x="511" y="114" on="0"/>
        <pt x="529" y="98" on="0"/>
        <pt x="533" y="96" on="1"/>
        <pt x="532" y="129" on="0"/>
        <pt x="528" y="220" on="0"/>
        <pt x="524" y="326" on="0"/>
        <pt x="523" y="441" on="0"/>
        <pt x="528" y="554" on="0"/>
        <pt x="540" y="659" on="0"/>
        <pt x="550" y="703" on="1"/>
        <pt x="552" y="710" on="0"/>
        <pt x="559" y="717" on="0"/>
        <pt x="568" y="719" on="0"/>
        <pt x="583" y="718" on="0"/>
        <pt x="592" y="718" on="1"/>
        <pt x="592" y="707" on="0"/>
        <pt x="590" y="676" on="0"/>
        <pt x="586" y="619" on="0"/>
        <pt x="582" y="523" on="0"/>
        <pt x="577" y="371" on="0"/>
        <pt x="573" y="152" on="0"/>
        <pt x="571" y="0" on="1"/>
        <pt x="528" y="34" on="0"/>
        <pt x="454" y="118" on="0"/>
        <pt x="388" y="213" on="0"/>
        <pt x="325" y="312" on="0"/>
      </contour>
    </TTGlyph>
    <TTGlyph name="Wacute" xMin="14" yMin="0" xMax="592" yMax="921">
      <component glyphName="W" x="0" y="0" flags="0x1204"/>
      <component glyphName="acute" x="215" y="272" flags="0x1004"/>
    </TTGlyph>
    <TTGlyph name="Wcircumflex" xMin="14" yMin="0" xMax="592" yMax="1028">
      <component glyphName="W" x="0" y="0" flags="0x1204"/>
      <component glyphName="circumflex" x="163" y="272" flags="0x1004"/>
    </TTGlyph>
    <TTGlyph name="Wdieresis" xMin="14" yMin="0" xMax="592" yMax="857">
      <component glyphName="W" x="0" y="0" flags="0x1204"/>
      <component glyphName="dieresis" x="139" y="272" flags="0x1004"/>
    </TTGlyph>
    <TTGlyph name="Wgrave" xMin="14" yMin="0" xMax="592" yMax="926">
      <component glyphName="W" x="0" y="0" flags="0x1204"/>
      <component glyphName="grave" x="164" y="272" flags="0x1004"/>
    </TTGlyph>
    <TTGlyph name="X" xMin="18" yMin="-126" xMax="479" yMax="654">
      <contour>
        <pt x="210" y="345" on="1"/>
        <pt x="18" y="652" on="1"/>
        <pt x="34" y="658" on="0"/>
        <pt x="64" y="648" on="0"/>
        <pt x="75" y="633" on="1"/>
        <pt x="81" y="625" on="0"/>
        <pt x="105" y="589" on="0"/>
        <pt x="136" y="544" on="0"/>
        <pt x="169" y="493" on="0"/>
        <pt x="199" y="448" on="0"/>
        <pt x="223" y="412" on="0"/>
        <pt x="229" y="403" on="1"/>
        <pt x="344" y="652" on="1"/>
        <pt x="372" y="659" on="0"/>
        <pt x="393" y="649" on="0"/>
        <pt x="390" y="622" on="0"/>
        <pt x="368" y="581" on="0"/>
        <pt x="337" y="530" on="0"/>
        <pt x="304" y="475" on="0"/>
        <pt x="277" y="418" on="0"/>
        <pt x="263" y="367" on="0"/>
        <pt x="267" y="345" on="1"/>
        <pt x="286" y="311" on="0"/>
        <pt x="343" y="235" on="0"/>
        <pt x="403" y="156" on="0"/>
        <pt x="459" y="76" on="0"/>
        <pt x="478" y="37" on="1"/>
        <pt x="479" y="36" on="0"/>
        <pt x="479" y="31" on="0"/>
        <pt x="472" y="25" on="0"/>
        <pt x="456" y="19" on="0"/>
        <pt x="440" y="19" on="1"/>
        <pt x="238" y="300" on="1"/>
        <pt x="104" y="-126" on="1"/>
        <pt x="75" y="-97" on="1"/>
      </contour>
    </TTGlyph>
    <TTGlyph name="Y" xMin="4" yMin="-10" xMax="446" yMax="788">
      <contour>
        <pt x="292" y="326" on="1"/>
        <pt x="277" y="348" on="0"/>
        <pt x="226" y="412" on="0"/>
        <pt x="168" y="487" on="0"/>
        <pt x="106" y="567" on="0"/>
        <pt x="53" y="642" on="0"/>
        <pt x="13" y="707" on="0"/>
        <pt x="4" y="730" on="1"/>
        <pt x="24" y="748" on="1"/>
        <pt x="61" y="708" on="0"/>
        <pt x="116" y="641" on="0"/>
        <pt x="160" y="582" on="0"/>
        <pt x="196" y="528" on="0"/>
        <pt x="235" y="473" on="0"/>
        <pt x="281" y="416" on="0"/>
        <pt x="312" y="384" on="1"/>
        <pt x="318" y="412" on="0"/>
        <pt x="329" y="481" on="0"/>
        <pt x="341" y="555" on="0"/>
        <pt x="355" y="632" on="0"/>
        <pt x="373" y="703" on="0"/>
        <pt x="394" y="765" on="0"/>
        <pt x="408" y="787" on="1"/>
        <pt x="409" y="788" on="0"/>
        <pt x="416" y="788" on="0"/>
        <pt x="418" y="788" on="1"/>
        <pt x="421" y="788" on="0"/>
        <pt x="432" y="786" on="0"/>
        <pt x="442" y="781" on="0"/>
        <pt x="448" y="773" on="0"/>
        <pt x="446" y="768" on="1"/>
        <pt x="435" y="745" on="0"/>
        <pt x="412" y="667" on="0"/>
        <pt x="391" y="570" on="0"/>
        <pt x="373" y="457" on="0"/>
        <pt x="358" y="341" on="0"/>
        <pt x="346" y="226" on="0"/>
        <pt x="340" y="126" on="0"/>
        <pt x="341" y="44" on="0"/>
        <pt x="345" y="19" on="1"/>
        <pt x="343" y="8" on="0"/>
        <pt x="340" y="-3" on="0"/>
        <pt x="330" y="-9" on="0"/>
        <pt x="310" y="-10" on="0"/>
        <pt x="292" y="-10" on="1"/>
      </contour>
    </TTGlyph>
    <TTGlyph name="Yacute" xMin="4" yMin="-10" xMax="446" yMax="957">
      <component glyphName="Y" x="0" y="0" flags="0x1204"/>
      <component glyphName="acute" x="154" y="308" flags="0x1004"/>
    </TTGlyph>
    <TTGlyph name="Ycircumflex" xMin="4" yMin="-10" xMax="446" yMax="1028">
      <component glyphName="Y" x="0" y="0" flags="0x1204"/>
      <component glyphName="circumflex" x="83" y="272" flags="0x1004"/>
    </TTGlyph>
    <TTGlyph name="Ydieresis" xMin="4" yMin="-10" xMax="446" yMax="867">
      <component glyphName="Y" x="0" y="0" flags="0x1204"/>
      <component glyphName="dieresis" x="53" y="282" flags="0x1004"/>
    </TTGlyph>
    <TTGlyph name="Ygrave" xMin="4" yMin="-10" xMax="446" yMax="926">
      <component glyphName="Y" x="0" y="0" flags="0x1204"/>
      <component glyphName="grave" x="84" y="272" flags="0x1004"/>
    </TTGlyph>
    <TTGlyph name="Z" xMin="14" yMin="-1" xMax="629" yMax="711">
      <contour>
        <pt x="148" y="28" on="1"/>
        <pt x="148" y="29" on="0"/>
        <pt x="148" y="37" on="0"/>
        <pt x="149" y="38" on="1"/>
        <pt x="253" y="358" on="1"/>
        <pt x="94" y="347" on="1"/>
        <pt x="109" y="394" on="1"/>
        <pt x="280" y="418" on="1"/>
        <pt x="418" y="652" on="1"/>
        <pt x="415" y="652" on="0"/>
        <pt x="398" y="652" on="0"/>
        <pt x="380" y="653" on="0"/>
        <pt x="363" y="653" on="0"/>
        <pt x="360" y="653" on="1"/>
        <pt x="321" y="653" on="0"/>
        <pt x="244" y="647" on="0"/>
        <pt x="166" y="639" on="0"/>
        <pt x="89" y="633" on="0"/>
        <pt x="50" y="633" on="1"/>
        <pt x="38" y="633" on="0"/>
        <pt x="20" y="637" on="0"/>
        <pt x="14" y="652" on="1"/>
        <pt x="34" y="672" on="1"/>
        <pt x="34" y="672" on="0"/>
        <pt x="75" y="676" on="0"/>
        <pt x="141" y="683" on="0"/>
        <pt x="225" y="691" on="0"/>
        <pt x="310" y="700" on="0"/>
        <pt x="389" y="707" on="0"/>
        <pt x="418" y="710" on="1"/>
        <pt x="419" y="710" on="0"/>
        <pt x="436" y="711" on="0"/>
        <pt x="439" y="711" on="1"/>
        <pt x="442" y="711" on="0"/>
        <pt x="456" y="711" on="0"/>
        <pt x="470" y="707" on="0"/>
        <pt x="479" y="699" on="0"/>
        <pt x="475" y="691" on="1"/>
        <pt x="352" y="422" on="1"/>
        <pt x="484" y="422" on="1"/>
        <pt x="491" y="406" on="0"/>
        <pt x="481" y="386" on="0"/>
        <pt x="457" y="374" on="0"/>
        <pt x="420" y="369" on="0"/>
        <pt x="380" y="365" on="0"/>
        <pt x="342" y="361" on="0"/>
        <pt x="328" y="358" on="1"/>
        <pt x="309" y="325" on="0"/>
        <pt x="271" y="251" on="0"/>
        <pt x="238" y="175" on="0"/>
        <pt x="213" y="96" on="0"/>
        <pt x="206" y="58" on="1"/>
        <pt x="208" y="58" on="0"/>
        <pt x="220" y="57" on="0"/>
        <pt x="232" y="56" on="0"/>
        <pt x="243" y="56" on="0"/>
        <pt x="245" y="56" on="1"/>
        <pt x="294" y="56" on="0"/>
        <pt x="388" y="72" on="0"/>
        <pt x="483" y="90" on="0"/>
        <pt x="578" y="106" on="0"/>
        <pt x="629" y="106" on="1"/>
        <pt x="629" y="67" on="1"/>
        <pt x="573" y="67" on="0"/>
        <pt x="465" y="46" on="0"/>
        <pt x="358" y="20" on="0"/>
        <pt x="251" y="-1" on="0"/>
        <pt x="196" y="-1" on="1"/>
        <pt x="190" y="-1" on="0"/>
        <pt x="172" y="2" on="0"/>
        <pt x="158" y="9" on="0"/>
        <pt x="148" y="19" on="0"/>
      </contour>
    </TTGlyph>
    <TTGlyph name="Zacute" xMin="14" yMin="-1" xMax="629" yMax="888">
      <component glyphName="Z" x="0" y="0" flags="0x1204"/>
      <component glyphName="acute" x="225" y="239" flags="0x1004"/>
    </TTGlyph>
    <TTGlyph name="Zcaron" xMin="14" yMin="-1" xMax="629" yMax="869">
      <component glyphName="Z" x="0" y="0" flags="0x1204"/>
      <component glyphName="caron" x="167" y="190" flags="0x1004"/>
    </TTGlyph>
    <TTGlyph name="Zdotaccent" xMin="14" yMin="-1" xMax="629" yMax="813">
      <component glyphName="Z" x="0" y="0" flags="0x1204"/>
      <component glyphName="dotaccent" x="182" y="333" flags="0x1004"/>
    </TTGlyph>
    <TTGlyph name="a" xMin="19" yMin="-2" xMax="326" yMax="463">
      <contour>
        <pt x="19" y="86" on="1"/>
        <pt x="19" y="143" on="0"/>
        <pt x="82" y="195" on="0"/>
        <pt x="133" y="195" on="1"/>
        <pt x="153" y="195" on="0"/>
        <pt x="188" y="193" on="0"/>
        <pt x="220" y="185" on="0"/>
        <pt x="251" y="169" on="0"/>
        <pt x="268" y="154" on="1"/>
        <pt x="268" y="157" on="0"/>
        <pt x="269" y="176" on="0"/>
        <pt x="269" y="198" on="0"/>
        <pt x="269" y="217" on="0"/>
        <pt x="269" y="221" on="1"/>
        <pt x="268" y="239" on="0"/>
        <pt x="268" y="296" on="0"/>
        <pt x="259" y="356" on="0"/>
        <pt x="232" y="410" on="0"/>
        <pt x="202" y="424" on="1"/>
        <pt x="181" y="424" on="0"/>
        <pt x="145" y="410" on="0"/>
        <pt x="109" y="394" on="0"/>
        <pt x="73" y="381" on="0"/>
        <pt x="52" y="381" on="1"/>
        <pt x="52" y="406" on="0"/>
        <pt x="83" y="439" on="0"/>
        <pt x="127" y="457" on="0"/>
        <pt x="175" y="463" on="0"/>
        <pt x="193" y="463" on="1"/>
        <pt x="211" y="460" on="0"/>
        <pt x="242" y="452" on="0"/>
        <pt x="269" y="428" on="0"/>
        <pt x="292" y="379" on="0"/>
        <pt x="309" y="291" on="0"/>
        <pt x="322" y="156" on="0"/>
        <pt x="326" y="58" on="1"/>
        <pt x="328" y="45" on="0"/>
        <pt x="307" y="26" on="0"/>
        <pt x="271" y="13" on="0"/>
        <pt x="226" y="4" on="0"/>
        <pt x="180" y="0" on="0"/>
        <pt x="138" y="-2" on="0"/>
        <pt x="124" y="-2" on="1"/>
        <pt x="106" y="-2" on="0"/>
        <pt x="69" y="10" on="0"/>
        <pt x="38" y="33" on="0"/>
        <pt x="19" y="66" on="0"/>
      </contour>
      <contour>
        <pt x="149" y="156" on="1"/>
        <pt x="99" y="142" on="0"/>
        <pt x="59" y="103" on="0"/>
        <pt x="64" y="67" on="0"/>
        <pt x="106" y="38" on="0"/>
        <pt x="166" y="29" on="0"/>
        <pt x="236" y="48" on="0"/>
        <pt x="268" y="76" on="1"/>
        <pt x="256" y="105" on="0"/>
        <pt x="232" y="136" on="0"/>
        <pt x="204" y="152" on="0"/>
        <pt x="170" y="156" on="0"/>
      </contour>
    </TTGlyph>
    <TTGlyph name="aacute" xMin="19" yMin="-2" xMax="326" yMax="649">
      <component glyphName="a" x="0" y="0" flags="0x1204"/>
      <component glyphName="acute" x="82" y="0" flags="0x1004"/>
    </TTGlyph>
    <TTGlyph name="abreve" xMin="19" yMin="-2" xMax="326" yMax="610">
      <component glyphName="a" x="0" y="0" flags="0x1204"/>
      <component glyphName="breve" x="62" y="157" flags="0x1004"/>
    </TTGlyph>
    <TTGlyph name="acircumflex" xMin="19" yMin="-2" xMax="326" yMax="756">
      <component glyphName="a" x="0" y="0" flags="0x1204"/>
      <component glyphName="circumflex" x="28" y="0" flags="0x1004"/>
    </TTGlyph>
    <TTGlyph name="acute" xMin="21" yMin="502" xMax="152" yMax="649">
      <contour>
        <pt x="152" y="619" on="1"/>
        <pt x="139" y="601" on="0"/>
        <pt x="113" y="574" on="0"/>
        <pt x="88" y="547" on="0"/>
        <pt x="64" y="518" on="0"/>
        <pt x="50" y="502" on="1"/>
        <pt x="21" y="517" on="1"/>
        <pt x="56" y="562" on="0"/>
        <pt x="94" y="618" on="0"/>
        <pt x="113" y="646" on="0"/>
        <pt x="119" y="651" on="0"/>
        <pt x="124" y="643" on="0"/>
        <pt x="136" y="626" on="0"/>
      </contour>
    </TTGlyph>
    <TTGlyph name="adieresis" xMin="19" yMin="-2" xMax="326" yMax="585">
      <component glyphName="a" x="0" y="0" flags="0x1204"/>
      <component glyphName="dieresis" x="4" y="0" flags="0x1004"/>
    </TTGlyph>
    <TTGlyph name="ae" xMin="19" yMin="-2" xMax="560" yMax="463">
      <contour>
        <pt x="19" y="86" on="1"/>
        <pt x="19" y="143" on="0"/>
        <pt x="82" y="195" on="0"/>
        <pt x="133" y="195" on="1"/>
        <pt x="153" y="195" on="0"/>
        <pt x="188" y="193" on="0"/>
        <pt x="220" y="185" on="0"/>
        <pt x="251" y="169" on="0"/>
        <pt x="268" y="154" on="1"/>
        <pt x="268" y="157" on="0"/>
        <pt x="269" y="176" on="0"/>
        <pt x="269" y="187" on="1"/>
        <pt x="269" y="221" on="1"/>
        <pt x="268" y="239" on="0"/>
        <pt x="268" y="296" on="0"/>
        <pt x="259" y="356" on="0"/>
        <pt x="232" y="410" on="0"/>
        <pt x="202" y="424" on="1"/>
        <pt x="181" y="424" on="0"/>
        <pt x="145" y="410" on="0"/>
        <pt x="109" y="394" on="0"/>
        <pt x="73" y="381" on="0"/>
        <pt x="52" y="381" on="1"/>
        <pt x="52" y="406" on="0"/>
        <pt x="83" y="439" on="0"/>
        <pt x="127" y="457" on="0"/>
        <pt x="175" y="463" on="0"/>
        <pt x="193" y="463" on="1"/>
        <pt x="211" y="460" on="0"/>
        <pt x="242" y="452" on="0"/>
        <pt x="269" y="428" on="0"/>
        <pt x="292" y="379" on="0"/>
        <pt x="300" y="334" on="1"/>
        <pt x="301" y="329" on="0"/>
        <pt x="302" y="324" on="1"/>
        <pt x="313" y="348" on="0"/>
        <pt x="328" y="370" on="1"/>
        <pt x="351" y="401" on="0"/>
        <pt x="409" y="444" on="0"/>
        <pt x="439" y="444" on="1"/>
        <pt x="456" y="444" on="0"/>
        <pt x="490" y="430" on="0"/>
        <pt x="520" y="407" on="0"/>
        <pt x="545" y="378" on="0"/>
        <pt x="559" y="346" on="0"/>
        <pt x="560" y="316" on="0"/>
        <pt x="551" y="305" on="1"/>
        <pt x="340" y="266" on="1"/>
        <pt x="337" y="265" on="0"/>
        <pt x="331" y="248" on="0"/>
        <pt x="326" y="222" on="0"/>
        <pt x="323" y="191" on="0"/>
        <pt x="322" y="176" on="1"/>
        <pt x="322" y="164" on="0"/>
        <pt x="321" y="154" on="1"/>
        <pt x="322" y="133" on="0"/>
        <pt x="324" y="109" on="1"/>
        <pt x="327" y="97" on="0"/>
        <pt x="334" y="88" on="1"/>
        <pt x="348" y="70" on="0"/>
        <pt x="390" y="52" on="0"/>
        <pt x="443" y="46" on="0"/>
        <pt x="495" y="46" on="0"/>
        <pt x="541" y="50" on="0"/>
        <pt x="556" y="50" on="1"/>
        <pt x="556" y="46" on="0"/>
        <pt x="550" y="36" on="0"/>
        <pt x="542" y="27" on="0"/>
        <pt x="535" y="20" on="0"/>
        <pt x="533" y="19" on="1"/>
        <pt x="526" y="17" on="0"/>
        <pt x="492" y="10" on="0"/>
        <pt x="455" y="4" on="0"/>
        <pt x="423" y="0" on="0"/>
        <pt x="418" y="0" on="1"/>
        <pt x="386" y="-6" on="0"/>
        <pt x="340" y="8" on="0"/>
        <pt x="324" y="25" on="1"/>
        <pt x="320" y="29" on="0"/>
        <pt x="316" y="34" on="1"/>
        <pt x="306" y="25" on="0"/>
        <pt x="289" y="19" on="1"/>
        <pt x="271" y="13" on="0"/>
        <pt x="226" y="4" on="0"/>
        <pt x="180" y="0" on="0"/>
        <pt x="138" y="-2" on="0"/>
        <pt x="124" y="-2" on="1"/>
        <pt x="106" y="-2" on="0"/>
        <pt x="69" y="10" on="0"/>
        <pt x="38" y="33" on="0"/>
        <pt x="19" y="66" on="0"/>
      </contour>
      <contour>
        <pt x="149" y="156" on="1"/>
        <pt x="99" y="142" on="0"/>
        <pt x="59" y="103" on="0"/>
        <pt x="64" y="67" on="0"/>
        <pt x="106" y="38" on="0"/>
        <pt x="166" y="29" on="0"/>
        <pt x="236" y="48" on="0"/>
        <pt x="268" y="76" on="1"/>
        <pt x="256" y="105" on="0"/>
        <pt x="232" y="136" on="0"/>
        <pt x="204" y="152" on="0"/>
        <pt x="170" y="156" on="0"/>
      </contour>
      <contour>
        <pt x="425" y="406" on="1"/>
        <pt x="416" y="406" on="0"/>
        <pt x="388" y="387" on="0"/>
        <pt x="362" y="358" on="0"/>
        <pt x="346" y="325" on="0"/>
        <pt x="348" y="313" on="1"/>
        <pt x="374" y="310" on="0"/>
        <pt x="430" y="318" on="0"/>
        <pt x="476" y="335" on="0"/>
        <pt x="506" y="358" on="0"/>
        <pt x="505" y="382" on="0"/>
        <pt x="469" y="401" on="0"/>
      </contour>
    </TTGlyph>
    <TTGlyph name="aeacute" xMin="19" yMin="-2" xMax="560" yMax="649">
      <component glyphName="ae" x="0" y="0" flags="0x1204"/>
      <component glyphName="acute" x="198" y="0" flags="0x1004"/>
    </TTGlyph>
    <TTGlyph name="agrave" xMin="19" yMin="-2" xMax="326" yMax="654">
      <component glyphName="a" x="0" y="0" flags="0x1204"/>
      <component glyphName="grave" x="30" y="0" flags="0x1004"/>
    </TTGlyph>
    <TTGlyph name="amacron" xMin="7" yMin="-2" xMax="327" yMax="536">
      <component glyphName="a" x="0" y="0" flags="0x1204"/>
      <component glyphName="macron" x="-19" y="119" scalex="0.856872558594" scaley="0.80517578125" flags="0x1004"/>
    </TTGlyph>
    <TTGlyph name="ampersand" xMin="33" yMin="-184" xMax="514" yMax="732">
      <contour>
        <pt x="418" y="117" on="1"/>
        <pt x="379" y="60" on="0"/>
        <pt x="267" y="0" on="0"/>
        <pt x="199" y="0" on="1"/>
        <pt x="163" y="0" on="0"/>
        <pt x="103" y="15" on="0"/>
        <pt x="58" y="49" on="0"/>
        <pt x="33" y="105" on="0"/>
        <pt x="33" y="146" on="1"/>
        <pt x="33" y="171" on="0"/>
        <pt x="51" y="235" on="0"/>
        <pt x="80" y="299" on="0"/>
        <pt x="119" y="353" on="0"/>
        <pt x="141" y="367" on="1"/>
        <pt x="113" y="463" on="0"/>
        <pt x="113" y="596" on="0"/>
        <pt x="147" y="682" on="0"/>
        <pt x="205" y="725" on="0"/>
        <pt x="235" y="732" on="1"/>
        <pt x="261" y="732" on="0"/>
        <pt x="307" y="712" on="0"/>
        <pt x="342" y="676" on="0"/>
        <pt x="361" y="631" on="0"/>
        <pt x="361" y="606" on="1"/>
        <pt x="361" y="568" on="0"/>
        <pt x="332" y="494" on="0"/>
        <pt x="286" y="428" on="0"/>
        <pt x="232" y="370" on="0"/>
        <pt x="206" y="347" on="1"/>
        <pt x="205" y="345" on="0"/>
        <pt x="205" y="330" on="0"/>
        <pt x="205" y="328" on="1"/>
        <pt x="205" y="301" on="0"/>
        <pt x="235" y="235" on="0"/>
        <pt x="281" y="177" on="0"/>
        <pt x="337" y="139" on="0"/>
        <pt x="363" y="139" on="1"/>
        <pt x="363" y="170" on="0"/>
        <pt x="361" y="226" on="0"/>
        <pt x="339" y="267" on="0"/>
        <pt x="291" y="290" on="0"/>
        <pt x="245" y="289" on="1"/>
        <pt x="245" y="309" on="1"/>
        <pt x="245" y="314" on="0"/>
        <pt x="284" y="322" on="0"/>
        <pt x="337" y="326" on="0"/>
        <pt x="388" y="328" on="0"/>
        <pt x="402" y="328" on="1"/>
        <pt x="406" y="328" on="0"/>
        <pt x="424" y="329" on="0"/>
        <pt x="441" y="327" on="0"/>
        <pt x="454" y="319" on="0"/>
        <pt x="456" y="309" on="1"/>
        <pt x="514" y="-152" on="1"/>
        <pt x="482" y="-184" on="1"/>
      </contour>
      <contour>
        <pt x="91" y="78" on="1"/>
        <pt x="112" y="52" on="0"/>
        <pt x="180" y="31" on="0"/>
        <pt x="253" y="39" on="0"/>
        <pt x="321" y="71" on="0"/>
        <pt x="341" y="97" on="1"/>
        <pt x="314" y="109" on="0"/>
        <pt x="254" y="162" on="0"/>
        <pt x="201" y="222" on="0"/>
        <pt x="159" y="277" on="0"/>
        <pt x="149" y="289" on="1"/>
        <pt x="122" y="269" on="0"/>
        <pt x="97" y="221" on="0"/>
        <pt x="88" y="167" on="0"/>
        <pt x="90" y="109" on="0"/>
      </contour>
      <contour>
        <pt x="418" y="232" on="1"/>
        <pt x="418" y="289" on="1"/>
        <pt x="379" y="289" on="1"/>
      </contour>
      <contour>
        <pt x="166" y="519" on="1"/>
        <pt x="166" y="503" on="0"/>
        <pt x="166" y="474" on="0"/>
        <pt x="170" y="447" on="0"/>
        <pt x="178" y="419" on="0"/>
        <pt x="187" y="405" on="1"/>
        <pt x="205" y="419" on="0"/>
        <pt x="253" y="461" on="0"/>
        <pt x="294" y="512" on="0"/>
        <pt x="323" y="568" on="0"/>
        <pt x="323" y="596" on="1"/>
        <pt x="323" y="608" on="0"/>
        <pt x="313" y="642" on="0"/>
        <pt x="294" y="672" on="0"/>
        <pt x="269" y="694" on="0"/>
        <pt x="256" y="694" on="1"/>
        <pt x="223" y="694" on="0"/>
        <pt x="186" y="656" on="0"/>
        <pt x="169" y="602" on="0"/>
        <pt x="166" y="541" on="0"/>
      </contour>
    </TTGlyph>
    <TTGlyph name="aogonek" xMin="13" yMin="-134" xMax="323" yMax="484">
      <contour>
        <pt x="323" y="-107" on="1"/>
        <pt x="318" y="-108" on="0"/>
        <pt x="283" y="-119" on="0"/>
        <pt x="238" y="-131" on="0"/>
        <pt x="187" y="-136" on="0"/>
        <pt x="145" y="-125" on="0"/>
        <pt x="118" y="-93" on="0"/>
        <pt x="118" y="-61" on="1"/>
        <pt x="118" y="-29" on="0"/>
        <pt x="130" y="-7" on="1"/>
        <pt x="138" y="7" on="0"/>
        <pt x="150" y="19" on="1"/>
        <pt x="119" y="19" on="1"/>
        <pt x="101" y="19" on="0"/>
        <pt x="64" y="31" on="0"/>
        <pt x="33" y="54" on="0"/>
        <pt x="13" y="87" on="0"/>
        <pt x="13" y="107" on="1"/>
        <pt x="13" y="164" on="0"/>
        <pt x="76" y="216" on="0"/>
        <pt x="127" y="216" on="1"/>
        <pt x="148" y="216" on="0"/>
        <pt x="183" y="214" on="0"/>
        <pt x="215" y="206" on="0"/>
        <pt x="246" y="190" on="0"/>
        <pt x="263" y="175" on="1"/>
        <pt x="263" y="178" on="0"/>
        <pt x="264" y="197" on="0"/>
        <pt x="264" y="208" on="1"/>
        <pt x="264" y="242" on="1"/>
        <pt x="262" y="260" on="0"/>
        <pt x="263" y="317" on="0"/>
        <pt x="254" y="377" on="0"/>
        <pt x="226" y="431" on="0"/>
        <pt x="196" y="445" on="1"/>
        <pt x="176" y="445" on="0"/>
        <pt x="139" y="431" on="0"/>
        <pt x="103" y="415" on="0"/>
        <pt x="67" y="402" on="0"/>
        <pt x="47" y="402" on="1"/>
        <pt x="47" y="427" on="0"/>
        <pt x="78" y="460" on="0"/>
        <pt x="121" y="478" on="0"/>
        <pt x="170" y="484" on="0"/>
        <pt x="187" y="484" on="1"/>
        <pt x="205" y="481" on="0"/>
        <pt x="237" y="473" on="0"/>
        <pt x="264" y="449" on="0"/>
        <pt x="286" y="400" on="0"/>
        <pt x="304" y="312" on="0"/>
        <pt x="317" y="177" on="0"/>
        <pt x="321" y="79" on="1"/>
        <pt x="322" y="66" on="0"/>
        <pt x="301" y="47" on="0"/>
        <pt x="283" y="40" on="1"/>
        <pt x="280" y="39" on="0"/>
        <pt x="275" y="37" on="1"/>
        <pt x="277" y="35" on="0"/>
        <pt x="278" y="34" on="1"/>
        <pt x="283" y="29" on="0"/>
        <pt x="288" y="26" on="0"/>
        <pt x="286" y="25" on="1"/>
        <pt x="262" y="25" on="0"/>
        <pt x="217" y="18" on="0"/>
        <pt x="181" y="-3" on="0"/>
        <pt x="158" y="-39" on="0"/>
        <pt x="158" y="-68" on="1"/>
        <pt x="158" y="-89" on="0"/>
        <pt x="186" y="-102" on="0"/>
        <pt x="231" y="-95" on="0"/>
        <pt x="289" y="-74" on="0"/>
        <pt x="320" y="-63" on="1"/>
      </contour>
      <contour>
        <pt x="144" y="177" on="1"/>
        <pt x="94" y="163" on="0"/>
        <pt x="54" y="124" on="0"/>
        <pt x="59" y="88" on="0"/>
        <pt x="100" y="59" on="0"/>
        <pt x="160" y="50" on="0"/>
        <pt x="231" y="69" on="0"/>
        <pt x="263" y="97" on="1"/>
        <pt x="250" y="126" on="0"/>
        <pt x="226" y="157" on="0"/>
        <pt x="199" y="173" on="0"/>
        <pt x="165" y="177" on="0"/>
      </contour>
    </TTGlyph>
    <TTGlyph name="aring" xMin="19" yMin="-2" xMax="326" yMax="577">
      <contour>
        <pt x="121" y="512" on="1"/>
        <pt x="121" y="520" on="0"/>
        <pt x="124" y="542" on="0"/>
        <pt x="133" y="562" on="0"/>
        <pt x="148" y="577" on="0"/>
        <pt x="162" y="577" on="1"/>
        <pt x="199" y="577" on="0"/>
        <pt x="235" y="536" on="0"/>
        <pt x="235" y="509" on="1"/>
        <pt x="235" y="501" on="0"/>
        <pt x="229" y="480" on="0"/>
        <pt x="222" y="470" on="1"/>
        <pt x="217" y="464" on="0"/>
        <pt x="211" y="459" on="1"/>
        <pt x="226" y="456" on="1"/>
        <pt x="242" y="452" on="0"/>
        <pt x="269" y="428" on="0"/>
        <pt x="292" y="379" on="0"/>
        <pt x="309" y="291" on="0"/>
        <pt x="322" y="156" on="0"/>
        <pt x="326" y="58" on="1"/>
        <pt x="328" y="45" on="0"/>
        <pt x="307" y="26" on="0"/>
        <pt x="271" y="13" on="0"/>
        <pt x="226" y="4" on="0"/>
        <pt x="180" y="0" on="0"/>
        <pt x="138" y="-2" on="0"/>
        <pt x="124" y="-2" on="1"/>
        <pt x="106" y="-2" on="0"/>
        <pt x="69" y="10" on="0"/>
        <pt x="38" y="33" on="0"/>
        <pt x="19" y="66" on="0"/>
        <pt x="19" y="86" on="1"/>
        <pt x="19" y="143" on="0"/>
        <pt x="82" y="195" on="0"/>
        <pt x="133" y="195" on="1"/>
        <pt x="153" y="195" on="0"/>
        <pt x="188" y="193" on="0"/>
        <pt x="220" y="185" on="0"/>
        <pt x="251" y="169" on="0"/>
        <pt x="268" y="154" on="1"/>
        <pt x="268" y="157" on="0"/>
        <pt x="269" y="176" on="0"/>
        <pt x="269" y="187" on="1"/>
        <pt x="269" y="221" on="1"/>
        <pt x="268" y="239" on="0"/>
        <pt x="268" y="296" on="0"/>
        <pt x="259" y="356" on="0"/>
        <pt x="232" y="410" on="0"/>
        <pt x="202" y="424" on="1"/>
        <pt x="181" y="424" on="0"/>
        <pt x="145" y="410" on="0"/>
        <pt x="109" y="394" on="0"/>
        <pt x="73" y="381" on="0"/>
        <pt x="52" y="381" on="1"/>
        <pt x="52" y="406" on="0"/>
        <pt x="83" y="439" on="0"/>
        <pt x="105" y="448" on="1"/>
        <pt x="124" y="455" on="0"/>
        <pt x="145" y="459" on="1"/>
        <pt x="139" y="463" on="0"/>
        <pt x="134" y="469" on="1"/>
        <pt x="127" y="479" on="0"/>
        <pt x="121" y="502" on="0"/>
      </contour>
      <contour>
        <pt x="149" y="156" on="1"/>
        <pt x="99" y="142" on="0"/>
        <pt x="59" y="103" on="0"/>
        <pt x="64" y="67" on="0"/>
        <pt x="106" y="38" on="0"/>
        <pt x="166" y="29" on="0"/>
        <pt x="236" y="48" on="0"/>
        <pt x="268" y="76" on="1"/>
        <pt x="256" y="105" on="0"/>
        <pt x="232" y="136" on="0"/>
        <pt x="204" y="152" on="0"/>
        <pt x="170" y="156" on="0"/>
      </contour>
      <contour>
        <pt x="142" y="512" on="1"/>
        <pt x="151" y="486" on="0"/>
        <pt x="172" y="471" on="0"/>
        <pt x="190" y="478" on="0"/>
        <pt x="203" y="502" on="0"/>
        <pt x="207" y="514" on="1"/>
        <pt x="204" y="535" on="0"/>
        <pt x="179" y="556" on="0"/>
        <pt x="154" y="554" on="0"/>
        <pt x="137" y="533" on="0"/>
      </contour>
    </TTGlyph>
    <TTGlyph name="asciicircum" xMin="23" yMin="556" xMax="265" yMax="756">
      <contour>
        <pt x="154" y="676" on="1"/>
        <pt x="141" y="659" on="0"/>
        <pt x="115" y="631" on="0"/>
        <pt x="91" y="604" on="0"/>
        <pt x="66" y="576" on="0"/>
        <pt x="52" y="559" on="1"/>
        <pt x="23" y="574" on="1"/>
        <pt x="157" y="756" on="1"/>
        <pt x="175" y="738" on="0"/>
        <pt x="202" y="696" on="0"/>
        <pt x="226" y="650" on="0"/>
        <pt x="250" y="602" on="0"/>
        <pt x="265" y="578" on="1"/>
        <pt x="265" y="571" on="0"/>
        <pt x="259" y="566" on="0"/>
        <pt x="248" y="563" on="0"/>
        <pt x="235" y="560" on="0"/>
        <pt x="227" y="556" on="1"/>
        <pt x="214" y="578" on="0"/>
        <pt x="199" y="604" on="0"/>
        <pt x="187" y="627" on="0"/>
        <pt x="170" y="653" on="0"/>
      </contour>
    </TTGlyph>
    <TTGlyph name="asciitilde" xMin="43" yMin="482" xMax="274" yMax="596">
      <contour>
        <pt x="109" y="550" on="1"/>
        <pt x="98" y="558" on="0"/>
        <pt x="85" y="547" on="0"/>
        <pt x="75" y="524" on="0"/>
        <pt x="67" y="497" on="0"/>
        <pt x="59" y="481" on="0"/>
        <pt x="49" y="484" on="0"/>
        <pt x="43" y="502" on="1"/>
        <pt x="43" y="549" on="0"/>
        <pt x="73" y="587" on="0"/>
        <pt x="107" y="587" on="1"/>
        <pt x="126" y="578" on="0"/>
        <pt x="151" y="553" on="0"/>
        <pt x="172" y="532" on="0"/>
        <pt x="189" y="520" on="0"/>
        <pt x="209" y="528" on="0"/>
        <pt x="235" y="561" on="0"/>
        <pt x="253" y="596" on="1"/>
        <pt x="259" y="596" on="0"/>
        <pt x="274" y="586" on="0"/>
        <pt x="274" y="576" on="1"/>
        <pt x="258" y="535" on="0"/>
        <pt x="227" y="494" on="0"/>
        <pt x="199" y="483" on="0"/>
        <pt x="171" y="495" on="0"/>
        <pt x="145" y="517" on="0"/>
        <pt x="121" y="541" on="0"/>
      </contour>
    </TTGlyph>
    <TTGlyph name="asterisk" xMin="10" yMin="230" xMax="205" yMax="460">
      <contour>
        <pt x="125" y="288" on="1"/>
        <pt x="122" y="282" on="0"/>
        <pt x="109" y="266" on="0"/>
        <pt x="91" y="251" on="0"/>
        <pt x="70" y="241" on="0"/>
        <pt x="61" y="241" on="1"/>
        <pt x="61" y="254" on="0"/>
        <pt x="58" y="292" on="0"/>
        <pt x="49" y="328" on="0"/>
        <pt x="28" y="358" on="0"/>
        <pt x="10" y="364" on="1"/>
        <pt x="31" y="368" on="0"/>
        <pt x="57" y="381" on="0"/>
        <pt x="73" y="395" on="0"/>
        <pt x="82" y="412" on="0"/>
        <pt x="94" y="431" on="0"/>
        <pt x="110" y="451" on="0"/>
        <pt x="125" y="460" on="1"/>
        <pt x="139" y="456" on="0"/>
        <pt x="150" y="440" on="0"/>
        <pt x="152" y="421" on="0"/>
        <pt x="152" y="403" on="0"/>
        <pt x="160" y="388" on="0"/>
        <pt x="181" y="378" on="0"/>
        <pt x="205" y="378" on="1"/>
        <pt x="205" y="376" on="0"/>
        <pt x="202" y="367" on="0"/>
        <pt x="202" y="364" on="1"/>
        <pt x="201" y="363" on="0"/>
        <pt x="195" y="352" on="0"/>
        <pt x="188" y="339" on="0"/>
        <pt x="183" y="328" on="0"/>
        <pt x="183" y="326" on="1"/>
        <pt x="183" y="324" on="0"/>
        <pt x="189" y="307" on="0"/>
        <pt x="196" y="288" on="0"/>
        <pt x="202" y="271" on="0"/>
        <pt x="202" y="268" on="1"/>
        <pt x="202" y="268" on="0"/>
        <pt x="202" y="253" on="0"/>
        <pt x="202" y="250" on="1"/>
        <pt x="202" y="247" on="0"/>
        <pt x="202" y="232" on="0"/>
        <pt x="202" y="230" on="1"/>
      </contour>
    </TTGlyph>
    <TTGlyph name="at" xMin="19" yMin="-2" xMax="676" yMax="653">
      <contour>
        <pt x="19" y="256" on="1"/>
        <pt x="19" y="308" on="0"/>
        <pt x="48" y="406" on="0"/>
        <pt x="100" y="495" on="0"/>
        <pt x="173" y="569" on="0"/>
        <pt x="260" y="623" on="0"/>
        <pt x="359" y="653" on="0"/>
        <pt x="412" y="653" on="1"/>
        <pt x="445" y="653" on="0"/>
        <pt x="514" y="637" on="0"/>
        <pt x="577" y="607" on="0"/>
        <pt x="631" y="563" on="0"/>
        <pt x="667" y="508" on="0"/>
        <pt x="682" y="441" on="0"/>
        <pt x="676" y="403" on="1"/>
        <pt x="676" y="361" on="0"/>
        <pt x="651" y="298" on="0"/>
        <pt x="617" y="241" on="0"/>
        <pt x="584" y="187" on="0"/>
        <pt x="576" y="154" on="1"/>
        <pt x="575" y="151" on="0"/>
        <pt x="579" y="139" on="0"/>
        <pt x="585" y="127" on="0"/>
        <pt x="592" y="116" on="0"/>
        <pt x="595" y="115" on="1"/>
        <pt x="567" y="81" on="0"/>
        <pt x="511" y="36" on="0"/>
        <pt x="450" y="9" on="0"/>
        <pt x="380" y="-2" on="0"/>
        <pt x="337" y="-2" on="1"/>
        <pt x="278" y="-2" on="0"/>
        <pt x="164" y="27" on="0"/>
        <pt x="74" y="89" on="0"/>
        <pt x="19" y="187" on="0"/>
      </contour>
      <contour>
        <pt x="73" y="268" on="1"/>
        <pt x="70" y="206" on="0"/>
        <pt x="113" y="118" on="0"/>
        <pt x="190" y="66" on="0"/>
        <pt x="291" y="48" on="0"/>
        <pt x="343" y="55" on="1"/>
        <pt x="367" y="55" on="0"/>
        <pt x="422" y="55" on="0"/>
        <pt x="476" y="66" on="0"/>
        <pt x="523" y="91" on="0"/>
        <pt x="538" y="115" on="1"/>
        <pt x="531" y="113" on="0"/>
        <pt x="499" y="111" on="0"/>
        <pt x="462" y="111" on="0"/>
        <pt x="429" y="113" on="0"/>
        <pt x="422" y="115" on="1"/>
        <pt x="418" y="116" on="0"/>
        <pt x="397" y="134" on="0"/>
        <pt x="372" y="155" on="0"/>
        <pt x="349" y="172" on="0"/>
        <pt x="346" y="172" on="1"/>
        <pt x="341" y="172" on="0"/>
        <pt x="307" y="162" on="0"/>
        <pt x="268" y="148" on="0"/>
        <pt x="235" y="135" on="0"/>
        <pt x="230" y="134" on="1"/>
        <pt x="214" y="130" on="0"/>
        <pt x="187" y="150" on="0"/>
        <pt x="166" y="182" on="0"/>
        <pt x="154" y="219" on="0"/>
        <pt x="154" y="230" on="1"/>
        <pt x="154" y="262" on="0"/>
        <pt x="181" y="342" on="0"/>
        <pt x="227" y="412" on="0"/>
        <pt x="290" y="461" on="0"/>
        <pt x="326" y="461" on="1"/>
        <pt x="350" y="461" on="0"/>
        <pt x="386" y="442" on="0"/>
        <pt x="411" y="410" on="0"/>
        <pt x="423" y="369" on="0"/>
        <pt x="423" y="346" on="1"/>
        <pt x="423" y="328" on="0"/>
        <pt x="417" y="295" on="0"/>
        <pt x="409" y="261" on="0"/>
        <pt x="403" y="226" on="0"/>
        <pt x="403" y="209" on="1"/>
        <pt x="403" y="199" on="0"/>
        <pt x="409" y="179" on="0"/>
        <pt x="421" y="163" on="0"/>
        <pt x="439" y="153" on="0"/>
        <pt x="450" y="153" on="1"/>
        <pt x="501" y="153" on="0"/>
        <pt x="571" y="201" on="0"/>
        <pt x="616" y="274" on="0"/>
        <pt x="635" y="363" on="0"/>
        <pt x="635" y="404" on="1"/>
        <pt x="635" y="454" on="0"/>
        <pt x="603" y="532" on="0"/>
        <pt x="544" y="587" on="0"/>
        <pt x="462" y="616" on="0"/>
        <pt x="411" y="616" on="1"/>
        <pt x="338" y="616" on="0"/>
        <pt x="214" y="558" on="0"/>
        <pt x="124" y="461" on="0"/>
        <pt x="73" y="336" on="0"/>
      </contour>
      <contour>
        <pt x="372" y="409" on="1"/>
        <pt x="322" y="409" on="0"/>
        <pt x="256" y="374" on="0"/>
        <pt x="217" y="314" on="0"/>
        <pt x="200" y="232" on="0"/>
        <pt x="200" y="187" on="1"/>
        <pt x="254" y="187" on="0"/>
        <pt x="322" y="220" on="0"/>
        <pt x="359" y="279" on="0"/>
        <pt x="372" y="361" on="0"/>
      </contour>
    </TTGlyph>
    <TTGlyph name="atilde" xMin="19" yMin="-2" xMax="326" yMax="596">
      <component glyphName="a" x="0" y="0" flags="0x1204"/>
      <component glyphName="tilde" x="13" y="0" flags="0x1004"/>
    </TTGlyph>
    <TTGlyph name="b" xMin="14" yMin="10" xMax="348" yMax="652">
      <contour>
        <pt x="53" y="652" on="1"/>
        <pt x="57" y="616" on="0"/>
        <pt x="66" y="529" on="0"/>
        <pt x="72" y="438" on="0"/>
        <pt x="74" y="347" on="0"/>
        <pt x="72" y="307" on="1"/>
        <pt x="88" y="321" on="0"/>
        <pt x="115" y="342" on="0"/>
        <pt x="142" y="358" on="0"/>
        <pt x="169" y="366" on="0"/>
        <pt x="187" y="366" on="1"/>
        <pt x="223" y="366" on="0"/>
        <pt x="283" y="331" on="0"/>
        <pt x="325" y="274" on="0"/>
        <pt x="348" y="205" on="0"/>
        <pt x="348" y="172" on="1"/>
        <pt x="346" y="116" on="0"/>
        <pt x="304" y="49" on="0"/>
        <pt x="235" y="13" on="0"/>
        <pt x="142" y="7" on="0"/>
        <pt x="91" y="11" on="1"/>
        <pt x="91" y="58" on="1"/>
        <pt x="109" y="42" on="0"/>
        <pt x="139" y="37" on="0"/>
        <pt x="160" y="37" on="1"/>
        <pt x="193" y="37" on="0"/>
        <pt x="247" y="57" on="0"/>
        <pt x="286" y="94" on="0"/>
        <pt x="307" y="146" on="0"/>
        <pt x="307" y="177" on="1"/>
        <pt x="307" y="204" on="0"/>
        <pt x="301" y="246" on="0"/>
        <pt x="280" y="280" on="0"/>
        <pt x="240" y="311" on="0"/>
        <pt x="206" y="326" on="1"/>
        <pt x="204" y="327" on="0"/>
        <pt x="190" y="328" on="0"/>
        <pt x="187" y="328" on="1"/>
        <pt x="171" y="328" on="0"/>
        <pt x="139" y="309" on="0"/>
        <pt x="113" y="280" on="0"/>
        <pt x="95" y="245" on="0"/>
        <pt x="91" y="230" on="1"/>
        <pt x="89" y="218" on="0"/>
        <pt x="82" y="157" on="0"/>
        <pt x="73" y="87" on="0"/>
        <pt x="67" y="25" on="0"/>
        <pt x="65" y="13" on="1"/>
        <pt x="34" y="19" on="1"/>
        <pt x="14" y="652" on="1"/>
      </contour>
    </TTGlyph>
    <TTGlyph name="backslash" xMin="-8" yMin="0" xMax="427" yMax="652">
      <contour>
        <pt x="43" y="652" on="1"/>
        <pt x="47" y="646" on="0"/>
        <pt x="96" y="579" on="0"/>
        <pt x="190" y="435" on="0"/>
        <pt x="331" y="205" on="0"/>
        <pt x="427" y="38" on="1"/>
        <pt x="408" y="0" on="1"/>
        <pt x="-8" y="652" on="1"/>
      </contour>
    </TTGlyph>
    <TTGlyph name="bar" xMin="29" yMin="-28" xMax="88" yMax="876">
      <contour>
        <pt x="32" y="823" on="1"/>
        <pt x="32" y="826" on="0"/>
        <pt x="32" y="848" on="0"/>
        <pt x="40" y="870" on="0"/>
        <pt x="58" y="881" on="0"/>
        <pt x="76" y="874" on="1"/>
        <pt x="76" y="874" on="0"/>
        <pt x="77" y="821" on="0"/>
        <pt x="79" y="730" on="0"/>
        <pt x="80" y="607" on="0"/>
        <pt x="82" y="469" on="0"/>
        <pt x="85" y="322" on="0"/>
        <pt x="86" y="182" on="0"/>
        <pt x="88" y="56" on="0"/>
        <pt x="88" y="7" on="1"/>
        <pt x="88" y="-2" on="0"/>
        <pt x="85" y="-15" on="0"/>
        <pt x="76" y="-23" on="0"/>
        <pt x="61" y="-28" on="0"/>
        <pt x="47" y="-28" on="1"/>
        <pt x="46" y="-27" on="0"/>
        <pt x="45" y="22" on="0"/>
        <pt x="43" y="106" on="0"/>
        <pt x="40" y="218" on="0"/>
        <pt x="37" y="344" on="0"/>
        <pt x="34" y="478" on="0"/>
        <pt x="31" y="604" on="0"/>
        <pt x="30" y="719" on="0"/>
        <pt x="29" y="763" on="1"/>
        <pt x="29" y="764" on="0"/>
        <pt x="30" y="780" on="0"/>
        <pt x="31" y="799" on="0"/>
        <pt x="32" y="818" on="0"/>
      </contour>
    </TTGlyph>
    <TTGlyph name="braceleft" xMin="10" yMin="-96" xMax="283" yMax="750">
      <contour>
        <pt x="10" y="230" on="1"/>
        <pt x="21" y="262" on="0"/>
        <pt x="54" y="313" on="0"/>
        <pt x="85" y="364" on="0"/>
        <pt x="106" y="421" on="0"/>
        <pt x="106" y="460" on="1"/>
        <pt x="106" y="481" on="0"/>
        <pt x="100" y="520" on="0"/>
        <pt x="92" y="559" on="0"/>
        <pt x="85" y="599" on="0"/>
        <pt x="85" y="619" on="1"/>
        <pt x="85" y="646" on="0"/>
        <pt x="112" y="694" on="0"/>
        <pt x="154" y="729" on="0"/>
        <pt x="206" y="750" on="0"/>
        <pt x="232" y="750" on="1"/>
        <pt x="239" y="750" on="0"/>
        <pt x="258" y="748" on="0"/>
        <pt x="273" y="740" on="0"/>
        <pt x="283" y="727" on="0"/>
        <pt x="283" y="716" on="1"/>
        <pt x="263" y="716" on="0"/>
        <pt x="208" y="706" on="0"/>
        <pt x="159" y="682" on="0"/>
        <pt x="124" y="644" on="0"/>
        <pt x="124" y="616" on="1"/>
        <pt x="124" y="595" on="0"/>
        <pt x="131" y="553" on="0"/>
        <pt x="140" y="511" on="0"/>
        <pt x="147" y="469" on="0"/>
        <pt x="147" y="447" on="1"/>
        <pt x="147" y="421" on="0"/>
        <pt x="133" y="377" on="0"/>
        <pt x="118" y="334" on="0"/>
        <pt x="104" y="292" on="0"/>
        <pt x="104" y="268" on="1"/>
        <pt x="104" y="264" on="0"/>
        <pt x="105" y="250" on="0"/>
        <pt x="106" y="250" on="1"/>
        <pt x="124" y="204" on="0"/>
        <pt x="143" y="141" on="0"/>
        <pt x="157" y="94" on="0"/>
        <pt x="168" y="57" on="0"/>
        <pt x="190" y="19" on="0"/>
        <pt x="227" y="-26" on="0"/>
        <pt x="259" y="-58" on="1"/>
        <pt x="262" y="-62" on="0"/>
        <pt x="262" y="-74" on="0"/>
        <pt x="256" y="-86" on="0"/>
        <pt x="246" y="-95" on="0"/>
        <pt x="241" y="-96" on="1"/>
        <pt x="205" y="-96" on="0"/>
        <pt x="161" y="-71" on="0"/>
        <pt x="136" y="-29" on="0"/>
        <pt x="124" y="26" on="0"/>
        <pt x="115" y="85" on="0"/>
        <pt x="104" y="142" on="0"/>
        <pt x="82" y="190" on="0"/>
        <pt x="43" y="224" on="0"/>
      </contour>
    </TTGlyph>
    <TTGlyph name="braceright" xMin="8" yMin="-110" xMax="331" yMax="739">
      <contour>
        <pt x="206" y="-87" on="1"/>
        <pt x="233" y="-80" on="0"/>
        <pt x="265" y="-64" on="0"/>
        <pt x="282" y="-41" on="0"/>
        <pt x="286" y="-13" on="0"/>
        <pt x="286" y="5" on="1"/>
        <pt x="286" y="19" on="0"/>
        <pt x="279" y="73" on="0"/>
        <pt x="267" y="141" on="0"/>
        <pt x="250" y="214" on="0"/>
        <pt x="232" y="277" on="0"/>
        <pt x="214" y="326" on="0"/>
        <pt x="206" y="335" on="1"/>
        <pt x="214" y="421" on="0"/>
        <pt x="215" y="538" on="0"/>
        <pt x="206" y="613" on="0"/>
        <pt x="189" y="654" on="0"/>
        <pt x="169" y="674" on="0"/>
        <pt x="148" y="679" on="0"/>
        <pt x="140" y="682" on="1"/>
        <pt x="122" y="682" on="0"/>
        <pt x="90" y="676" on="0"/>
        <pt x="58" y="667" on="0"/>
        <pt x="26" y="660" on="0"/>
        <pt x="8" y="660" on="1"/>
        <pt x="8" y="682" on="0"/>
        <pt x="37" y="712" on="0"/>
        <pt x="79" y="731" on="0"/>
        <pt x="124" y="739" on="0"/>
        <pt x="139" y="739" on="1"/>
        <pt x="172" y="739" on="0"/>
        <pt x="220" y="713" on="0"/>
        <pt x="250" y="670" on="0"/>
        <pt x="265" y="615" on="0"/>
        <pt x="265" y="586" on="1"/>
        <pt x="265" y="550" on="0"/>
        <pt x="256" y="481" on="0"/>
        <pt x="247" y="421" on="0"/>
        <pt x="241" y="372" on="0"/>
        <pt x="245" y="355" on="1"/>
        <pt x="277" y="322" on="0"/>
        <pt x="310" y="240" on="0"/>
        <pt x="325" y="151" on="0"/>
        <pt x="329" y="58" on="0"/>
        <pt x="331" y="13" on="1"/>
        <pt x="331" y="-14" on="0"/>
        <pt x="316" y="-59" on="0"/>
        <pt x="285" y="-92" on="0"/>
        <pt x="238" y="-110" on="0"/>
        <pt x="206" y="-110" on="1"/>
      </contour>
    </TTGlyph>
    <TTGlyph name="bracketleft" xMin="30" yMin="-92" xMax="262" yMax="781">
      <contour>
        <pt x="51" y="-72" on="1"/>
        <pt x="49" y="-55" on="0"/>
        <pt x="47" y="21" on="0"/>
        <pt x="45" y="123" on="0"/>
        <pt x="42" y="243" on="0"/>
        <pt x="39" y="367" on="0"/>
        <pt x="36" y="487" on="0"/>
        <pt x="34" y="589" on="0"/>
        <pt x="31" y="665" on="0"/>
        <pt x="30" y="682" on="1"/>
        <pt x="30" y="694" on="1"/>
        <pt x="30" y="727" on="0"/>
        <pt x="53" y="762" on="0"/>
        <pt x="91" y="778" on="0"/>
        <pt x="140" y="780" on="0"/>
        <pt x="166" y="780" on="1"/>
        <pt x="175" y="780" on="0"/>
        <pt x="191" y="781" on="0"/>
        <pt x="206" y="778" on="0"/>
        <pt x="218" y="769" on="0"/>
        <pt x="222" y="760" on="1"/>
        <pt x="223" y="756" on="0"/>
        <pt x="224" y="746" on="0"/>
        <pt x="226" y="742" on="1"/>
        <pt x="226" y="736" on="0"/>
        <pt x="228" y="731" on="1"/>
        <pt x="94" y="731" on="1"/>
        <pt x="93" y="712" on="0"/>
        <pt x="88" y="641" on="0"/>
        <pt x="82" y="545" on="0"/>
        <pt x="76" y="433" on="0"/>
        <pt x="71" y="313" on="0"/>
        <pt x="69" y="195" on="0"/>
        <pt x="72" y="87" on="0"/>
        <pt x="81" y="-3" on="0"/>
        <pt x="89" y="-34" on="1"/>
        <pt x="243" y="-34" on="1"/>
        <pt x="254" y="-34" on="0"/>
        <pt x="262" y="-54" on="0"/>
        <pt x="262" y="-62" on="1"/>
        <pt x="262" y="-64" on="0"/>
        <pt x="262" y="-71" on="0"/>
        <pt x="262" y="-72" on="1"/>
        <pt x="252" y="-74" on="0"/>
        <pt x="210" y="-80" on="0"/>
        <pt x="160" y="-87" on="0"/>
        <pt x="107" y="-92" on="0"/>
        <pt x="87" y="-92" on="1"/>
        <pt x="74" y="-92" on="0"/>
        <pt x="56" y="-89" on="0"/>
      </contour>
    </TTGlyph>
    <TTGlyph name="bracketright" xMin="8" yMin="-62" xMax="309" yMax="805">
      <contour>
        <pt x="172" y="-24" on="1"/>
        <pt x="179" y="-27" on="0"/>
        <pt x="207" y="-26" on="0"/>
        <pt x="238" y="-20" on="0"/>
        <pt x="264" y="-11" on="0"/>
        <pt x="268" y="-5" on="1"/>
        <pt x="268" y="-5" on="0"/>
        <pt x="269" y="4" on="0"/>
        <pt x="270" y="17" on="0"/>
        <pt x="271" y="30" on="0"/>
        <pt x="271" y="34" on="1"/>
        <pt x="271" y="39" on="0"/>
        <pt x="270" y="56" on="0"/>
        <pt x="269" y="74" on="0"/>
        <pt x="268" y="89" on="0"/>
        <pt x="268" y="91" on="1"/>
        <pt x="266" y="115" on="0"/>
        <pt x="259" y="190" on="0"/>
        <pt x="253" y="282" on="0"/>
        <pt x="244" y="383" on="0"/>
        <pt x="237" y="482" on="0"/>
        <pt x="230" y="573" on="0"/>
        <pt x="225" y="643" on="0"/>
        <pt x="220" y="688" on="0"/>
        <pt x="220" y="690" on="1"/>
        <pt x="200" y="747" on="1"/>
        <pt x="197" y="747" on="0"/>
        <pt x="172" y="748" on="0"/>
        <pt x="137" y="751" on="0"/>
        <pt x="94" y="755" on="0"/>
        <pt x="53" y="764" on="0"/>
        <pt x="19" y="777" on="0"/>
        <pt x="8" y="786" on="1"/>
        <pt x="26" y="802" on="0"/>
        <pt x="61" y="805" on="0"/>
        <pt x="84" y="805" on="1"/>
        <pt x="105" y="805" on="0"/>
        <pt x="140" y="803" on="0"/>
        <pt x="175" y="799" on="0"/>
        <pt x="214" y="791" on="0"/>
        <pt x="238" y="786" on="1"/>
        <pt x="241" y="770" on="0"/>
        <pt x="249" y="701" on="0"/>
        <pt x="259" y="607" on="0"/>
        <pt x="269" y="496" on="0"/>
        <pt x="280" y="382" on="0"/>
        <pt x="290" y="270" on="0"/>
        <pt x="299" y="176" on="0"/>
        <pt x="306" y="107" on="0"/>
        <pt x="307" y="91" on="1"/>
        <pt x="307" y="90" on="0"/>
        <pt x="308" y="75" on="0"/>
        <pt x="309" y="56" on="0"/>
        <pt x="309" y="37" on="0"/>
        <pt x="309" y="32" on="1"/>
        <pt x="309" y="-3" on="0"/>
        <pt x="298" y="-40" on="0"/>
        <pt x="267" y="-56" on="0"/>
        <pt x="214" y="-60" on="0"/>
        <pt x="172" y="-62" on="1"/>
      </contour>
    </TTGlyph>
    <TTGlyph name="breve" xMin="52" yMin="352" xMax="167" yMax="453">
      <contour>
        <pt x="161" y="453" on="1"/>
        <pt x="167" y="445" on="0"/>
        <pt x="166" y="423" on="0"/>
        <pt x="166" y="412" on="1"/>
        <pt x="166" y="404" on="0"/>
        <pt x="160" y="383" on="0"/>
        <pt x="147" y="364" on="0"/>
        <pt x="127" y="352" on="0"/>
        <pt x="112" y="352" on="1"/>
        <pt x="95" y="352" on="0"/>
        <pt x="72" y="364" on="0"/>
        <pt x="58" y="382" on="0"/>
        <pt x="52" y="405" on="0"/>
        <pt x="52" y="415" on="1"/>
        <pt x="52" y="421" on="0"/>
        <pt x="54" y="438" on="0"/>
        <pt x="56" y="446" on="1"/>
        <pt x="76" y="446" on="1"/>
        <pt x="73" y="441" on="0"/>
        <pt x="70" y="426" on="0"/>
        <pt x="73" y="415" on="1"/>
        <pt x="82" y="389" on="0"/>
        <pt x="103" y="374" on="0"/>
        <pt x="121" y="382" on="0"/>
        <pt x="134" y="405" on="0"/>
        <pt x="138" y="418" on="1"/>
        <pt x="136" y="427" on="0"/>
        <pt x="135" y="444" on="0"/>
        <pt x="130" y="449" on="1"/>
      </contour>
    </TTGlyph>
    <TTGlyph name="brokenbar" xMin="43" yMin="-1" xMax="108" yMax="744">
      <contour>
        <pt x="98" y="388" on="1"/>
        <pt x="100" y="340" on="0"/>
        <pt x="103" y="249" on="0"/>
        <pt x="106" y="171" on="0"/>
        <pt x="107" y="110" on="0"/>
        <pt x="108" y="94" on="1"/>
        <pt x="108" y="92" on="0"/>
        <pt x="107" y="82" on="0"/>
        <pt x="106" y="68" on="0"/>
        <pt x="105" y="55" on="0"/>
        <pt x="105" y="52" on="1"/>
        <pt x="104" y="46" on="0"/>
        <pt x="104" y="29" on="0"/>
        <pt x="100" y="13" on="0"/>
        <pt x="91" y="0" on="0"/>
        <pt x="81" y="-1" on="1"/>
        <pt x="64" y="20" on="1"/>
        <pt x="63" y="21" on="0"/>
        <pt x="61" y="83" on="0"/>
        <pt x="57" y="185" on="0"/>
        <pt x="52" y="316" on="0"/>
        <pt x="50" y="386" on="1"/>
      </contour>
      <contour>
        <pt x="44" y="418" on="1"/>
        <pt x="43" y="461" on="0"/>
        <pt x="43" y="526" on="0"/>
        <pt x="44" y="583" on="0"/>
        <pt x="45" y="634" on="0"/>
        <pt x="44" y="663" on="1"/>
        <pt x="44" y="667" on="0"/>
        <pt x="45" y="691" on="0"/>
        <pt x="46" y="716" on="0"/>
        <pt x="47" y="739" on="0"/>
        <pt x="47" y="744" on="1"/>
        <pt x="61" y="742" on="0"/>
        <pt x="82" y="731" on="0"/>
        <pt x="88" y="717" on="1"/>
        <pt x="89" y="677" on="0"/>
        <pt x="96" y="528" on="0"/>
        <pt x="100" y="415" on="1"/>
      </contour>
    </TTGlyph>
    <TTGlyph name="bullet" xMin="60" yMin="181" xMax="153" yMax="293">
      <contour>
        <pt x="60" y="223" on="1"/>
        <pt x="56" y="238" on="0"/>
        <pt x="64" y="263" on="0"/>
        <pt x="79" y="283" on="0"/>
        <pt x="97" y="293" on="0"/>
        <pt x="105" y="293" on="1"/>
        <pt x="112" y="293" on="0"/>
        <pt x="132" y="285" on="0"/>
        <pt x="148" y="269" on="0"/>
        <pt x="157" y="246" on="0"/>
        <pt x="153" y="231" on="1"/>
        <pt x="151" y="224" on="0"/>
        <pt x="141" y="208" on="0"/>
        <pt x="127" y="192" on="0"/>
        <pt x="110" y="181" on="0"/>
        <pt x="103" y="181" on="1"/>
        <pt x="87" y="181" on="0"/>
        <pt x="64" y="209" on="0"/>
      </contour>
    </TTGlyph>
    <TTGlyph name="c" xMin="19" yMin="-2" xMax="350" yMax="427">
      <contour>
        <pt x="19" y="171" on="1"/>
        <pt x="19" y="208" on="0"/>
        <pt x="43" y="298" on="0"/>
        <pt x="89" y="375" on="0"/>
        <pt x="157" y="427" on="0"/>
        <pt x="202" y="427" on="1"/>
        <pt x="225" y="430" on="0"/>
        <pt x="253" y="415" on="0"/>
        <pt x="268" y="383" on="0"/>
        <pt x="273" y="342" on="0"/>
        <pt x="274" y="299" on="0"/>
        <pt x="273" y="262" on="0"/>
        <pt x="275" y="250" on="1"/>
        <pt x="250" y="250" on="1"/>
        <pt x="249" y="256" on="0"/>
        <pt x="244" y="301" on="0"/>
        <pt x="232" y="349" on="0"/>
        <pt x="211" y="387" on="0"/>
        <pt x="192" y="387" on="1"/>
        <pt x="164" y="387" on="0"/>
        <pt x="115" y="343" on="0"/>
        <pt x="79" y="281" on="0"/>
        <pt x="57" y="215" on="0"/>
        <pt x="57" y="193" on="1"/>
        <pt x="58" y="168" on="0"/>
        <pt x="70" y="109" on="0"/>
        <pt x="97" y="61" on="0"/>
        <pt x="141" y="31" on="0"/>
        <pt x="173" y="37" on="1"/>
        <pt x="197" y="37" on="0"/>
        <pt x="241" y="57" on="0"/>
        <pt x="283" y="79" on="0"/>
        <pt x="326" y="99" on="0"/>
        <pt x="350" y="99" on="1"/>
        <pt x="350" y="73" on="0"/>
        <pt x="312" y="34" on="0"/>
        <pt x="257" y="10" on="0"/>
        <pt x="196" y="-2" on="0"/>
        <pt x="175" y="-2" on="1"/>
        <pt x="141" y="-2" on="0"/>
        <pt x="84" y="26" on="0"/>
        <pt x="42" y="73" on="0"/>
        <pt x="19" y="136" on="0"/>
      </contour>
    </TTGlyph>
    <TTGlyph name="cacute" xMin="19" yMin="-2" xMax="350" yMax="649">
      <component glyphName="c" x="0" y="0" flags="0x1204"/>
      <component glyphName="acute" x="96" y="0" flags="0x1004"/>
    </TTGlyph>
    <TTGlyph name="caron" xMin="18" yMin="550" xMax="278" yMax="679">
      <contour>
        <pt x="159" y="601" on="1"/>
        <pt x="176" y="616" on="0"/>
        <pt x="193" y="634" on="0"/>
        <pt x="207" y="648" on="0"/>
        <pt x="222" y="664" on="0"/>
        <pt x="237" y="679" on="1"/>
        <pt x="245" y="676" on="0"/>
        <pt x="260" y="674" on="0"/>
        <pt x="271" y="672" on="0"/>
        <pt x="278" y="669" on="0"/>
        <pt x="278" y="664" on="1"/>
        <pt x="262" y="649" on="0"/>
        <pt x="235" y="618" on="0"/>
        <pt x="210" y="589" on="0"/>
        <pt x="181" y="562" on="0"/>
        <pt x="161" y="550" on="1"/>
        <pt x="18" y="667" on="1"/>
        <pt x="49" y="676" on="1"/>
        <pt x="64" y="666" on="0"/>
        <pt x="90" y="648" on="0"/>
        <pt x="117" y="631" on="0"/>
        <pt x="144" y="613" on="0"/>
      </contour>
    </TTGlyph>
    <TTGlyph name="ccaron" xMin="19" yMin="-2" xMax="350" yMax="679">
      <component glyphName="c" x="0" y="0" flags="0x1204"/>
      <component glyphName="caron" x="39" y="0" flags="0x1004"/>
    </TTGlyph>
    <TTGlyph name="ccedilla" xMin="19" yMin="-221" xMax="350" yMax="427">
      <contour>
        <pt x="107" y="-158" on="1"/>
        <pt x="119" y="-158" on="0"/>
        <pt x="140" y="-168" on="0"/>
        <pt x="161" y="-182" on="0"/>
        <pt x="182" y="-192" on="0"/>
        <pt x="194" y="-192" on="1"/>
        <pt x="208" y="-194" on="0"/>
        <pt x="242" y="-179" on="0"/>
        <pt x="269" y="-154" on="0"/>
        <pt x="281" y="-125" on="0"/>
        <pt x="264" y="-105" on="0"/>
        <pt x="210" y="-97" on="0"/>
        <pt x="157" y="-104" on="1"/>
        <pt x="148" y="-104" on="0"/>
        <pt x="128" y="-92" on="0"/>
        <pt x="113" y="-71" on="0"/>
        <pt x="104" y="-48" on="0"/>
        <pt x="104" y="-38" on="1"/>
        <pt x="99" y="-8" on="0"/>
        <pt x="107" y="10" on="1"/>
        <pt x="109" y="13" on="1"/>
        <pt x="82" y="28" on="0"/>
        <pt x="63" y="49" on="1"/>
        <pt x="42" y="73" on="0"/>
        <pt x="19" y="136" on="0"/>
        <pt x="19" y="171" on="1"/>
        <pt x="19" y="208" on="0"/>
        <pt x="43" y="298" on="0"/>
        <pt x="89" y="375" on="0"/>
        <pt x="157" y="427" on="0"/>
        <pt x="202" y="427" on="1"/>
        <pt x="225" y="430" on="0"/>
        <pt x="253" y="415" on="0"/>
        <pt x="268" y="383" on="0"/>
        <pt x="273" y="342" on="0"/>
        <pt x="274" y="299" on="0"/>
        <pt x="273" y="262" on="0"/>
        <pt x="275" y="250" on="1"/>
        <pt x="250" y="250" on="1"/>
        <pt x="249" y="256" on="0"/>
        <pt x="244" y="301" on="0"/>
        <pt x="232" y="349" on="0"/>
        <pt x="211" y="387" on="0"/>
        <pt x="192" y="387" on="1"/>
        <pt x="164" y="387" on="0"/>
        <pt x="115" y="343" on="0"/>
        <pt x="79" y="281" on="0"/>
        <pt x="57" y="215" on="0"/>
        <pt x="57" y="193" on="1"/>
        <pt x="58" y="168" on="0"/>
        <pt x="70" y="109" on="0"/>
        <pt x="97" y="61" on="0"/>
        <pt x="141" y="31" on="0"/>
        <pt x="173" y="37" on="1"/>
        <pt x="197" y="37" on="0"/>
        <pt x="241" y="57" on="0"/>
        <pt x="283" y="79" on="0"/>
        <pt x="326" y="99" on="0"/>
        <pt x="350" y="99" on="1"/>
        <pt x="350" y="73" on="0"/>
        <pt x="312" y="34" on="0"/>
        <pt x="257" y="10" on="0"/>
        <pt x="196" y="-2" on="0"/>
        <pt x="175" y="-2" on="1"/>
        <pt x="157" y="-2" on="0"/>
        <pt x="141" y="1" on="1"/>
        <pt x="140" y="-16" on="0"/>
        <pt x="131" y="-44" on="1"/>
        <pt x="131" y="-59" on="0"/>
        <pt x="156" y="-66" on="0"/>
        <pt x="193" y="-64" on="0"/>
        <pt x="237" y="-61" on="0"/>
        <pt x="274" y="-72" on="0"/>
        <pt x="299" y="-105" on="0"/>
        <pt x="299" y="-140" on="1"/>
        <pt x="299" y="-162" on="0"/>
        <pt x="279" y="-195" on="0"/>
        <pt x="247" y="-216" on="0"/>
        <pt x="208" y="-224" on="0"/>
        <pt x="189" y="-221" on="1"/>
        <pt x="181" y="-221" on="0"/>
        <pt x="153" y="-212" on="0"/>
        <pt x="127" y="-197" on="0"/>
        <pt x="107" y="-173" on="0"/>
      </contour>
    </TTGlyph>
    <TTGlyph name="ccircumflex" xMin="19" yMin="-2" xMax="350" yMax="756">
      <component glyphName="c" x="0" y="0" flags="0x1204"/>
      <component glyphName="circumflex" x="43" y="0" flags="0x1004"/>
    </TTGlyph>
    <TTGlyph name="cdotaccent" xMin="19" yMin="-2" xMax="350" yMax="558">
      <component glyphName="c" x="0" y="0" flags="0x1204"/>
      <component glyphName="dotaccent" x="104" y="78" flags="0x1004"/>
    </TTGlyph>
    <TTGlyph name="cedilla" xMin="92" yMin="-221" xMax="287" yMax="31">
      <contour>
        <pt x="95" y="-158" on="1"/>
        <pt x="107" y="-158" on="0"/>
        <pt x="128" y="-168" on="0"/>
        <pt x="149" y="-182" on="0"/>
        <pt x="170" y="-192" on="0"/>
        <pt x="182" y="-192" on="1"/>
        <pt x="196" y="-194" on="0"/>
        <pt x="230" y="-179" on="0"/>
        <pt x="257" y="-154" on="0"/>
        <pt x="269" y="-125" on="0"/>
        <pt x="252" y="-105" on="0"/>
        <pt x="198" y="-97" on="0"/>
        <pt x="145" y="-104" on="1"/>
        <pt x="136" y="-104" on="0"/>
        <pt x="116" y="-92" on="0"/>
        <pt x="101" y="-71" on="0"/>
        <pt x="92" y="-48" on="0"/>
        <pt x="92" y="-38" on="1"/>
        <pt x="87" y="-8" on="0"/>
        <pt x="104" y="29" on="0"/>
        <pt x="124" y="32" on="0"/>
        <pt x="133" y="-2" on="0"/>
        <pt x="119" y="-44" on="1"/>
        <pt x="119" y="-59" on="0"/>
        <pt x="144" y="-66" on="0"/>
        <pt x="181" y="-64" on="0"/>
        <pt x="225" y="-61" on="0"/>
        <pt x="262" y="-72" on="0"/>
        <pt x="287" y="-105" on="0"/>
        <pt x="287" y="-140" on="1"/>
        <pt x="287" y="-162" on="0"/>
        <pt x="267" y="-195" on="0"/>
        <pt x="235" y="-216" on="0"/>
        <pt x="196" y="-224" on="0"/>
        <pt x="177" y="-221" on="1"/>
        <pt x="169" y="-221" on="0"/>
        <pt x="141" y="-212" on="0"/>
        <pt x="115" y="-197" on="0"/>
        <pt x="95" y="-173" on="0"/>
      </contour>
    </TTGlyph>
    <TTGlyph name="cent" xMin="19" yMin="-35" xMax="350" yMax="518">
      <contour>
        <pt x="172" y="466" on="1"/>
        <pt x="172" y="469" on="0"/>
        <pt x="172" y="490" on="0"/>
        <pt x="180" y="512" on="0"/>
        <pt x="198" y="523" on="0"/>
        <pt x="217" y="517" on="1"/>
        <pt x="217" y="516" on="0"/>
        <pt x="217" y="469" on="0"/>
        <pt x="217" y="427" on="1"/>
        <pt x="235" y="427" on="0"/>
        <pt x="258" y="406" on="0"/>
        <pt x="269" y="374" on="0"/>
        <pt x="273" y="335" on="0"/>
        <pt x="274" y="295" on="0"/>
        <pt x="273" y="261" on="0"/>
        <pt x="275" y="250" on="1"/>
        <pt x="250" y="250" on="1"/>
        <pt x="249" y="255" on="0"/>
        <pt x="246" y="286" on="0"/>
        <pt x="239" y="323" on="0"/>
        <pt x="228" y="361" on="0"/>
        <pt x="218" y="373" on="1"/>
        <pt x="219" y="307" on="0"/>
        <pt x="220" y="138" on="0"/>
        <pt x="221" y="47" on="1"/>
        <pt x="237" y="54" on="0"/>
        <pt x="268" y="72" on="0"/>
        <pt x="299" y="88" on="0"/>
        <pt x="332" y="99" on="0"/>
        <pt x="350" y="99" on="1"/>
        <pt x="350" y="79" on="0"/>
        <pt x="326" y="46" on="0"/>
        <pt x="289" y="22" on="0"/>
        <pt x="244" y="7" on="0"/>
        <pt x="221" y="2" on="1"/>
        <pt x="221" y="-4" on="0"/>
        <pt x="222" y="-17" on="0"/>
        <pt x="222" y="-24" on="1"/>
        <pt x="221" y="-33" on="0"/>
        <pt x="217" y="-36" on="0"/>
        <pt x="207" y="-33" on="0"/>
        <pt x="190" y="-28" on="0"/>
        <pt x="178" y="-28" on="1"/>
        <pt x="175" y="-26" on="0"/>
        <pt x="175" y="-2" on="1"/>
        <pt x="141" y="-2" on="0"/>
        <pt x="84" y="26" on="0"/>
        <pt x="42" y="73" on="0"/>
        <pt x="19" y="136" on="0"/>
        <pt x="19" y="171" on="1"/>
        <pt x="19" y="205" on="0"/>
        <pt x="38" y="285" on="0"/>
        <pt x="76" y="358" on="0"/>
        <pt x="133" y="414" on="0"/>
        <pt x="170" y="423" on="1"/>
      </contour>
      <contour>
        <pt x="57" y="193" on="1"/>
        <pt x="58" y="168" on="0"/>
        <pt x="70" y="109" on="0"/>
        <pt x="97" y="61" on="0"/>
        <pt x="141" y="31" on="0"/>
        <pt x="173" y="37" on="1"/>
        <pt x="174" y="37" on="1"/>
        <pt x="173" y="64" on="0"/>
        <pt x="172" y="139" on="0"/>
        <pt x="172" y="228" on="0"/>
        <pt x="170" y="329" on="0"/>
        <pt x="169" y="383" on="1"/>
        <pt x="145" y="375" on="0"/>
        <pt x="104" y="328" on="0"/>
        <pt x="74" y="271" on="0"/>
        <pt x="57" y="213" on="0"/>
      </contour>
    </TTGlyph>
    <TTGlyph name="circumflex" xMin="23" yMin="556" xMax="265" yMax="756">
      <contour>
        <pt x="154" y="676" on="1"/>
        <pt x="141" y="659" on="0"/>
        <pt x="115" y="631" on="0"/>
        <pt x="91" y="604" on="0"/>
        <pt x="66" y="576" on="0"/>
        <pt x="52" y="559" on="1"/>
        <pt x="23" y="574" on="1"/>
        <pt x="157" y="756" on="1"/>
        <pt x="175" y="738" on="0"/>
        <pt x="202" y="696" on="0"/>
        <pt x="226" y="650" on="0"/>
        <pt x="250" y="602" on="0"/>
        <pt x="265" y="578" on="1"/>
        <pt x="265" y="571" on="0"/>
        <pt x="259" y="566" on="0"/>
        <pt x="248" y="563" on="0"/>
        <pt x="235" y="560" on="0"/>
        <pt x="227" y="556" on="1"/>
        <pt x="214" y="578" on="0"/>
        <pt x="199" y="604" on="0"/>
        <pt x="187" y="627" on="0"/>
        <pt x="170" y="653" on="0"/>
      </contour>
    </TTGlyph>
    <TTGlyph name="colon" xMin="27" yMin="76" xMax="127" yMax="378">
      <contour>
        <pt x="65" y="115" on="1"/>
        <pt x="65" y="130" on="0"/>
        <pt x="79" y="154" on="0"/>
        <pt x="96" y="154" on="1"/>
        <pt x="113" y="154" on="0"/>
        <pt x="127" y="129" on="0"/>
        <pt x="127" y="114" on="1"/>
        <pt x="127" y="97" on="0"/>
        <pt x="112" y="76" on="0"/>
        <pt x="86" y="76" on="1"/>
        <pt x="78" y="76" on="0"/>
        <pt x="70" y="85" on="0"/>
        <pt x="66" y="97" on="0"/>
        <pt x="65" y="111" on="0"/>
      </contour>
      <contour>
        <pt x="27" y="355" on="1"/>
        <pt x="27" y="364" on="0"/>
        <pt x="35" y="376" on="0"/>
        <pt x="53" y="380" on="0"/>
        <pt x="83" y="374" on="0"/>
        <pt x="105" y="364" on="1"/>
        <pt x="95" y="349" on="0"/>
        <pt x="74" y="325" on="0"/>
        <pt x="58" y="325" on="1"/>
        <pt x="45" y="325" on="0"/>
        <pt x="27" y="343" on="0"/>
      </contour>
    </TTGlyph>
    <TTGlyph name="comma" xMin="16" yMin="-75" xMax="96" yMax="60">
      <contour>
        <pt x="55" y="1" on="1"/>
        <pt x="54" y="4" on="0"/>
        <pt x="44" y="17" on="0"/>
        <pt x="32" y="29" on="0"/>
        <pt x="19" y="39" on="0"/>
        <pt x="16" y="40" on="1"/>
        <pt x="22" y="52" on="0"/>
        <pt x="34" y="60" on="0"/>
        <pt x="44" y="60" on="1"/>
        <pt x="72" y="60" on="0"/>
        <pt x="96" y="36" on="0"/>
        <pt x="96" y="11" on="1"/>
        <pt x="96" y="-20" on="0"/>
        <pt x="70" y="-58" on="0"/>
        <pt x="35" y="-75" on="1"/>
        <pt x="34" y="-73" on="0"/>
        <pt x="34" y="-59" on="0"/>
        <pt x="34" y="-56" on="1"/>
        <pt x="34" y="-53" on="0"/>
        <pt x="34" y="-38" on="0"/>
        <pt x="35" y="-37" on="1"/>
        <pt x="35" y="-35" on="0"/>
        <pt x="42" y="-24" on="0"/>
        <pt x="49" y="-11" on="0"/>
        <pt x="55" y="0" on="0"/>
      </contour>
    </TTGlyph>
    <TTGlyph name="commaaccent" xMin="32" yMin="-174" xMax="112" yMax="-39">
      <contour>
        <pt x="70" y="-98" on="1"/>
        <pt x="70" y="-95" on="0"/>
        <pt x="60" y="-82" on="0"/>
        <pt x="48" y="-70" on="0"/>
        <pt x="35" y="-60" on="0"/>
        <pt x="32" y="-59" on="1"/>
        <pt x="38" y="-47" on="0"/>
        <pt x="49" y="-39" on="0"/>
        <pt x="60" y="-39" on="1"/>
        <pt x="88" y="-39" on="0"/>
        <pt x="112" y="-63" on="0"/>
        <pt x="112" y="-88" on="1"/>
        <pt x="112" y="-119" on="0"/>
        <pt x="86" y="-157" on="0"/>
        <pt x="51" y="-174" on="1"/>
        <pt x="50" y="-172" on="0"/>
        <pt x="50" y="-158" on="0"/>
        <pt x="50" y="-155" on="1"/>
        <pt x="50" y="-152" on="0"/>
        <pt x="50" y="-137" on="0"/>
        <pt x="51" y="-136" on="1"/>
        <pt x="51" y="-134" on="0"/>
        <pt x="58" y="-123" on="0"/>
        <pt x="65" y="-110" on="0"/>
        <pt x="70" y="-99" on="0"/>
      </contour>
    </TTGlyph>
    <TTGlyph name="copyright" xMin="23" yMin="-60" xMax="493" yMax="562">
      <contour>
        <pt x="127" y="226" on="1"/>
        <pt x="127" y="256" on="0"/>
        <pt x="149" y="334" on="0"/>
        <pt x="187" y="403" on="0"/>
        <pt x="241" y="450" on="0"/>
        <pt x="271" y="450" on="1"/>
        <pt x="288" y="453" on="0"/>
        <pt x="310" y="438" on="0"/>
        <pt x="323" y="409" on="0"/>
        <pt x="331" y="372" on="0"/>
        <pt x="335" y="335" on="0"/>
        <pt x="337" y="303" on="0"/>
        <pt x="338" y="293" on="1"/>
        <pt x="307" y="285" on="1"/>
        <pt x="307" y="290" on="0"/>
        <pt x="304" y="326" on="0"/>
        <pt x="295" y="365" on="0"/>
        <pt x="280" y="395" on="0"/>
        <pt x="267" y="395" on="1"/>
        <pt x="247" y="395" on="0"/>
        <pt x="214" y="360" on="0"/>
        <pt x="187" y="310" on="0"/>
        <pt x="172" y="256" on="0"/>
        <pt x="172" y="238" on="1"/>
        <pt x="173" y="219" on="0"/>
        <pt x="182" y="172" on="0"/>
        <pt x="201" y="133" on="0"/>
        <pt x="232" y="110" on="0"/>
        <pt x="254" y="115" on="1"/>
        <pt x="271" y="115" on="0"/>
        <pt x="301" y="130" on="0"/>
        <pt x="331" y="148" on="0"/>
        <pt x="361" y="163" on="0"/>
        <pt x="378" y="163" on="1"/>
        <pt x="378" y="142" on="0"/>
        <pt x="351" y="108" on="0"/>
        <pt x="312" y="84" on="0"/>
        <pt x="269" y="70" on="0"/>
        <pt x="254" y="70" on="1"/>
        <pt x="230" y="70" on="0"/>
        <pt x="184" y="98" on="0"/>
        <pt x="149" y="142" on="0"/>
        <pt x="127" y="198" on="0"/>
      </contour>
      <contour>
        <pt x="23" y="274" on="1"/>
        <pt x="22" y="319" on="0"/>
        <pt x="44" y="416" on="0"/>
        <pt x="94" y="499" on="0"/>
        <pt x="178" y="557" on="0"/>
        <pt x="238" y="562" on="1"/>
        <pt x="281" y="561" on="0"/>
        <pt x="354" y="528" on="0"/>
        <pt x="412" y="474" on="0"/>
        <pt x="457" y="403" on="0"/>
        <pt x="484" y="325" on="0"/>
        <pt x="496" y="242" on="0"/>
        <pt x="493" y="204" on="1"/>
        <pt x="487" y="134" on="0"/>
        <pt x="436" y="34" on="0"/>
        <pt x="362" y="-29" on="0"/>
        <pt x="272" y="-59" on="0"/>
        <pt x="226" y="-60" on="1"/>
        <pt x="181" y="-60" on="0"/>
        <pt x="117" y="-29" on="0"/>
        <pt x="71" y="24" on="0"/>
        <pt x="43" y="92" on="0"/>
        <pt x="28" y="166" on="0"/>
        <pt x="23" y="241" on="0"/>
      </contour>
      <contour>
        <pt x="61" y="274" on="1"/>
        <pt x="61" y="249" on="0"/>
        <pt x="64" y="189" on="0"/>
        <pt x="73" y="127" on="0"/>
        <pt x="90" y="69" on="0"/>
        <pt x="121" y="24" on="0"/>
        <pt x="168" y="-4" on="0"/>
        <pt x="202" y="-4" on="1"/>
        <pt x="249" y="-11" on="0"/>
        <pt x="334" y="5" on="0"/>
        <pt x="402" y="55" on="0"/>
        <pt x="447" y="142" on="0"/>
        <pt x="453" y="204" on="1"/>
        <pt x="457" y="229" on="0"/>
        <pt x="448" y="295" on="0"/>
        <pt x="422" y="366" on="0"/>
        <pt x="382" y="435" on="0"/>
        <pt x="331" y="490" on="0"/>
        <pt x="271" y="523" on="0"/>
        <pt x="239" y="523" on="1"/>
        <pt x="194" y="518" on="0"/>
        <pt x="127" y="462" on="0"/>
        <pt x="83" y="387" on="0"/>
        <pt x="61" y="305" on="0"/>
      </contour>
    </TTGlyph>
    <TTGlyph name="currency" xMin="23" yMin="-27" xMax="433" yMax="480">
      <contour>
        <pt x="73" y="183" on="1"/>
        <pt x="73" y="201" on="0"/>
        <pt x="78" y="246" on="0"/>
        <pt x="88" y="295" on="0"/>
        <pt x="106" y="343" on="0"/>
        <pt x="117" y="366" on="1"/>
        <pt x="59" y="460" on="1"/>
        <pt x="78" y="480" on="1"/>
        <pt x="142" y="408" on="1"/>
        <pt x="161" y="433" on="0"/>
        <pt x="212" y="465" on="0"/>
        <pt x="245" y="465" on="1"/>
        <pt x="268" y="465" on="0"/>
        <pt x="308" y="442" on="0"/>
        <pt x="325" y="422" on="1"/>
        <pt x="364" y="471" on="1"/>
        <pt x="404" y="442" on="1"/>
        <pt x="355" y="376" on="1"/>
        <pt x="373" y="343" on="0"/>
        <pt x="390" y="263" on="0"/>
        <pt x="388" y="224" on="1"/>
        <pt x="388" y="167" on="0"/>
        <pt x="367" y="120" on="1"/>
        <pt x="390" y="87" on="0"/>
        <pt x="427" y="30" on="0"/>
        <pt x="433" y="13" on="1"/>
        <pt x="394" y="-6" on="1"/>
        <pt x="338" y="72" on="1"/>
        <pt x="314" y="43" on="0"/>
        <pt x="254" y="6" on="0"/>
        <pt x="192" y="-5" on="0"/>
        <pt x="134" y="14" on="0"/>
        <pt x="113" y="40" on="1"/>
        <pt x="94" y="18" on="0"/>
        <pt x="67" y="-17" on="0"/>
        <pt x="63" y="-27" on="1"/>
        <pt x="23" y="-17" on="1"/>
        <pt x="89" y="82" on="1"/>
        <pt x="81" y="101" on="0"/>
        <pt x="73" y="151" on="0"/>
      </contour>
      <contour>
        <pt x="107" y="186" on="1"/>
        <pt x="109" y="125" on="0"/>
        <pt x="146" y="59" on="0"/>
        <pt x="198" y="38" on="0"/>
        <pt x="258" y="58" on="0"/>
        <pt x="310" y="109" on="0"/>
        <pt x="346" y="186" on="0"/>
        <pt x="349" y="234" on="1"/>
        <pt x="349" y="270" on="0"/>
        <pt x="336" y="338" on="0"/>
        <pt x="308" y="391" on="0"/>
        <pt x="269" y="422" on="0"/>
        <pt x="244" y="422" on="1"/>
        <pt x="220" y="422" on="0"/>
        <pt x="181" y="397" on="0"/>
        <pt x="151" y="357" on="0"/>
        <pt x="129" y="305" on="0"/>
        <pt x="114" y="253" on="0"/>
        <pt x="107" y="204" on="0"/>
      </contour>
    </TTGlyph>
    <TTGlyph name="d" xMin="3" yMin="-2" xMax="314" yMax="771">
      <contour>
        <pt x="3" y="145" on="1"/>
        <pt x="3" y="172" on="0"/>
        <pt x="21" y="237" on="0"/>
        <pt x="55" y="292" on="0"/>
        <pt x="103" y="328" on="0"/>
        <pt x="135" y="328" on="1"/>
        <pt x="159" y="328" on="0"/>
        <pt x="196" y="319" on="0"/>
        <pt x="229" y="298" on="0"/>
        <pt x="258" y="269" on="0"/>
        <pt x="274" y="250" on="1"/>
        <pt x="268" y="763" on="1"/>
        <pt x="295" y="773" on="0"/>
        <pt x="308" y="769" on="0"/>
        <pt x="308" y="754" on="1"/>
        <pt x="308" y="752" on="0"/>
        <pt x="307" y="744" on="0"/>
        <pt x="307" y="743" on="1"/>
        <pt x="306" y="724" on="0"/>
        <pt x="305" y="654" on="0"/>
        <pt x="306" y="562" on="0"/>
        <pt x="308" y="455" on="0"/>
        <pt x="310" y="346" on="0"/>
        <pt x="313" y="239" on="0"/>
        <pt x="314" y="147" on="0"/>
        <pt x="313" y="76" on="0"/>
        <pt x="312" y="58" on="1"/>
        <pt x="301" y="35" on="0"/>
        <pt x="262" y="11" on="0"/>
        <pt x="217" y="0" on="0"/>
        <pt x="169" y="-2" on="0"/>
        <pt x="148" y="-2" on="1"/>
        <pt x="81" y="-2" on="0"/>
        <pt x="3" y="77" on="0"/>
      </contour>
      <contour>
        <pt x="43" y="172" on="1"/>
        <pt x="43" y="147" on="0"/>
        <pt x="51" y="98" on="0"/>
        <pt x="71" y="60" on="0"/>
        <pt x="107" y="37" on="0"/>
        <pt x="135" y="37" on="1"/>
        <pt x="152" y="37" on="0"/>
        <pt x="200" y="37" on="0"/>
        <pt x="244" y="48" on="0"/>
        <pt x="274" y="72" on="0"/>
        <pt x="274" y="94" on="1"/>
        <pt x="274" y="120" on="0"/>
        <pt x="259" y="187" on="0"/>
        <pt x="228" y="248" on="0"/>
        <pt x="181" y="291" on="0"/>
        <pt x="149" y="291" on="1"/>
        <pt x="128" y="291" on="0"/>
        <pt x="90" y="269" on="0"/>
        <pt x="61" y="235" on="0"/>
        <pt x="43" y="193" on="0"/>
      </contour>
    </TTGlyph>
    <TTGlyph name="dagger" xMin="19" yMin="-28" xMax="367" yMax="763">
      <contour>
        <pt x="37" y="476" on="1"/>
        <pt x="38" y="477" on="0"/>
        <pt x="58" y="480" on="0"/>
        <pt x="91" y="484" on="0"/>
        <pt x="136" y="490" on="0"/>
        <pt x="162" y="492" on="1"/>
        <pt x="160" y="535" on="0"/>
        <pt x="160" y="615" on="0"/>
        <pt x="159" y="649" on="1"/>
        <pt x="159" y="651" on="0"/>
        <pt x="160" y="667" on="0"/>
        <pt x="160" y="686" on="0"/>
        <pt x="162" y="705" on="0"/>
        <pt x="162" y="710" on="1"/>
        <pt x="162" y="713" on="0"/>
        <pt x="162" y="735" on="0"/>
        <pt x="169" y="757" on="0"/>
        <pt x="187" y="769" on="0"/>
        <pt x="205" y="762" on="1"/>
        <pt x="205" y="762" on="0"/>
        <pt x="207" y="721" on="0"/>
        <pt x="209" y="649" on="0"/>
        <pt x="211" y="553" on="0"/>
        <pt x="213" y="498" on="1"/>
        <pt x="230" y="499" on="0"/>
        <pt x="267" y="502" on="0"/>
        <pt x="286" y="504" on="1"/>
        <pt x="290" y="504" on="0"/>
        <pt x="313" y="505" on="0"/>
        <pt x="339" y="506" on="0"/>
        <pt x="362" y="507" on="0"/>
        <pt x="367" y="507" on="1"/>
        <pt x="367" y="493" on="0"/>
        <pt x="356" y="472" on="0"/>
        <pt x="343" y="466" on="1"/>
        <pt x="320" y="463" on="0"/>
        <pt x="251" y="455" on="0"/>
        <pt x="214" y="451" on="1"/>
        <pt x="215" y="395" on="0"/>
        <pt x="218" y="277" on="0"/>
        <pt x="220" y="161" on="0"/>
        <pt x="222" y="53" on="0"/>
        <pt x="223" y="7" on="1"/>
        <pt x="221" y="-11" on="0"/>
        <pt x="208" y="-28" on="0"/>
        <pt x="182" y="-28" on="1"/>
        <pt x="181" y="-27" on="0"/>
        <pt x="179" y="13" on="0"/>
        <pt x="175" y="81" on="0"/>
        <pt x="172" y="172" on="0"/>
        <pt x="168" y="277" on="0"/>
        <pt x="164" y="391" on="0"/>
        <pt x="163" y="446" on="1"/>
        <pt x="137" y="444" on="0"/>
        <pt x="92" y="439" on="0"/>
        <pt x="76" y="438" on="1"/>
        <pt x="74" y="438" on="0"/>
        <pt x="58" y="437" on="0"/>
        <pt x="55" y="437" on="1"/>
        <pt x="42" y="437" on="0"/>
        <pt x="24" y="441" on="0"/>
        <pt x="19" y="457" on="1"/>
      </contour>
    </TTGlyph>
    <TTGlyph name="daggerdbl" xMin="58" yMin="-28" xMax="333" yMax="688">
      <contour>
        <pt x="58" y="353" on="1"/>
        <pt x="81" y="356" on="0"/>
        <pt x="136" y="362" on="0"/>
        <pt x="166" y="365" on="1"/>
        <pt x="164" y="421" on="0"/>
        <pt x="163" y="526" on="0"/>
        <pt x="162" y="574" on="1"/>
        <pt x="162" y="576" on="0"/>
        <pt x="163" y="592" on="0"/>
        <pt x="163" y="610" on="0"/>
        <pt x="165" y="630" on="0"/>
        <pt x="165" y="635" on="1"/>
        <pt x="165" y="638" on="0"/>
        <pt x="165" y="660" on="0"/>
        <pt x="172" y="682" on="0"/>
        <pt x="190" y="693" on="0"/>
        <pt x="209" y="686" on="1"/>
        <pt x="209" y="686" on="0"/>
        <pt x="211" y="635" on="0"/>
        <pt x="213" y="549" on="0"/>
        <pt x="215" y="434" on="0"/>
        <pt x="217" y="370" on="1"/>
        <pt x="243" y="372" on="0"/>
        <pt x="296" y="375" on="0"/>
        <pt x="321" y="375" on="1"/>
        <pt x="321" y="334" on="1"/>
        <pt x="217" y="330" on="1"/>
        <pt x="218" y="294" on="0"/>
        <pt x="219" y="225" on="0"/>
        <pt x="220" y="189" on="1"/>
        <pt x="262" y="190" on="0"/>
        <pt x="327" y="188" on="0"/>
        <pt x="333" y="181" on="1"/>
        <pt x="333" y="157" on="1"/>
        <pt x="333" y="157" on="0"/>
        <pt x="315" y="156" on="0"/>
        <pt x="283" y="155" on="0"/>
        <pt x="243" y="154" on="0"/>
        <pt x="220" y="153" on="1"/>
        <pt x="221" y="115" on="0"/>
        <pt x="222" y="41" on="0"/>
        <pt x="223" y="7" on="1"/>
        <pt x="221" y="-11" on="0"/>
        <pt x="208" y="-28" on="0"/>
        <pt x="182" y="-28" on="1"/>
        <pt x="181" y="-27" on="0"/>
        <pt x="180" y="0" on="0"/>
        <pt x="177" y="48" on="0"/>
        <pt x="174" y="113" on="0"/>
        <pt x="172" y="151" on="1"/>
        <pt x="140" y="150" on="0"/>
        <pt x="83" y="146" on="0"/>
        <pt x="64" y="143" on="1"/>
        <pt x="64" y="143" on="0"/>
        <pt x="64" y="151" on="0"/>
        <pt x="64" y="162" on="0"/>
        <pt x="63" y="171" on="0"/>
        <pt x="61" y="172" on="1"/>
        <pt x="74" y="175" on="0"/>
        <pt x="136" y="183" on="0"/>
        <pt x="172" y="186" on="1"/>
        <pt x="170" y="220" on="0"/>
        <pt x="169" y="291" on="0"/>
        <pt x="167" y="328" on="1"/>
        <pt x="58" y="324" on="1"/>
      </contour>
    </TTGlyph>
    <TTGlyph name="dcaron" xMin="3" yMin="-2" xMax="408" yMax="771">
      <component glyphName="d" x="0" y="0" flags="0x1004"/>
      <component glyphName="quoteright" x="334" y="0" flags="0x1004"/>
    </TTGlyph>
    <TTGlyph name="dcroat" xMin="3" yMin="-2" xMax="405" yMax="771">
      <contour>
        <pt x="191" y="505" on="1"/>
        <pt x="192" y="506" on="0"/>
        <pt x="220" y="513" on="0"/>
        <pt x="243" y="517" on="1"/>
        <pt x="256" y="519" on="0"/>
        <pt x="271" y="522" on="1"/>
        <pt x="268" y="763" on="1"/>
        <pt x="295" y="773" on="0"/>
        <pt x="308" y="769" on="0"/>
        <pt x="308" y="754" on="1"/>
        <pt x="308" y="752" on="0"/>
        <pt x="307" y="744" on="0"/>
        <pt x="307" y="743" on="1"/>
        <pt x="306" y="724" on="0"/>
        <pt x="305" y="654" on="0"/>
        <pt x="305" y="607" on="1"/>
        <pt x="306" y="570" on="0"/>
        <pt x="307" y="527" on="1"/>
        <pt x="329" y="531" on="0"/>
        <pt x="352" y="534" on="1"/>
        <pt x="355" y="534" on="0"/>
        <pt x="370" y="535" on="0"/>
        <pt x="387" y="536" on="0"/>
        <pt x="402" y="537" on="0"/>
        <pt x="405" y="537" on="1"/>
        <pt x="405" y="523" on="0"/>
        <pt x="398" y="501" on="0"/>
        <pt x="390" y="495" on="1"/>
        <pt x="374" y="493" on="0"/>
        <pt x="351" y="489" on="1"/>
        <pt x="331" y="485" on="0"/>
        <pt x="307" y="481" on="1"/>
        <pt x="309" y="400" on="1"/>
        <pt x="310" y="346" on="0"/>
        <pt x="313" y="239" on="0"/>
        <pt x="314" y="147" on="0"/>
        <pt x="313" y="76" on="0"/>
        <pt x="312" y="58" on="1"/>
        <pt x="301" y="35" on="0"/>
        <pt x="262" y="11" on="0"/>
        <pt x="217" y="0" on="0"/>
        <pt x="169" y="-2" on="0"/>
        <pt x="148" y="-2" on="1"/>
        <pt x="81" y="-2" on="0"/>
        <pt x="3" y="77" on="0"/>
        <pt x="3" y="145" on="1"/>
        <pt x="3" y="172" on="0"/>
        <pt x="21" y="237" on="0"/>
        <pt x="55" y="292" on="0"/>
        <pt x="103" y="328" on="0"/>
        <pt x="135" y="328" on="1"/>
        <pt x="159" y="328" on="0"/>
        <pt x="196" y="319" on="0"/>
        <pt x="229" y="298" on="0"/>
        <pt x="258" y="269" on="0"/>
        <pt x="274" y="250" on="1"/>
        <pt x="271" y="475" on="1"/>
        <pt x="263" y="475" on="0"/>
        <pt x="255" y="473" on="1"/>
        <pt x="232" y="469" on="0"/>
        <pt x="216" y="467" on="1"/>
        <pt x="215" y="467" on="0"/>
        <pt x="205" y="466" on="0"/>
        <pt x="202" y="466" on="1"/>
        <pt x="194" y="466" on="0"/>
        <pt x="183" y="470" on="0"/>
        <pt x="178" y="487" on="1"/>
      </contour>
      <contour>
        <pt x="43" y="172" on="1"/>
        <pt x="43" y="147" on="0"/>
        <pt x="51" y="98" on="0"/>
        <pt x="71" y="60" on="0"/>
        <pt x="107" y="37" on="0"/>
        <pt x="135" y="37" on="1"/>
        <pt x="152" y="37" on="0"/>
        <pt x="200" y="37" on="0"/>
        <pt x="244" y="48" on="0"/>
        <pt x="274" y="72" on="0"/>
        <pt x="274" y="94" on="1"/>
        <pt x="274" y="120" on="0"/>
        <pt x="259" y="187" on="0"/>
        <pt x="228" y="248" on="0"/>
        <pt x="181" y="291" on="0"/>
        <pt x="149" y="291" on="1"/>
        <pt x="128" y="291" on="0"/>
        <pt x="90" y="269" on="0"/>
        <pt x="61" y="235" on="0"/>
        <pt x="43" y="193" on="0"/>
      </contour>
    </TTGlyph>
    <TTGlyph name="degree" xMin="9" yMin="151" xMax="222" yMax="429">
      <component glyphName="o" x="-7" y="150" scalex="0.672241210938" scaley="0.59814453125" flags="0x1004"/>
    </TTGlyph>
    <TTGlyph name="dieresis" xMin="46" yMin="504" xMax="290" yMax="585">
      <contour>
        <pt x="46" y="544" on="1"/>
        <pt x="43" y="559" on="0"/>
        <pt x="51" y="575" on="0"/>
        <pt x="67" y="583" on="0"/>
        <pt x="87" y="585" on="0"/>
        <pt x="95" y="585" on="1"/>
        <pt x="103" y="585" on="0"/>
        <pt x="122" y="583" on="0"/>
        <pt x="138" y="575" on="0"/>
        <pt x="146" y="559" on="0"/>
        <pt x="142" y="544" on="1"/>
        <pt x="139" y="530" on="0"/>
        <pt x="111" y="504" on="0"/>
        <pt x="95" y="504" on="1"/>
        <pt x="87" y="504" on="0"/>
        <pt x="71" y="511" on="0"/>
        <pt x="58" y="523" on="0"/>
        <pt x="49" y="537" on="0"/>
      </contour>
      <contour>
        <pt x="194" y="544" on="1"/>
        <pt x="190" y="559" on="0"/>
        <pt x="199" y="575" on="0"/>
        <pt x="215" y="583" on="0"/>
        <pt x="235" y="585" on="0"/>
        <pt x="243" y="585" on="1"/>
        <pt x="250" y="585" on="0"/>
        <pt x="270" y="583" on="0"/>
        <pt x="286" y="575" on="0"/>
        <pt x="294" y="559" on="0"/>
        <pt x="290" y="544" on="1"/>
        <pt x="289" y="537" on="0"/>
        <pt x="279" y="523" on="0"/>
        <pt x="266" y="511" on="0"/>
        <pt x="250" y="504" on="0"/>
        <pt x="243" y="504" on="1"/>
        <pt x="226" y="504" on="0"/>
        <pt x="198" y="530" on="0"/>
      </contour>
    </TTGlyph>
    <TTGlyph name="divide" xMin="14" yMin="51" xMax="261" yMax="353">
      <component glyphName="colon" x="70" y="-25" flags="0x1004"/>
      <component glyphName="minus" x="0" y="0" flags="0x1004"/>
    </TTGlyph>
</ttFont>
